G04 #@! TF.GenerationSoftware,KiCad,Pcbnew,5.1.5*
G04 #@! TF.CreationDate,2020-02-21T13:38:03-06:00*
G04 #@! TF.ProjectId,ESP-01_Breakout,4553502d-3031-45f4-9272-65616b6f7574,rev?*
G04 #@! TF.SameCoordinates,Original*
G04 #@! TF.FileFunction,Copper,L1,Top*
G04 #@! TF.FilePolarity,Positive*
%FSLAX46Y46*%
G04 Gerber Fmt 4.6, Leading zero omitted, Abs format (unit mm)*
G04 Created by KiCad (PCBNEW 5.1.5) date 2020-02-21 13:38:03*
%MOMM*%
%LPD*%
G04 APERTURE LIST*
%ADD10R,1.700000X1.700000*%
%ADD11R,1.000000X2.550000*%
%ADD12R,3.500000X3.500000*%
%ADD13C,0.127000*%
%ADD14R,2.050000X3.500000*%
%ADD15C,1.905000*%
%ADD16R,1.727200X1.727200*%
%ADD17O,1.727200X1.727200*%
%ADD18O,2.300000X1.500000*%
%ADD19R,2.300000X1.500000*%
%ADD20C,0.762000*%
%ADD21C,0.250000*%
%ADD22C,0.254000*%
G04 APERTURE END LIST*
D10*
X133170000Y-79075000D03*
X123370000Y-79075000D03*
D11*
X130270000Y-82550000D03*
X128270000Y-82550000D03*
X126270000Y-82550000D03*
D12*
X133254000Y-95250000D03*
G04 #@! TA.AperFunction,ComponentPad*
D13*
G36*
X128077513Y-93503611D02*
G01*
X128150318Y-93514411D01*
X128221714Y-93532295D01*
X128291013Y-93557090D01*
X128357548Y-93588559D01*
X128420678Y-93626398D01*
X128479795Y-93670242D01*
X128534330Y-93719670D01*
X128583758Y-93774205D01*
X128627602Y-93833322D01*
X128665441Y-93896452D01*
X128696910Y-93962987D01*
X128721705Y-94032286D01*
X128739589Y-94103682D01*
X128750389Y-94176487D01*
X128754000Y-94250000D01*
X128754000Y-96250000D01*
X128750389Y-96323513D01*
X128739589Y-96396318D01*
X128721705Y-96467714D01*
X128696910Y-96537013D01*
X128665441Y-96603548D01*
X128627602Y-96666678D01*
X128583758Y-96725795D01*
X128534330Y-96780330D01*
X128479795Y-96829758D01*
X128420678Y-96873602D01*
X128357548Y-96911441D01*
X128291013Y-96942910D01*
X128221714Y-96967705D01*
X128150318Y-96985589D01*
X128077513Y-96996389D01*
X128004000Y-97000000D01*
X126504000Y-97000000D01*
X126430487Y-96996389D01*
X126357682Y-96985589D01*
X126286286Y-96967705D01*
X126216987Y-96942910D01*
X126150452Y-96911441D01*
X126087322Y-96873602D01*
X126028205Y-96829758D01*
X125973670Y-96780330D01*
X125924242Y-96725795D01*
X125880398Y-96666678D01*
X125842559Y-96603548D01*
X125811090Y-96537013D01*
X125786295Y-96467714D01*
X125768411Y-96396318D01*
X125757611Y-96323513D01*
X125754000Y-96250000D01*
X125754000Y-94250000D01*
X125757611Y-94176487D01*
X125768411Y-94103682D01*
X125786295Y-94032286D01*
X125811090Y-93962987D01*
X125842559Y-93896452D01*
X125880398Y-93833322D01*
X125924242Y-93774205D01*
X125973670Y-93719670D01*
X126028205Y-93670242D01*
X126087322Y-93626398D01*
X126150452Y-93588559D01*
X126216987Y-93557090D01*
X126286286Y-93532295D01*
X126357682Y-93514411D01*
X126430487Y-93503611D01*
X126504000Y-93500000D01*
X128004000Y-93500000D01*
X128077513Y-93503611D01*
G37*
G04 #@! TD.AperFunction*
G04 #@! TA.AperFunction,ComponentPad*
G36*
X131214765Y-98204213D02*
G01*
X131299704Y-98216813D01*
X131382999Y-98237677D01*
X131463848Y-98266605D01*
X131541472Y-98303319D01*
X131615124Y-98347464D01*
X131684094Y-98398616D01*
X131747718Y-98456282D01*
X131805384Y-98519906D01*
X131856536Y-98588876D01*
X131900681Y-98662528D01*
X131937395Y-98740152D01*
X131966323Y-98821001D01*
X131987187Y-98904296D01*
X131999787Y-98989235D01*
X132004000Y-99075000D01*
X132004000Y-100825000D01*
X131999787Y-100910765D01*
X131987187Y-100995704D01*
X131966323Y-101078999D01*
X131937395Y-101159848D01*
X131900681Y-101237472D01*
X131856536Y-101311124D01*
X131805384Y-101380094D01*
X131747718Y-101443718D01*
X131684094Y-101501384D01*
X131615124Y-101552536D01*
X131541472Y-101596681D01*
X131463848Y-101633395D01*
X131382999Y-101662323D01*
X131299704Y-101683187D01*
X131214765Y-101695787D01*
X131129000Y-101700000D01*
X129379000Y-101700000D01*
X129293235Y-101695787D01*
X129208296Y-101683187D01*
X129125001Y-101662323D01*
X129044152Y-101633395D01*
X128966528Y-101596681D01*
X128892876Y-101552536D01*
X128823906Y-101501384D01*
X128760282Y-101443718D01*
X128702616Y-101380094D01*
X128651464Y-101311124D01*
X128607319Y-101237472D01*
X128570605Y-101159848D01*
X128541677Y-101078999D01*
X128520813Y-100995704D01*
X128508213Y-100910765D01*
X128504000Y-100825000D01*
X128504000Y-99075000D01*
X128508213Y-98989235D01*
X128520813Y-98904296D01*
X128541677Y-98821001D01*
X128570605Y-98740152D01*
X128607319Y-98662528D01*
X128651464Y-98588876D01*
X128702616Y-98519906D01*
X128760282Y-98456282D01*
X128823906Y-98398616D01*
X128892876Y-98347464D01*
X128966528Y-98303319D01*
X129044152Y-98266605D01*
X129125001Y-98237677D01*
X129208296Y-98216813D01*
X129293235Y-98204213D01*
X129379000Y-98200000D01*
X131129000Y-98200000D01*
X131214765Y-98204213D01*
G37*
G04 #@! TD.AperFunction*
D14*
X144885000Y-81915000D03*
X142135000Y-81915000D03*
D15*
X187960000Y-81280000D03*
D16*
X162560000Y-99060000D03*
D17*
X160020000Y-99060000D03*
X162560000Y-96520000D03*
X160020000Y-96520000D03*
X162560000Y-93980000D03*
X160020000Y-93980000D03*
X162560000Y-91440000D03*
X160020000Y-91440000D03*
D15*
X160020000Y-83820000D03*
X167640000Y-83820000D03*
X167640000Y-96520000D03*
X162560000Y-83820000D03*
X165100000Y-83820000D03*
X205740000Y-99060000D03*
X205740000Y-83820000D03*
X170180000Y-91440000D03*
X172720000Y-93980000D03*
X205740000Y-86360000D03*
X205740000Y-88900000D03*
X198120000Y-96520000D03*
X170180000Y-99060000D03*
X172720000Y-99060000D03*
X177800000Y-83820000D03*
X172720000Y-91440000D03*
X170180000Y-93980000D03*
X203200000Y-86360000D03*
X203200000Y-88900000D03*
X182880000Y-96520000D03*
X203200000Y-99060000D03*
X182880000Y-99060000D03*
X175260000Y-83820000D03*
X177800000Y-93980000D03*
X205740000Y-91440000D03*
X198120000Y-88900000D03*
X198120000Y-86360000D03*
X193040000Y-96520000D03*
X185420000Y-99060000D03*
X177800000Y-99060000D03*
X172720000Y-83820000D03*
X175260000Y-93980000D03*
X198120000Y-91440000D03*
X193040000Y-88900000D03*
X195580000Y-86360000D03*
X190500000Y-96520000D03*
X180340000Y-99060000D03*
X170180000Y-83820000D03*
X203200000Y-93980000D03*
X203200000Y-91440000D03*
X190500000Y-88900000D03*
X193040000Y-86360000D03*
X180340000Y-96520000D03*
X175260000Y-99060000D03*
X190500000Y-81280000D03*
X203200000Y-83820000D03*
X182880000Y-93980000D03*
X200660000Y-91440000D03*
X195580000Y-88900000D03*
X187960000Y-86360000D03*
X185420000Y-96520000D03*
X203200000Y-81280000D03*
X193040000Y-81280000D03*
X180340000Y-83820000D03*
X190500000Y-93980000D03*
X195580000Y-91440000D03*
X200660000Y-88900000D03*
X190500000Y-86360000D03*
X200660000Y-96520000D03*
X198120000Y-81280000D03*
X205740000Y-81280000D03*
X193040000Y-83820000D03*
X187960000Y-93980000D03*
X175260000Y-91440000D03*
X187960000Y-88900000D03*
X200660000Y-86360000D03*
X203200000Y-96520000D03*
X200660000Y-81280000D03*
X185420000Y-81280000D03*
X200660000Y-83820000D03*
X193040000Y-93980000D03*
X193040000Y-91440000D03*
X182880000Y-88900000D03*
X182880000Y-86360000D03*
X205740000Y-96520000D03*
X195580000Y-81280000D03*
X182880000Y-81280000D03*
X190500000Y-83820000D03*
X180340000Y-93980000D03*
X190500000Y-91440000D03*
X185420000Y-88900000D03*
X185420000Y-86360000D03*
X177800000Y-96520000D03*
X198120000Y-99060000D03*
X180340000Y-81280000D03*
X187960000Y-83820000D03*
X205740000Y-93980000D03*
X185420000Y-91440000D03*
X180340000Y-88900000D03*
X180340000Y-86360000D03*
X170180000Y-96520000D03*
X170180000Y-81280000D03*
X200660000Y-99060000D03*
X185420000Y-83820000D03*
X195580000Y-93980000D03*
X187960000Y-91440000D03*
X177800000Y-88900000D03*
X175260000Y-86360000D03*
X187960000Y-96520000D03*
X177800000Y-81280000D03*
X195580000Y-99060000D03*
X198120000Y-83820000D03*
X198120000Y-93980000D03*
X177800000Y-91440000D03*
X172720000Y-88900000D03*
X172720000Y-86360000D03*
X172720000Y-96520000D03*
X187960000Y-99060000D03*
X175410000Y-81280000D03*
X182880000Y-83820000D03*
X185420000Y-93980000D03*
X182880000Y-91440000D03*
X170180000Y-88900000D03*
X170180000Y-86360000D03*
X195580000Y-96520000D03*
X190500000Y-99060000D03*
X172720000Y-81280000D03*
X195580000Y-83820000D03*
X200660000Y-93980000D03*
X180340000Y-91440000D03*
X175260000Y-88900000D03*
X177800000Y-86360000D03*
X175260000Y-96520000D03*
X193040000Y-99060000D03*
D18*
X149860000Y-86360000D03*
X149860000Y-83820000D03*
D19*
X149860000Y-81280000D03*
D18*
X149860000Y-99060000D03*
X149860000Y-96520000D03*
D19*
X149860000Y-93980000D03*
D14*
X144885000Y-92710000D03*
X142135000Y-92710000D03*
G04 #@! TA.AperFunction,SMDPad,CuDef*
D13*
G36*
X145254505Y-98241204D02*
G01*
X145278773Y-98244804D01*
X145302572Y-98250765D01*
X145325671Y-98259030D01*
X145347850Y-98269520D01*
X145368893Y-98282132D01*
X145388599Y-98296747D01*
X145406777Y-98313223D01*
X145423253Y-98331401D01*
X145437868Y-98351107D01*
X145450480Y-98372150D01*
X145460970Y-98394329D01*
X145469235Y-98417428D01*
X145475196Y-98441227D01*
X145478796Y-98465495D01*
X145480000Y-98489999D01*
X145480000Y-99140001D01*
X145478796Y-99164505D01*
X145475196Y-99188773D01*
X145469235Y-99212572D01*
X145460970Y-99235671D01*
X145450480Y-99257850D01*
X145437868Y-99278893D01*
X145423253Y-99298599D01*
X145406777Y-99316777D01*
X145388599Y-99333253D01*
X145368893Y-99347868D01*
X145347850Y-99360480D01*
X145325671Y-99370970D01*
X145302572Y-99379235D01*
X145278773Y-99385196D01*
X145254505Y-99388796D01*
X145230001Y-99390000D01*
X144329999Y-99390000D01*
X144305495Y-99388796D01*
X144281227Y-99385196D01*
X144257428Y-99379235D01*
X144234329Y-99370970D01*
X144212150Y-99360480D01*
X144191107Y-99347868D01*
X144171401Y-99333253D01*
X144153223Y-99316777D01*
X144136747Y-99298599D01*
X144122132Y-99278893D01*
X144109520Y-99257850D01*
X144099030Y-99235671D01*
X144090765Y-99212572D01*
X144084804Y-99188773D01*
X144081204Y-99164505D01*
X144080000Y-99140001D01*
X144080000Y-98489999D01*
X144081204Y-98465495D01*
X144084804Y-98441227D01*
X144090765Y-98417428D01*
X144099030Y-98394329D01*
X144109520Y-98372150D01*
X144122132Y-98351107D01*
X144136747Y-98331401D01*
X144153223Y-98313223D01*
X144171401Y-98296747D01*
X144191107Y-98282132D01*
X144212150Y-98269520D01*
X144234329Y-98259030D01*
X144257428Y-98250765D01*
X144281227Y-98244804D01*
X144305495Y-98241204D01*
X144329999Y-98240000D01*
X145230001Y-98240000D01*
X145254505Y-98241204D01*
G37*
G04 #@! TD.AperFunction*
G04 #@! TA.AperFunction,SMDPad,CuDef*
G36*
X145254505Y-96191204D02*
G01*
X145278773Y-96194804D01*
X145302572Y-96200765D01*
X145325671Y-96209030D01*
X145347850Y-96219520D01*
X145368893Y-96232132D01*
X145388599Y-96246747D01*
X145406777Y-96263223D01*
X145423253Y-96281401D01*
X145437868Y-96301107D01*
X145450480Y-96322150D01*
X145460970Y-96344329D01*
X145469235Y-96367428D01*
X145475196Y-96391227D01*
X145478796Y-96415495D01*
X145480000Y-96439999D01*
X145480000Y-97090001D01*
X145478796Y-97114505D01*
X145475196Y-97138773D01*
X145469235Y-97162572D01*
X145460970Y-97185671D01*
X145450480Y-97207850D01*
X145437868Y-97228893D01*
X145423253Y-97248599D01*
X145406777Y-97266777D01*
X145388599Y-97283253D01*
X145368893Y-97297868D01*
X145347850Y-97310480D01*
X145325671Y-97320970D01*
X145302572Y-97329235D01*
X145278773Y-97335196D01*
X145254505Y-97338796D01*
X145230001Y-97340000D01*
X144329999Y-97340000D01*
X144305495Y-97338796D01*
X144281227Y-97335196D01*
X144257428Y-97329235D01*
X144234329Y-97320970D01*
X144212150Y-97310480D01*
X144191107Y-97297868D01*
X144171401Y-97283253D01*
X144153223Y-97266777D01*
X144136747Y-97248599D01*
X144122132Y-97228893D01*
X144109520Y-97207850D01*
X144099030Y-97185671D01*
X144090765Y-97162572D01*
X144084804Y-97138773D01*
X144081204Y-97114505D01*
X144080000Y-97090001D01*
X144080000Y-96439999D01*
X144081204Y-96415495D01*
X144084804Y-96391227D01*
X144090765Y-96367428D01*
X144099030Y-96344329D01*
X144109520Y-96322150D01*
X144122132Y-96301107D01*
X144136747Y-96281401D01*
X144153223Y-96263223D01*
X144171401Y-96246747D01*
X144191107Y-96232132D01*
X144212150Y-96219520D01*
X144234329Y-96209030D01*
X144257428Y-96200765D01*
X144281227Y-96194804D01*
X144305495Y-96191204D01*
X144329999Y-96190000D01*
X145230001Y-96190000D01*
X145254505Y-96191204D01*
G37*
G04 #@! TD.AperFunction*
G04 #@! TA.AperFunction,SMDPad,CuDef*
G36*
X145254505Y-87446204D02*
G01*
X145278773Y-87449804D01*
X145302572Y-87455765D01*
X145325671Y-87464030D01*
X145347850Y-87474520D01*
X145368893Y-87487132D01*
X145388599Y-87501747D01*
X145406777Y-87518223D01*
X145423253Y-87536401D01*
X145437868Y-87556107D01*
X145450480Y-87577150D01*
X145460970Y-87599329D01*
X145469235Y-87622428D01*
X145475196Y-87646227D01*
X145478796Y-87670495D01*
X145480000Y-87694999D01*
X145480000Y-88345001D01*
X145478796Y-88369505D01*
X145475196Y-88393773D01*
X145469235Y-88417572D01*
X145460970Y-88440671D01*
X145450480Y-88462850D01*
X145437868Y-88483893D01*
X145423253Y-88503599D01*
X145406777Y-88521777D01*
X145388599Y-88538253D01*
X145368893Y-88552868D01*
X145347850Y-88565480D01*
X145325671Y-88575970D01*
X145302572Y-88584235D01*
X145278773Y-88590196D01*
X145254505Y-88593796D01*
X145230001Y-88595000D01*
X144329999Y-88595000D01*
X144305495Y-88593796D01*
X144281227Y-88590196D01*
X144257428Y-88584235D01*
X144234329Y-88575970D01*
X144212150Y-88565480D01*
X144191107Y-88552868D01*
X144171401Y-88538253D01*
X144153223Y-88521777D01*
X144136747Y-88503599D01*
X144122132Y-88483893D01*
X144109520Y-88462850D01*
X144099030Y-88440671D01*
X144090765Y-88417572D01*
X144084804Y-88393773D01*
X144081204Y-88369505D01*
X144080000Y-88345001D01*
X144080000Y-87694999D01*
X144081204Y-87670495D01*
X144084804Y-87646227D01*
X144090765Y-87622428D01*
X144099030Y-87599329D01*
X144109520Y-87577150D01*
X144122132Y-87556107D01*
X144136747Y-87536401D01*
X144153223Y-87518223D01*
X144171401Y-87501747D01*
X144191107Y-87487132D01*
X144212150Y-87474520D01*
X144234329Y-87464030D01*
X144257428Y-87455765D01*
X144281227Y-87449804D01*
X144305495Y-87446204D01*
X144329999Y-87445000D01*
X145230001Y-87445000D01*
X145254505Y-87446204D01*
G37*
G04 #@! TD.AperFunction*
G04 #@! TA.AperFunction,SMDPad,CuDef*
G36*
X145254505Y-85396204D02*
G01*
X145278773Y-85399804D01*
X145302572Y-85405765D01*
X145325671Y-85414030D01*
X145347850Y-85424520D01*
X145368893Y-85437132D01*
X145388599Y-85451747D01*
X145406777Y-85468223D01*
X145423253Y-85486401D01*
X145437868Y-85506107D01*
X145450480Y-85527150D01*
X145460970Y-85549329D01*
X145469235Y-85572428D01*
X145475196Y-85596227D01*
X145478796Y-85620495D01*
X145480000Y-85644999D01*
X145480000Y-86295001D01*
X145478796Y-86319505D01*
X145475196Y-86343773D01*
X145469235Y-86367572D01*
X145460970Y-86390671D01*
X145450480Y-86412850D01*
X145437868Y-86433893D01*
X145423253Y-86453599D01*
X145406777Y-86471777D01*
X145388599Y-86488253D01*
X145368893Y-86502868D01*
X145347850Y-86515480D01*
X145325671Y-86525970D01*
X145302572Y-86534235D01*
X145278773Y-86540196D01*
X145254505Y-86543796D01*
X145230001Y-86545000D01*
X144329999Y-86545000D01*
X144305495Y-86543796D01*
X144281227Y-86540196D01*
X144257428Y-86534235D01*
X144234329Y-86525970D01*
X144212150Y-86515480D01*
X144191107Y-86502868D01*
X144171401Y-86488253D01*
X144153223Y-86471777D01*
X144136747Y-86453599D01*
X144122132Y-86433893D01*
X144109520Y-86412850D01*
X144099030Y-86390671D01*
X144090765Y-86367572D01*
X144084804Y-86343773D01*
X144081204Y-86319505D01*
X144080000Y-86295001D01*
X144080000Y-85644999D01*
X144081204Y-85620495D01*
X144084804Y-85596227D01*
X144090765Y-85572428D01*
X144099030Y-85549329D01*
X144109520Y-85527150D01*
X144122132Y-85506107D01*
X144136747Y-85486401D01*
X144153223Y-85468223D01*
X144171401Y-85451747D01*
X144191107Y-85437132D01*
X144212150Y-85424520D01*
X144234329Y-85414030D01*
X144257428Y-85405765D01*
X144281227Y-85399804D01*
X144305495Y-85396204D01*
X144329999Y-85395000D01*
X145230001Y-85395000D01*
X145254505Y-85396204D01*
G37*
G04 #@! TD.AperFunction*
G04 #@! TA.AperFunction,SMDPad,CuDef*
G36*
X142714505Y-98241204D02*
G01*
X142738773Y-98244804D01*
X142762572Y-98250765D01*
X142785671Y-98259030D01*
X142807850Y-98269520D01*
X142828893Y-98282132D01*
X142848599Y-98296747D01*
X142866777Y-98313223D01*
X142883253Y-98331401D01*
X142897868Y-98351107D01*
X142910480Y-98372150D01*
X142920970Y-98394329D01*
X142929235Y-98417428D01*
X142935196Y-98441227D01*
X142938796Y-98465495D01*
X142940000Y-98489999D01*
X142940000Y-99140001D01*
X142938796Y-99164505D01*
X142935196Y-99188773D01*
X142929235Y-99212572D01*
X142920970Y-99235671D01*
X142910480Y-99257850D01*
X142897868Y-99278893D01*
X142883253Y-99298599D01*
X142866777Y-99316777D01*
X142848599Y-99333253D01*
X142828893Y-99347868D01*
X142807850Y-99360480D01*
X142785671Y-99370970D01*
X142762572Y-99379235D01*
X142738773Y-99385196D01*
X142714505Y-99388796D01*
X142690001Y-99390000D01*
X141789999Y-99390000D01*
X141765495Y-99388796D01*
X141741227Y-99385196D01*
X141717428Y-99379235D01*
X141694329Y-99370970D01*
X141672150Y-99360480D01*
X141651107Y-99347868D01*
X141631401Y-99333253D01*
X141613223Y-99316777D01*
X141596747Y-99298599D01*
X141582132Y-99278893D01*
X141569520Y-99257850D01*
X141559030Y-99235671D01*
X141550765Y-99212572D01*
X141544804Y-99188773D01*
X141541204Y-99164505D01*
X141540000Y-99140001D01*
X141540000Y-98489999D01*
X141541204Y-98465495D01*
X141544804Y-98441227D01*
X141550765Y-98417428D01*
X141559030Y-98394329D01*
X141569520Y-98372150D01*
X141582132Y-98351107D01*
X141596747Y-98331401D01*
X141613223Y-98313223D01*
X141631401Y-98296747D01*
X141651107Y-98282132D01*
X141672150Y-98269520D01*
X141694329Y-98259030D01*
X141717428Y-98250765D01*
X141741227Y-98244804D01*
X141765495Y-98241204D01*
X141789999Y-98240000D01*
X142690001Y-98240000D01*
X142714505Y-98241204D01*
G37*
G04 #@! TD.AperFunction*
G04 #@! TA.AperFunction,SMDPad,CuDef*
G36*
X142714505Y-96191204D02*
G01*
X142738773Y-96194804D01*
X142762572Y-96200765D01*
X142785671Y-96209030D01*
X142807850Y-96219520D01*
X142828893Y-96232132D01*
X142848599Y-96246747D01*
X142866777Y-96263223D01*
X142883253Y-96281401D01*
X142897868Y-96301107D01*
X142910480Y-96322150D01*
X142920970Y-96344329D01*
X142929235Y-96367428D01*
X142935196Y-96391227D01*
X142938796Y-96415495D01*
X142940000Y-96439999D01*
X142940000Y-97090001D01*
X142938796Y-97114505D01*
X142935196Y-97138773D01*
X142929235Y-97162572D01*
X142920970Y-97185671D01*
X142910480Y-97207850D01*
X142897868Y-97228893D01*
X142883253Y-97248599D01*
X142866777Y-97266777D01*
X142848599Y-97283253D01*
X142828893Y-97297868D01*
X142807850Y-97310480D01*
X142785671Y-97320970D01*
X142762572Y-97329235D01*
X142738773Y-97335196D01*
X142714505Y-97338796D01*
X142690001Y-97340000D01*
X141789999Y-97340000D01*
X141765495Y-97338796D01*
X141741227Y-97335196D01*
X141717428Y-97329235D01*
X141694329Y-97320970D01*
X141672150Y-97310480D01*
X141651107Y-97297868D01*
X141631401Y-97283253D01*
X141613223Y-97266777D01*
X141596747Y-97248599D01*
X141582132Y-97228893D01*
X141569520Y-97207850D01*
X141559030Y-97185671D01*
X141550765Y-97162572D01*
X141544804Y-97138773D01*
X141541204Y-97114505D01*
X141540000Y-97090001D01*
X141540000Y-96439999D01*
X141541204Y-96415495D01*
X141544804Y-96391227D01*
X141550765Y-96367428D01*
X141559030Y-96344329D01*
X141569520Y-96322150D01*
X141582132Y-96301107D01*
X141596747Y-96281401D01*
X141613223Y-96263223D01*
X141631401Y-96246747D01*
X141651107Y-96232132D01*
X141672150Y-96219520D01*
X141694329Y-96209030D01*
X141717428Y-96200765D01*
X141741227Y-96194804D01*
X141765495Y-96191204D01*
X141789999Y-96190000D01*
X142690001Y-96190000D01*
X142714505Y-96191204D01*
G37*
G04 #@! TD.AperFunction*
D20*
X142240000Y-98815000D02*
X144780000Y-98815000D01*
X144780000Y-98815000D02*
X145660000Y-98815000D01*
X147948000Y-96520000D02*
X149860000Y-96520000D01*
X145660000Y-98808000D02*
X147948000Y-96520000D01*
X145660000Y-98815000D02*
X145660000Y-98808000D01*
X142240000Y-88020000D02*
X144780000Y-88020000D01*
X144780000Y-88020000D02*
X145660000Y-88020000D01*
X145660000Y-88020000D02*
X145660000Y-88013000D01*
X147948000Y-83820000D02*
X149860000Y-83820000D01*
X147320000Y-84448000D02*
X147948000Y-83820000D01*
X147320000Y-86360000D02*
X147320000Y-84448000D01*
X145660000Y-88020000D02*
X147320000Y-86360000D01*
D21*
X142135000Y-85865000D02*
X142240000Y-85970000D01*
X142135000Y-81915000D02*
X142135000Y-85865000D01*
D20*
X144780000Y-82020000D02*
X144885000Y-81915000D01*
X144780000Y-85970000D02*
X144780000Y-82020000D01*
X146672000Y-81915000D02*
X147307000Y-81280000D01*
X144885000Y-81915000D02*
X146672000Y-81915000D01*
X147307000Y-81280000D02*
X149860000Y-81280000D01*
X144780000Y-96765000D02*
X144780000Y-95885000D01*
X144885000Y-95780000D02*
X144885000Y-92710000D01*
X144780000Y-95885000D02*
X144885000Y-95780000D01*
X147942000Y-93980000D02*
X149860000Y-93980000D01*
X144885000Y-92710000D02*
X146672000Y-92710000D01*
X146672000Y-92710000D02*
X147942000Y-93980000D01*
D22*
X160883599Y-93116401D02*
X160020000Y-93980000D01*
X161210601Y-92789399D02*
X160883599Y-93116401D01*
X165877910Y-86360000D02*
X161210601Y-91027309D01*
X161210601Y-91027309D02*
X161210601Y-92789399D01*
X170180000Y-86360000D02*
X165877910Y-86360000D01*
X160883599Y-95656401D02*
X160020000Y-96520000D01*
X167005000Y-88900000D02*
X163115601Y-92789399D01*
X161210601Y-93567309D02*
X161210601Y-95329399D01*
X170180000Y-88900000D02*
X167005000Y-88900000D01*
X163115601Y-92789399D02*
X161988511Y-92789399D01*
X161210601Y-95329399D02*
X160883599Y-95656401D01*
X161988511Y-92789399D02*
X161210601Y-93567309D01*
D20*
X149860000Y-99060000D02*
X153035000Y-99060000D01*
X153035000Y-99060000D02*
X155575000Y-96520000D01*
X155575000Y-96520000D02*
X155575000Y-88900000D01*
X155575000Y-88900000D02*
X156845000Y-87630000D01*
X162560000Y-84820000D02*
X162560000Y-83820000D01*
X159750000Y-87630000D02*
X162560000Y-84820000D01*
X156845000Y-87630000D02*
X159750000Y-87630000D01*
D22*
X162560000Y-100177600D02*
X162560000Y-99060000D01*
X163347400Y-100965000D02*
X162560000Y-100177600D01*
X205798962Y-100965000D02*
X163347400Y-100965000D01*
X207067001Y-99696961D02*
X205798962Y-100965000D01*
X207067001Y-90227001D02*
X207067001Y-99696961D01*
X205740000Y-88900000D02*
X207067001Y-90227001D01*
X158829399Y-92630601D02*
X159156401Y-92303599D01*
X159156401Y-92303599D02*
X160020000Y-91440000D01*
X158829399Y-99631489D02*
X158829399Y-92630601D01*
X205740000Y-86360000D02*
X207645000Y-88265000D01*
X207645000Y-88265000D02*
X207645000Y-99761028D01*
X160616920Y-101419010D02*
X158829399Y-99631489D01*
X207645000Y-99761028D02*
X205987019Y-101419010D01*
X205987019Y-101419010D02*
X160616920Y-101419010D01*
X165100000Y-93980000D02*
X162560000Y-96520000D01*
X170180000Y-93980000D02*
X165100000Y-93980000D01*
X170180000Y-91440000D02*
X166370000Y-91440000D01*
X163830000Y-93980000D02*
X162560000Y-93980000D01*
X166370000Y-91440000D02*
X163830000Y-93980000D01*
D20*
X128270000Y-84587000D02*
X128270000Y-82550000D01*
X128270000Y-88008000D02*
X128270000Y-84587000D01*
X133000000Y-92738000D02*
X128270000Y-88008000D01*
X133000000Y-95250000D02*
X133000000Y-92738000D01*
D22*
G36*
X131681928Y-78225000D02*
G01*
X131681928Y-79925000D01*
X131694188Y-80049482D01*
X131730498Y-80169180D01*
X131789463Y-80279494D01*
X131868815Y-80376185D01*
X131965506Y-80455537D01*
X132075820Y-80514502D01*
X132195518Y-80550812D01*
X132320000Y-80563072D01*
X134020000Y-80563072D01*
X134144482Y-80550812D01*
X134264180Y-80514502D01*
X134374494Y-80455537D01*
X134471185Y-80376185D01*
X134550537Y-80279494D01*
X134609502Y-80169180D01*
X134610769Y-80165000D01*
X140471928Y-80165000D01*
X140475000Y-81629250D01*
X140633750Y-81788000D01*
X142008000Y-81788000D01*
X142008000Y-79688750D01*
X141849250Y-79530000D01*
X141110000Y-79526928D01*
X140985518Y-79539188D01*
X140865820Y-79575498D01*
X140755506Y-79634463D01*
X140658815Y-79713815D01*
X140579463Y-79810506D01*
X140520498Y-79920820D01*
X140484188Y-80040518D01*
X140471928Y-80165000D01*
X134610769Y-80165000D01*
X134645812Y-80049482D01*
X134658072Y-79925000D01*
X134658072Y-78225000D01*
X134652507Y-78168500D01*
X160304627Y-78168500D01*
X160349955Y-78204012D01*
X160555988Y-78410045D01*
X160735668Y-78639390D01*
X160886401Y-78888733D01*
X161005974Y-79154414D01*
X161092657Y-79432588D01*
X161145177Y-79719179D01*
X161163000Y-80013832D01*
X161163000Y-82912453D01*
X161121535Y-82898070D01*
X160199605Y-83820000D01*
X160213748Y-83834143D01*
X160034143Y-84013748D01*
X160020000Y-83999605D01*
X159098070Y-84921535D01*
X159188098Y-85181081D01*
X159469616Y-85317224D01*
X159730187Y-85384896D01*
X159605586Y-85440974D01*
X159327412Y-85527657D01*
X159040821Y-85580177D01*
X158746168Y-85598000D01*
X151423137Y-85598000D01*
X151417157Y-85586812D01*
X151244081Y-85375919D01*
X151033188Y-85202843D01*
X150822073Y-85090000D01*
X151033188Y-84977157D01*
X151244081Y-84804081D01*
X151417157Y-84593188D01*
X151545764Y-84352581D01*
X151624960Y-84091507D01*
X151645350Y-83884474D01*
X158426123Y-83884474D01*
X158469328Y-84194185D01*
X158572123Y-84489516D01*
X158658919Y-84651902D01*
X158918465Y-84741930D01*
X159840395Y-83820000D01*
X158918465Y-82898070D01*
X158658919Y-82988098D01*
X158522776Y-83269616D01*
X158444171Y-83572286D01*
X158426123Y-83884474D01*
X151645350Y-83884474D01*
X151651701Y-83820000D01*
X151624960Y-83548493D01*
X151545764Y-83287419D01*
X151417157Y-83046812D01*
X151244081Y-82835919D01*
X151100963Y-82718465D01*
X159098070Y-82718465D01*
X160020000Y-83640395D01*
X160941930Y-82718465D01*
X160851902Y-82458919D01*
X160570384Y-82322776D01*
X160267714Y-82244171D01*
X159955526Y-82226123D01*
X159645815Y-82269328D01*
X159350484Y-82372123D01*
X159188098Y-82458919D01*
X159098070Y-82718465D01*
X151100963Y-82718465D01*
X151036392Y-82665473D01*
X151134482Y-82655812D01*
X151254180Y-82619502D01*
X151364494Y-82560537D01*
X151461185Y-82481185D01*
X151540537Y-82384494D01*
X151599502Y-82274180D01*
X151635812Y-82154482D01*
X151648072Y-82030000D01*
X151648072Y-80530000D01*
X151635812Y-80405518D01*
X151599502Y-80285820D01*
X151540537Y-80175506D01*
X151461185Y-80078815D01*
X151364494Y-79999463D01*
X151254180Y-79940498D01*
X151134482Y-79904188D01*
X151010000Y-79891928D01*
X148710000Y-79891928D01*
X148585518Y-79904188D01*
X148465820Y-79940498D01*
X148355506Y-79999463D01*
X148258815Y-80078815D01*
X148179463Y-80175506D01*
X148132161Y-80264000D01*
X147356902Y-80264000D01*
X147307000Y-80259085D01*
X147257098Y-80264000D01*
X147107829Y-80278702D01*
X146916313Y-80336798D01*
X146739810Y-80431140D01*
X146585104Y-80558104D01*
X146553287Y-80596873D01*
X146548072Y-80602088D01*
X146548072Y-80165000D01*
X146535812Y-80040518D01*
X146499502Y-79920820D01*
X146440537Y-79810506D01*
X146361185Y-79713815D01*
X146264494Y-79634463D01*
X146154180Y-79575498D01*
X146034482Y-79539188D01*
X145910000Y-79526928D01*
X143860000Y-79526928D01*
X143735518Y-79539188D01*
X143615820Y-79575498D01*
X143510000Y-79632061D01*
X143404180Y-79575498D01*
X143284482Y-79539188D01*
X143160000Y-79526928D01*
X142420750Y-79530000D01*
X142262000Y-79688750D01*
X142262000Y-81788000D01*
X142282000Y-81788000D01*
X142282000Y-82042000D01*
X142262000Y-82042000D01*
X142262000Y-84141250D01*
X142420750Y-84300000D01*
X143160000Y-84303072D01*
X143284482Y-84290812D01*
X143404180Y-84254502D01*
X143510000Y-84197939D01*
X143615820Y-84254502D01*
X143735518Y-84290812D01*
X143764000Y-84293617D01*
X143764000Y-84966187D01*
X143702038Y-85017038D01*
X143591595Y-85151613D01*
X143509528Y-85305149D01*
X143458992Y-85471745D01*
X143441928Y-85644999D01*
X143441928Y-86295001D01*
X143457880Y-86456965D01*
X143423980Y-86490865D01*
X143413811Y-86502345D01*
X143224649Y-86743793D01*
X143215937Y-86756414D01*
X143066266Y-87004000D01*
X142190098Y-87004000D01*
X142040829Y-87018702D01*
X141849313Y-87076798D01*
X141672810Y-87171140D01*
X141518104Y-87298104D01*
X141391140Y-87452810D01*
X141296798Y-87629313D01*
X141238702Y-87820829D01*
X141219085Y-88020000D01*
X141238702Y-88219171D01*
X141296798Y-88410687D01*
X141391140Y-88587190D01*
X141518104Y-88741896D01*
X141672810Y-88868860D01*
X141849313Y-88963202D01*
X142040829Y-89021298D01*
X142190098Y-89036000D01*
X142748000Y-89036000D01*
X142748000Y-90323640D01*
X142420750Y-90325000D01*
X142262000Y-90483750D01*
X142262000Y-92583000D01*
X142282000Y-92583000D01*
X142282000Y-92837000D01*
X142262000Y-92837000D01*
X142262000Y-94936250D01*
X142420750Y-95095000D01*
X142748000Y-95096360D01*
X142748000Y-95553352D01*
X142525750Y-95555000D01*
X142367000Y-95713750D01*
X142367000Y-96638000D01*
X142387000Y-96638000D01*
X142387000Y-96892000D01*
X142367000Y-96892000D01*
X142367000Y-96912000D01*
X142113000Y-96912000D01*
X142113000Y-96892000D01*
X141063750Y-96892000D01*
X140905000Y-97050750D01*
X140901928Y-97340000D01*
X140914188Y-97464482D01*
X140950498Y-97584180D01*
X141009463Y-97694494D01*
X141088815Y-97791185D01*
X141168594Y-97856658D01*
X141162038Y-97862038D01*
X141051595Y-97996613D01*
X140969528Y-98150149D01*
X140918992Y-98316745D01*
X140901928Y-98489999D01*
X140901928Y-99140001D01*
X140918992Y-99313255D01*
X140969528Y-99479851D01*
X141051595Y-99633387D01*
X141162038Y-99767962D01*
X141296613Y-99878405D01*
X141450149Y-99960472D01*
X141616745Y-100011008D01*
X141789999Y-100028072D01*
X142690001Y-100028072D01*
X142748000Y-100022360D01*
X142748000Y-100326168D01*
X142730177Y-100620821D01*
X142677657Y-100907412D01*
X142590974Y-101185586D01*
X142471401Y-101451267D01*
X142320668Y-101700610D01*
X142140988Y-101929955D01*
X141934955Y-102135988D01*
X141889627Y-102171500D01*
X136875373Y-102171500D01*
X136830045Y-102135988D01*
X136624012Y-101929955D01*
X136444332Y-101700610D01*
X136293599Y-101451267D01*
X136174026Y-101185586D01*
X136087343Y-100907412D01*
X136034823Y-100620821D01*
X136017000Y-100326168D01*
X136017000Y-96190000D01*
X140901928Y-96190000D01*
X140905000Y-96479250D01*
X141063750Y-96638000D01*
X142113000Y-96638000D01*
X142113000Y-95713750D01*
X141954250Y-95555000D01*
X141540000Y-95551928D01*
X141415518Y-95564188D01*
X141295820Y-95600498D01*
X141185506Y-95659463D01*
X141088815Y-95738815D01*
X141009463Y-95835506D01*
X140950498Y-95945820D01*
X140914188Y-96065518D01*
X140901928Y-96190000D01*
X136017000Y-96190000D01*
X136017000Y-94460000D01*
X140471928Y-94460000D01*
X140484188Y-94584482D01*
X140520498Y-94704180D01*
X140579463Y-94814494D01*
X140658815Y-94911185D01*
X140755506Y-94990537D01*
X140865820Y-95049502D01*
X140985518Y-95085812D01*
X141110000Y-95098072D01*
X141849250Y-95095000D01*
X142008000Y-94936250D01*
X142008000Y-92837000D01*
X140633750Y-92837000D01*
X140475000Y-92995750D01*
X140471928Y-94460000D01*
X136017000Y-94460000D01*
X136017000Y-92710000D01*
X136016768Y-92702332D01*
X135998249Y-92396169D01*
X135996401Y-92380944D01*
X135941112Y-92079245D01*
X135937442Y-92064355D01*
X135846191Y-91771521D01*
X135840752Y-91757182D01*
X135714869Y-91477481D01*
X135707742Y-91463901D01*
X135549063Y-91201414D01*
X135540351Y-91188793D01*
X135361104Y-90960000D01*
X140471928Y-90960000D01*
X140475000Y-92424250D01*
X140633750Y-92583000D01*
X142008000Y-92583000D01*
X142008000Y-90483750D01*
X141849250Y-90325000D01*
X141110000Y-90321928D01*
X140985518Y-90334188D01*
X140865820Y-90370498D01*
X140755506Y-90429463D01*
X140658815Y-90508815D01*
X140579463Y-90605506D01*
X140520498Y-90715820D01*
X140484188Y-90835518D01*
X140471928Y-90960000D01*
X135361104Y-90960000D01*
X135351189Y-90947345D01*
X135341020Y-90935865D01*
X135124135Y-90718980D01*
X135112655Y-90708811D01*
X134871207Y-90519649D01*
X134858586Y-90510937D01*
X134596099Y-90352258D01*
X134582519Y-90345131D01*
X134302818Y-90219248D01*
X134288479Y-90213809D01*
X133995645Y-90122558D01*
X133980755Y-90118888D01*
X133679056Y-90063599D01*
X133663831Y-90061751D01*
X133357668Y-90043232D01*
X133350000Y-90043000D01*
X132083832Y-90043000D01*
X131789179Y-90025177D01*
X131709397Y-90010556D01*
X129699444Y-88000604D01*
X129684823Y-87920821D01*
X129667000Y-87626168D01*
X129667000Y-84452928D01*
X129770000Y-84463072D01*
X129984250Y-84460000D01*
X130143000Y-84301250D01*
X130143000Y-82677000D01*
X130397000Y-82677000D01*
X130397000Y-84301250D01*
X130555750Y-84460000D01*
X130770000Y-84463072D01*
X130894482Y-84450812D01*
X131014180Y-84414502D01*
X131124494Y-84355537D01*
X131221185Y-84276185D01*
X131300537Y-84179494D01*
X131359502Y-84069180D01*
X131395812Y-83949482D01*
X131408072Y-83825000D01*
X131407576Y-83665000D01*
X140471928Y-83665000D01*
X140484188Y-83789482D01*
X140520498Y-83909180D01*
X140579463Y-84019494D01*
X140658815Y-84116185D01*
X140755506Y-84195537D01*
X140865820Y-84254502D01*
X140985518Y-84290812D01*
X141110000Y-84303072D01*
X141849250Y-84300000D01*
X142008000Y-84141250D01*
X142008000Y-82042000D01*
X140633750Y-82042000D01*
X140475000Y-82200750D01*
X140471928Y-83665000D01*
X131407576Y-83665000D01*
X131405000Y-82835750D01*
X131246250Y-82677000D01*
X130397000Y-82677000D01*
X130143000Y-82677000D01*
X130123000Y-82677000D01*
X130123000Y-82423000D01*
X130143000Y-82423000D01*
X130143000Y-80798750D01*
X130397000Y-80798750D01*
X130397000Y-82423000D01*
X131246250Y-82423000D01*
X131405000Y-82264250D01*
X131408072Y-81275000D01*
X131395812Y-81150518D01*
X131359502Y-81030820D01*
X131300537Y-80920506D01*
X131221185Y-80823815D01*
X131124494Y-80744463D01*
X131014180Y-80685498D01*
X130894482Y-80649188D01*
X130770000Y-80636928D01*
X130555750Y-80640000D01*
X130397000Y-80798750D01*
X130143000Y-80798750D01*
X129984250Y-80640000D01*
X129770000Y-80636928D01*
X129667000Y-80647072D01*
X129667000Y-80013832D01*
X129684823Y-79719179D01*
X129737343Y-79432588D01*
X129824026Y-79154414D01*
X129943599Y-78888733D01*
X130094332Y-78639390D01*
X130274012Y-78410045D01*
X130480045Y-78204012D01*
X130525373Y-78168500D01*
X131687493Y-78168500D01*
X131681928Y-78225000D01*
G37*
X131681928Y-78225000D02*
X131681928Y-79925000D01*
X131694188Y-80049482D01*
X131730498Y-80169180D01*
X131789463Y-80279494D01*
X131868815Y-80376185D01*
X131965506Y-80455537D01*
X132075820Y-80514502D01*
X132195518Y-80550812D01*
X132320000Y-80563072D01*
X134020000Y-80563072D01*
X134144482Y-80550812D01*
X134264180Y-80514502D01*
X134374494Y-80455537D01*
X134471185Y-80376185D01*
X134550537Y-80279494D01*
X134609502Y-80169180D01*
X134610769Y-80165000D01*
X140471928Y-80165000D01*
X140475000Y-81629250D01*
X140633750Y-81788000D01*
X142008000Y-81788000D01*
X142008000Y-79688750D01*
X141849250Y-79530000D01*
X141110000Y-79526928D01*
X140985518Y-79539188D01*
X140865820Y-79575498D01*
X140755506Y-79634463D01*
X140658815Y-79713815D01*
X140579463Y-79810506D01*
X140520498Y-79920820D01*
X140484188Y-80040518D01*
X140471928Y-80165000D01*
X134610769Y-80165000D01*
X134645812Y-80049482D01*
X134658072Y-79925000D01*
X134658072Y-78225000D01*
X134652507Y-78168500D01*
X160304627Y-78168500D01*
X160349955Y-78204012D01*
X160555988Y-78410045D01*
X160735668Y-78639390D01*
X160886401Y-78888733D01*
X161005974Y-79154414D01*
X161092657Y-79432588D01*
X161145177Y-79719179D01*
X161163000Y-80013832D01*
X161163000Y-82912453D01*
X161121535Y-82898070D01*
X160199605Y-83820000D01*
X160213748Y-83834143D01*
X160034143Y-84013748D01*
X160020000Y-83999605D01*
X159098070Y-84921535D01*
X159188098Y-85181081D01*
X159469616Y-85317224D01*
X159730187Y-85384896D01*
X159605586Y-85440974D01*
X159327412Y-85527657D01*
X159040821Y-85580177D01*
X158746168Y-85598000D01*
X151423137Y-85598000D01*
X151417157Y-85586812D01*
X151244081Y-85375919D01*
X151033188Y-85202843D01*
X150822073Y-85090000D01*
X151033188Y-84977157D01*
X151244081Y-84804081D01*
X151417157Y-84593188D01*
X151545764Y-84352581D01*
X151624960Y-84091507D01*
X151645350Y-83884474D01*
X158426123Y-83884474D01*
X158469328Y-84194185D01*
X158572123Y-84489516D01*
X158658919Y-84651902D01*
X158918465Y-84741930D01*
X159840395Y-83820000D01*
X158918465Y-82898070D01*
X158658919Y-82988098D01*
X158522776Y-83269616D01*
X158444171Y-83572286D01*
X158426123Y-83884474D01*
X151645350Y-83884474D01*
X151651701Y-83820000D01*
X151624960Y-83548493D01*
X151545764Y-83287419D01*
X151417157Y-83046812D01*
X151244081Y-82835919D01*
X151100963Y-82718465D01*
X159098070Y-82718465D01*
X160020000Y-83640395D01*
X160941930Y-82718465D01*
X160851902Y-82458919D01*
X160570384Y-82322776D01*
X160267714Y-82244171D01*
X159955526Y-82226123D01*
X159645815Y-82269328D01*
X159350484Y-82372123D01*
X159188098Y-82458919D01*
X159098070Y-82718465D01*
X151100963Y-82718465D01*
X151036392Y-82665473D01*
X151134482Y-82655812D01*
X151254180Y-82619502D01*
X151364494Y-82560537D01*
X151461185Y-82481185D01*
X151540537Y-82384494D01*
X151599502Y-82274180D01*
X151635812Y-82154482D01*
X151648072Y-82030000D01*
X151648072Y-80530000D01*
X151635812Y-80405518D01*
X151599502Y-80285820D01*
X151540537Y-80175506D01*
X151461185Y-80078815D01*
X151364494Y-79999463D01*
X151254180Y-79940498D01*
X151134482Y-79904188D01*
X151010000Y-79891928D01*
X148710000Y-79891928D01*
X148585518Y-79904188D01*
X148465820Y-79940498D01*
X148355506Y-79999463D01*
X148258815Y-80078815D01*
X148179463Y-80175506D01*
X148132161Y-80264000D01*
X147356902Y-80264000D01*
X147307000Y-80259085D01*
X147257098Y-80264000D01*
X147107829Y-80278702D01*
X146916313Y-80336798D01*
X146739810Y-80431140D01*
X146585104Y-80558104D01*
X146553287Y-80596873D01*
X146548072Y-80602088D01*
X146548072Y-80165000D01*
X146535812Y-80040518D01*
X146499502Y-79920820D01*
X146440537Y-79810506D01*
X146361185Y-79713815D01*
X146264494Y-79634463D01*
X146154180Y-79575498D01*
X146034482Y-79539188D01*
X145910000Y-79526928D01*
X143860000Y-79526928D01*
X143735518Y-79539188D01*
X143615820Y-79575498D01*
X143510000Y-79632061D01*
X143404180Y-79575498D01*
X143284482Y-79539188D01*
X143160000Y-79526928D01*
X142420750Y-79530000D01*
X142262000Y-79688750D01*
X142262000Y-81788000D01*
X142282000Y-81788000D01*
X142282000Y-82042000D01*
X142262000Y-82042000D01*
X142262000Y-84141250D01*
X142420750Y-84300000D01*
X143160000Y-84303072D01*
X143284482Y-84290812D01*
X143404180Y-84254502D01*
X143510000Y-84197939D01*
X143615820Y-84254502D01*
X143735518Y-84290812D01*
X143764000Y-84293617D01*
X143764000Y-84966187D01*
X143702038Y-85017038D01*
X143591595Y-85151613D01*
X143509528Y-85305149D01*
X143458992Y-85471745D01*
X143441928Y-85644999D01*
X143441928Y-86295001D01*
X143457880Y-86456965D01*
X143423980Y-86490865D01*
X143413811Y-86502345D01*
X143224649Y-86743793D01*
X143215937Y-86756414D01*
X143066266Y-87004000D01*
X142190098Y-87004000D01*
X142040829Y-87018702D01*
X141849313Y-87076798D01*
X141672810Y-87171140D01*
X141518104Y-87298104D01*
X141391140Y-87452810D01*
X141296798Y-87629313D01*
X141238702Y-87820829D01*
X141219085Y-88020000D01*
X141238702Y-88219171D01*
X141296798Y-88410687D01*
X141391140Y-88587190D01*
X141518104Y-88741896D01*
X141672810Y-88868860D01*
X141849313Y-88963202D01*
X142040829Y-89021298D01*
X142190098Y-89036000D01*
X142748000Y-89036000D01*
X142748000Y-90323640D01*
X142420750Y-90325000D01*
X142262000Y-90483750D01*
X142262000Y-92583000D01*
X142282000Y-92583000D01*
X142282000Y-92837000D01*
X142262000Y-92837000D01*
X142262000Y-94936250D01*
X142420750Y-95095000D01*
X142748000Y-95096360D01*
X142748000Y-95553352D01*
X142525750Y-95555000D01*
X142367000Y-95713750D01*
X142367000Y-96638000D01*
X142387000Y-96638000D01*
X142387000Y-96892000D01*
X142367000Y-96892000D01*
X142367000Y-96912000D01*
X142113000Y-96912000D01*
X142113000Y-96892000D01*
X141063750Y-96892000D01*
X140905000Y-97050750D01*
X140901928Y-97340000D01*
X140914188Y-97464482D01*
X140950498Y-97584180D01*
X141009463Y-97694494D01*
X141088815Y-97791185D01*
X141168594Y-97856658D01*
X141162038Y-97862038D01*
X141051595Y-97996613D01*
X140969528Y-98150149D01*
X140918992Y-98316745D01*
X140901928Y-98489999D01*
X140901928Y-99140001D01*
X140918992Y-99313255D01*
X140969528Y-99479851D01*
X141051595Y-99633387D01*
X141162038Y-99767962D01*
X141296613Y-99878405D01*
X141450149Y-99960472D01*
X141616745Y-100011008D01*
X141789999Y-100028072D01*
X142690001Y-100028072D01*
X142748000Y-100022360D01*
X142748000Y-100326168D01*
X142730177Y-100620821D01*
X142677657Y-100907412D01*
X142590974Y-101185586D01*
X142471401Y-101451267D01*
X142320668Y-101700610D01*
X142140988Y-101929955D01*
X141934955Y-102135988D01*
X141889627Y-102171500D01*
X136875373Y-102171500D01*
X136830045Y-102135988D01*
X136624012Y-101929955D01*
X136444332Y-101700610D01*
X136293599Y-101451267D01*
X136174026Y-101185586D01*
X136087343Y-100907412D01*
X136034823Y-100620821D01*
X136017000Y-100326168D01*
X136017000Y-96190000D01*
X140901928Y-96190000D01*
X140905000Y-96479250D01*
X141063750Y-96638000D01*
X142113000Y-96638000D01*
X142113000Y-95713750D01*
X141954250Y-95555000D01*
X141540000Y-95551928D01*
X141415518Y-95564188D01*
X141295820Y-95600498D01*
X141185506Y-95659463D01*
X141088815Y-95738815D01*
X141009463Y-95835506D01*
X140950498Y-95945820D01*
X140914188Y-96065518D01*
X140901928Y-96190000D01*
X136017000Y-96190000D01*
X136017000Y-94460000D01*
X140471928Y-94460000D01*
X140484188Y-94584482D01*
X140520498Y-94704180D01*
X140579463Y-94814494D01*
X140658815Y-94911185D01*
X140755506Y-94990537D01*
X140865820Y-95049502D01*
X140985518Y-95085812D01*
X141110000Y-95098072D01*
X141849250Y-95095000D01*
X142008000Y-94936250D01*
X142008000Y-92837000D01*
X140633750Y-92837000D01*
X140475000Y-92995750D01*
X140471928Y-94460000D01*
X136017000Y-94460000D01*
X136017000Y-92710000D01*
X136016768Y-92702332D01*
X135998249Y-92396169D01*
X135996401Y-92380944D01*
X135941112Y-92079245D01*
X135937442Y-92064355D01*
X135846191Y-91771521D01*
X135840752Y-91757182D01*
X135714869Y-91477481D01*
X135707742Y-91463901D01*
X135549063Y-91201414D01*
X135540351Y-91188793D01*
X135361104Y-90960000D01*
X140471928Y-90960000D01*
X140475000Y-92424250D01*
X140633750Y-92583000D01*
X142008000Y-92583000D01*
X142008000Y-90483750D01*
X141849250Y-90325000D01*
X141110000Y-90321928D01*
X140985518Y-90334188D01*
X140865820Y-90370498D01*
X140755506Y-90429463D01*
X140658815Y-90508815D01*
X140579463Y-90605506D01*
X140520498Y-90715820D01*
X140484188Y-90835518D01*
X140471928Y-90960000D01*
X135361104Y-90960000D01*
X135351189Y-90947345D01*
X135341020Y-90935865D01*
X135124135Y-90718980D01*
X135112655Y-90708811D01*
X134871207Y-90519649D01*
X134858586Y-90510937D01*
X134596099Y-90352258D01*
X134582519Y-90345131D01*
X134302818Y-90219248D01*
X134288479Y-90213809D01*
X133995645Y-90122558D01*
X133980755Y-90118888D01*
X133679056Y-90063599D01*
X133663831Y-90061751D01*
X133357668Y-90043232D01*
X133350000Y-90043000D01*
X132083832Y-90043000D01*
X131789179Y-90025177D01*
X131709397Y-90010556D01*
X129699444Y-88000604D01*
X129684823Y-87920821D01*
X129667000Y-87626168D01*
X129667000Y-84452928D01*
X129770000Y-84463072D01*
X129984250Y-84460000D01*
X130143000Y-84301250D01*
X130143000Y-82677000D01*
X130397000Y-82677000D01*
X130397000Y-84301250D01*
X130555750Y-84460000D01*
X130770000Y-84463072D01*
X130894482Y-84450812D01*
X131014180Y-84414502D01*
X131124494Y-84355537D01*
X131221185Y-84276185D01*
X131300537Y-84179494D01*
X131359502Y-84069180D01*
X131395812Y-83949482D01*
X131408072Y-83825000D01*
X131407576Y-83665000D01*
X140471928Y-83665000D01*
X140484188Y-83789482D01*
X140520498Y-83909180D01*
X140579463Y-84019494D01*
X140658815Y-84116185D01*
X140755506Y-84195537D01*
X140865820Y-84254502D01*
X140985518Y-84290812D01*
X141110000Y-84303072D01*
X141849250Y-84300000D01*
X142008000Y-84141250D01*
X142008000Y-82042000D01*
X140633750Y-82042000D01*
X140475000Y-82200750D01*
X140471928Y-83665000D01*
X131407576Y-83665000D01*
X131405000Y-82835750D01*
X131246250Y-82677000D01*
X130397000Y-82677000D01*
X130143000Y-82677000D01*
X130123000Y-82677000D01*
X130123000Y-82423000D01*
X130143000Y-82423000D01*
X130143000Y-80798750D01*
X130397000Y-80798750D01*
X130397000Y-82423000D01*
X131246250Y-82423000D01*
X131405000Y-82264250D01*
X131408072Y-81275000D01*
X131395812Y-81150518D01*
X131359502Y-81030820D01*
X131300537Y-80920506D01*
X131221185Y-80823815D01*
X131124494Y-80744463D01*
X131014180Y-80685498D01*
X130894482Y-80649188D01*
X130770000Y-80636928D01*
X130555750Y-80640000D01*
X130397000Y-80798750D01*
X130143000Y-80798750D01*
X129984250Y-80640000D01*
X129770000Y-80636928D01*
X129667000Y-80647072D01*
X129667000Y-80013832D01*
X129684823Y-79719179D01*
X129737343Y-79432588D01*
X129824026Y-79154414D01*
X129943599Y-78888733D01*
X130094332Y-78639390D01*
X130274012Y-78410045D01*
X130480045Y-78204012D01*
X130525373Y-78168500D01*
X131687493Y-78168500D01*
X131681928Y-78225000D01*
M02*
