G04 #@! TF.GenerationSoftware,KiCad,Pcbnew,5.1.5*
G04 #@! TF.CreationDate,2020-02-21T13:38:03-06:00*
G04 #@! TF.ProjectId,ESP-01_Breakout,4553502d-3031-45f4-9272-65616b6f7574,rev?*
G04 #@! TF.SameCoordinates,Original*
G04 #@! TF.FileFunction,Soldermask,Top*
G04 #@! TF.FilePolarity,Negative*
%FSLAX46Y46*%
G04 Gerber Fmt 4.6, Leading zero omitted, Abs format (unit mm)*
G04 Created by KiCad (PCBNEW 5.1.5) date 2020-02-21 13:38:03*
%MOMM*%
%LPD*%
G04 APERTURE LIST*
%ADD10C,0.127000*%
G04 APERTURE END LIST*
D10*
G36*
X131380366Y-98165695D02*
G01*
X131537460Y-98213349D01*
X131682231Y-98290731D01*
X131809128Y-98394872D01*
X131913269Y-98521769D01*
X131990651Y-98666540D01*
X132038305Y-98823634D01*
X132055000Y-98993140D01*
X132055000Y-100906860D01*
X132038305Y-101076366D01*
X131990651Y-101233460D01*
X131913269Y-101378231D01*
X131809128Y-101505128D01*
X131682231Y-101609269D01*
X131537460Y-101686651D01*
X131380366Y-101734305D01*
X131210860Y-101751000D01*
X129297140Y-101751000D01*
X129127634Y-101734305D01*
X128970540Y-101686651D01*
X128825769Y-101609269D01*
X128698872Y-101505128D01*
X128594731Y-101378231D01*
X128517349Y-101233460D01*
X128469695Y-101076366D01*
X128453000Y-100906860D01*
X128453000Y-98993140D01*
X128469695Y-98823634D01*
X128517349Y-98666540D01*
X128594731Y-98521769D01*
X128698872Y-98394872D01*
X128825769Y-98290731D01*
X128970540Y-98213349D01*
X129127634Y-98165695D01*
X129297140Y-98149000D01*
X131210860Y-98149000D01*
X131380366Y-98165695D01*
G37*
G36*
X205866425Y-98061988D02*
G01*
X206032710Y-98095063D01*
X206215336Y-98170709D01*
X206379694Y-98280530D01*
X206519470Y-98420306D01*
X206629291Y-98584664D01*
X206704937Y-98767290D01*
X206743500Y-98961164D01*
X206743500Y-99158836D01*
X206704937Y-99352710D01*
X206629291Y-99535336D01*
X206519470Y-99699694D01*
X206379694Y-99839470D01*
X206215336Y-99949291D01*
X206032710Y-100024937D01*
X205866425Y-100058012D01*
X205838837Y-100063500D01*
X205641163Y-100063500D01*
X205613575Y-100058012D01*
X205447290Y-100024937D01*
X205264664Y-99949291D01*
X205100306Y-99839470D01*
X204960530Y-99699694D01*
X204850709Y-99535336D01*
X204775063Y-99352710D01*
X204736500Y-99158836D01*
X204736500Y-98961164D01*
X204775063Y-98767290D01*
X204850709Y-98584664D01*
X204960530Y-98420306D01*
X205100306Y-98280530D01*
X205264664Y-98170709D01*
X205447290Y-98095063D01*
X205613575Y-98061988D01*
X205641163Y-98056500D01*
X205838837Y-98056500D01*
X205866425Y-98061988D01*
G37*
G36*
X193166425Y-98061988D02*
G01*
X193332710Y-98095063D01*
X193515336Y-98170709D01*
X193679694Y-98280530D01*
X193819470Y-98420306D01*
X193929291Y-98584664D01*
X194004937Y-98767290D01*
X194043500Y-98961164D01*
X194043500Y-99158836D01*
X194004937Y-99352710D01*
X193929291Y-99535336D01*
X193819470Y-99699694D01*
X193679694Y-99839470D01*
X193515336Y-99949291D01*
X193332710Y-100024937D01*
X193166425Y-100058012D01*
X193138837Y-100063500D01*
X192941163Y-100063500D01*
X192913575Y-100058012D01*
X192747290Y-100024937D01*
X192564664Y-99949291D01*
X192400306Y-99839470D01*
X192260530Y-99699694D01*
X192150709Y-99535336D01*
X192075063Y-99352710D01*
X192036500Y-99158836D01*
X192036500Y-98961164D01*
X192075063Y-98767290D01*
X192150709Y-98584664D01*
X192260530Y-98420306D01*
X192400306Y-98280530D01*
X192564664Y-98170709D01*
X192747290Y-98095063D01*
X192913575Y-98061988D01*
X192941163Y-98056500D01*
X193138837Y-98056500D01*
X193166425Y-98061988D01*
G37*
G36*
X190626425Y-98061988D02*
G01*
X190792710Y-98095063D01*
X190975336Y-98170709D01*
X191139694Y-98280530D01*
X191279470Y-98420306D01*
X191389291Y-98584664D01*
X191464937Y-98767290D01*
X191503500Y-98961164D01*
X191503500Y-99158836D01*
X191464937Y-99352710D01*
X191389291Y-99535336D01*
X191279470Y-99699694D01*
X191139694Y-99839470D01*
X190975336Y-99949291D01*
X190792710Y-100024937D01*
X190626425Y-100058012D01*
X190598837Y-100063500D01*
X190401163Y-100063500D01*
X190373575Y-100058012D01*
X190207290Y-100024937D01*
X190024664Y-99949291D01*
X189860306Y-99839470D01*
X189720530Y-99699694D01*
X189610709Y-99535336D01*
X189535063Y-99352710D01*
X189496500Y-99158836D01*
X189496500Y-98961164D01*
X189535063Y-98767290D01*
X189610709Y-98584664D01*
X189720530Y-98420306D01*
X189860306Y-98280530D01*
X190024664Y-98170709D01*
X190207290Y-98095063D01*
X190373575Y-98061988D01*
X190401163Y-98056500D01*
X190598837Y-98056500D01*
X190626425Y-98061988D01*
G37*
G36*
X188086425Y-98061988D02*
G01*
X188252710Y-98095063D01*
X188435336Y-98170709D01*
X188599694Y-98280530D01*
X188739470Y-98420306D01*
X188849291Y-98584664D01*
X188924937Y-98767290D01*
X188963500Y-98961164D01*
X188963500Y-99158836D01*
X188924937Y-99352710D01*
X188849291Y-99535336D01*
X188739470Y-99699694D01*
X188599694Y-99839470D01*
X188435336Y-99949291D01*
X188252710Y-100024937D01*
X188086425Y-100058012D01*
X188058837Y-100063500D01*
X187861163Y-100063500D01*
X187833575Y-100058012D01*
X187667290Y-100024937D01*
X187484664Y-99949291D01*
X187320306Y-99839470D01*
X187180530Y-99699694D01*
X187070709Y-99535336D01*
X186995063Y-99352710D01*
X186956500Y-99158836D01*
X186956500Y-98961164D01*
X186995063Y-98767290D01*
X187070709Y-98584664D01*
X187180530Y-98420306D01*
X187320306Y-98280530D01*
X187484664Y-98170709D01*
X187667290Y-98095063D01*
X187833575Y-98061988D01*
X187861163Y-98056500D01*
X188058837Y-98056500D01*
X188086425Y-98061988D01*
G37*
G36*
X195706425Y-98061988D02*
G01*
X195872710Y-98095063D01*
X196055336Y-98170709D01*
X196219694Y-98280530D01*
X196359470Y-98420306D01*
X196469291Y-98584664D01*
X196544937Y-98767290D01*
X196583500Y-98961164D01*
X196583500Y-99158836D01*
X196544937Y-99352710D01*
X196469291Y-99535336D01*
X196359470Y-99699694D01*
X196219694Y-99839470D01*
X196055336Y-99949291D01*
X195872710Y-100024937D01*
X195706425Y-100058012D01*
X195678837Y-100063500D01*
X195481163Y-100063500D01*
X195453575Y-100058012D01*
X195287290Y-100024937D01*
X195104664Y-99949291D01*
X194940306Y-99839470D01*
X194800530Y-99699694D01*
X194690709Y-99535336D01*
X194615063Y-99352710D01*
X194576500Y-99158836D01*
X194576500Y-98961164D01*
X194615063Y-98767290D01*
X194690709Y-98584664D01*
X194800530Y-98420306D01*
X194940306Y-98280530D01*
X195104664Y-98170709D01*
X195287290Y-98095063D01*
X195453575Y-98061988D01*
X195481163Y-98056500D01*
X195678837Y-98056500D01*
X195706425Y-98061988D01*
G37*
G36*
X200786425Y-98061988D02*
G01*
X200952710Y-98095063D01*
X201135336Y-98170709D01*
X201299694Y-98280530D01*
X201439470Y-98420306D01*
X201549291Y-98584664D01*
X201624937Y-98767290D01*
X201663500Y-98961164D01*
X201663500Y-99158836D01*
X201624937Y-99352710D01*
X201549291Y-99535336D01*
X201439470Y-99699694D01*
X201299694Y-99839470D01*
X201135336Y-99949291D01*
X200952710Y-100024937D01*
X200786425Y-100058012D01*
X200758837Y-100063500D01*
X200561163Y-100063500D01*
X200533575Y-100058012D01*
X200367290Y-100024937D01*
X200184664Y-99949291D01*
X200020306Y-99839470D01*
X199880530Y-99699694D01*
X199770709Y-99535336D01*
X199695063Y-99352710D01*
X199656500Y-99158836D01*
X199656500Y-98961164D01*
X199695063Y-98767290D01*
X199770709Y-98584664D01*
X199880530Y-98420306D01*
X200020306Y-98280530D01*
X200184664Y-98170709D01*
X200367290Y-98095063D01*
X200533575Y-98061988D01*
X200561163Y-98056500D01*
X200758837Y-98056500D01*
X200786425Y-98061988D01*
G37*
G36*
X198246425Y-98061988D02*
G01*
X198412710Y-98095063D01*
X198595336Y-98170709D01*
X198759694Y-98280530D01*
X198899470Y-98420306D01*
X199009291Y-98584664D01*
X199084937Y-98767290D01*
X199123500Y-98961164D01*
X199123500Y-99158836D01*
X199084937Y-99352710D01*
X199009291Y-99535336D01*
X198899470Y-99699694D01*
X198759694Y-99839470D01*
X198595336Y-99949291D01*
X198412710Y-100024937D01*
X198246425Y-100058012D01*
X198218837Y-100063500D01*
X198021163Y-100063500D01*
X197993575Y-100058012D01*
X197827290Y-100024937D01*
X197644664Y-99949291D01*
X197480306Y-99839470D01*
X197340530Y-99699694D01*
X197230709Y-99535336D01*
X197155063Y-99352710D01*
X197116500Y-99158836D01*
X197116500Y-98961164D01*
X197155063Y-98767290D01*
X197230709Y-98584664D01*
X197340530Y-98420306D01*
X197480306Y-98280530D01*
X197644664Y-98170709D01*
X197827290Y-98095063D01*
X197993575Y-98061988D01*
X198021163Y-98056500D01*
X198218837Y-98056500D01*
X198246425Y-98061988D01*
G37*
G36*
X175386425Y-98061988D02*
G01*
X175552710Y-98095063D01*
X175735336Y-98170709D01*
X175899694Y-98280530D01*
X176039470Y-98420306D01*
X176149291Y-98584664D01*
X176224937Y-98767290D01*
X176263500Y-98961164D01*
X176263500Y-99158836D01*
X176224937Y-99352710D01*
X176149291Y-99535336D01*
X176039470Y-99699694D01*
X175899694Y-99839470D01*
X175735336Y-99949291D01*
X175552710Y-100024937D01*
X175386425Y-100058012D01*
X175358837Y-100063500D01*
X175161163Y-100063500D01*
X175133575Y-100058012D01*
X174967290Y-100024937D01*
X174784664Y-99949291D01*
X174620306Y-99839470D01*
X174480530Y-99699694D01*
X174370709Y-99535336D01*
X174295063Y-99352710D01*
X174256500Y-99158836D01*
X174256500Y-98961164D01*
X174295063Y-98767290D01*
X174370709Y-98584664D01*
X174480530Y-98420306D01*
X174620306Y-98280530D01*
X174784664Y-98170709D01*
X174967290Y-98095063D01*
X175133575Y-98061988D01*
X175161163Y-98056500D01*
X175358837Y-98056500D01*
X175386425Y-98061988D01*
G37*
G36*
X177926425Y-98061988D02*
G01*
X178092710Y-98095063D01*
X178275336Y-98170709D01*
X178439694Y-98280530D01*
X178579470Y-98420306D01*
X178689291Y-98584664D01*
X178764937Y-98767290D01*
X178803500Y-98961164D01*
X178803500Y-99158836D01*
X178764937Y-99352710D01*
X178689291Y-99535336D01*
X178579470Y-99699694D01*
X178439694Y-99839470D01*
X178275336Y-99949291D01*
X178092710Y-100024937D01*
X177926425Y-100058012D01*
X177898837Y-100063500D01*
X177701163Y-100063500D01*
X177673575Y-100058012D01*
X177507290Y-100024937D01*
X177324664Y-99949291D01*
X177160306Y-99839470D01*
X177020530Y-99699694D01*
X176910709Y-99535336D01*
X176835063Y-99352710D01*
X176796500Y-99158836D01*
X176796500Y-98961164D01*
X176835063Y-98767290D01*
X176910709Y-98584664D01*
X177020530Y-98420306D01*
X177160306Y-98280530D01*
X177324664Y-98170709D01*
X177507290Y-98095063D01*
X177673575Y-98061988D01*
X177701163Y-98056500D01*
X177898837Y-98056500D01*
X177926425Y-98061988D01*
G37*
G36*
X185546425Y-98061988D02*
G01*
X185712710Y-98095063D01*
X185895336Y-98170709D01*
X186059694Y-98280530D01*
X186199470Y-98420306D01*
X186309291Y-98584664D01*
X186384937Y-98767290D01*
X186423500Y-98961164D01*
X186423500Y-99158836D01*
X186384937Y-99352710D01*
X186309291Y-99535336D01*
X186199470Y-99699694D01*
X186059694Y-99839470D01*
X185895336Y-99949291D01*
X185712710Y-100024937D01*
X185546425Y-100058012D01*
X185518837Y-100063500D01*
X185321163Y-100063500D01*
X185293575Y-100058012D01*
X185127290Y-100024937D01*
X184944664Y-99949291D01*
X184780306Y-99839470D01*
X184640530Y-99699694D01*
X184530709Y-99535336D01*
X184455063Y-99352710D01*
X184416500Y-99158836D01*
X184416500Y-98961164D01*
X184455063Y-98767290D01*
X184530709Y-98584664D01*
X184640530Y-98420306D01*
X184780306Y-98280530D01*
X184944664Y-98170709D01*
X185127290Y-98095063D01*
X185293575Y-98061988D01*
X185321163Y-98056500D01*
X185518837Y-98056500D01*
X185546425Y-98061988D01*
G37*
G36*
X183006425Y-98061988D02*
G01*
X183172710Y-98095063D01*
X183355336Y-98170709D01*
X183519694Y-98280530D01*
X183659470Y-98420306D01*
X183769291Y-98584664D01*
X183844937Y-98767290D01*
X183883500Y-98961164D01*
X183883500Y-99158836D01*
X183844937Y-99352710D01*
X183769291Y-99535336D01*
X183659470Y-99699694D01*
X183519694Y-99839470D01*
X183355336Y-99949291D01*
X183172710Y-100024937D01*
X183006425Y-100058012D01*
X182978837Y-100063500D01*
X182781163Y-100063500D01*
X182753575Y-100058012D01*
X182587290Y-100024937D01*
X182404664Y-99949291D01*
X182240306Y-99839470D01*
X182100530Y-99699694D01*
X181990709Y-99535336D01*
X181915063Y-99352710D01*
X181876500Y-99158836D01*
X181876500Y-98961164D01*
X181915063Y-98767290D01*
X181990709Y-98584664D01*
X182100530Y-98420306D01*
X182240306Y-98280530D01*
X182404664Y-98170709D01*
X182587290Y-98095063D01*
X182753575Y-98061988D01*
X182781163Y-98056500D01*
X182978837Y-98056500D01*
X183006425Y-98061988D01*
G37*
G36*
X203326425Y-98061988D02*
G01*
X203492710Y-98095063D01*
X203675336Y-98170709D01*
X203839694Y-98280530D01*
X203979470Y-98420306D01*
X204089291Y-98584664D01*
X204164937Y-98767290D01*
X204203500Y-98961164D01*
X204203500Y-99158836D01*
X204164937Y-99352710D01*
X204089291Y-99535336D01*
X203979470Y-99699694D01*
X203839694Y-99839470D01*
X203675336Y-99949291D01*
X203492710Y-100024937D01*
X203326425Y-100058012D01*
X203298837Y-100063500D01*
X203101163Y-100063500D01*
X203073575Y-100058012D01*
X202907290Y-100024937D01*
X202724664Y-99949291D01*
X202560306Y-99839470D01*
X202420530Y-99699694D01*
X202310709Y-99535336D01*
X202235063Y-99352710D01*
X202196500Y-99158836D01*
X202196500Y-98961164D01*
X202235063Y-98767290D01*
X202310709Y-98584664D01*
X202420530Y-98420306D01*
X202560306Y-98280530D01*
X202724664Y-98170709D01*
X202907290Y-98095063D01*
X203073575Y-98061988D01*
X203101163Y-98056500D01*
X203298837Y-98056500D01*
X203326425Y-98061988D01*
G37*
G36*
X172846425Y-98061988D02*
G01*
X173012710Y-98095063D01*
X173195336Y-98170709D01*
X173359694Y-98280530D01*
X173499470Y-98420306D01*
X173609291Y-98584664D01*
X173684937Y-98767290D01*
X173723500Y-98961164D01*
X173723500Y-99158836D01*
X173684937Y-99352710D01*
X173609291Y-99535336D01*
X173499470Y-99699694D01*
X173359694Y-99839470D01*
X173195336Y-99949291D01*
X173012710Y-100024937D01*
X172846425Y-100058012D01*
X172818837Y-100063500D01*
X172621163Y-100063500D01*
X172593575Y-100058012D01*
X172427290Y-100024937D01*
X172244664Y-99949291D01*
X172080306Y-99839470D01*
X171940530Y-99699694D01*
X171830709Y-99535336D01*
X171755063Y-99352710D01*
X171716500Y-99158836D01*
X171716500Y-98961164D01*
X171755063Y-98767290D01*
X171830709Y-98584664D01*
X171940530Y-98420306D01*
X172080306Y-98280530D01*
X172244664Y-98170709D01*
X172427290Y-98095063D01*
X172593575Y-98061988D01*
X172621163Y-98056500D01*
X172818837Y-98056500D01*
X172846425Y-98061988D01*
G37*
G36*
X170306425Y-98061988D02*
G01*
X170472710Y-98095063D01*
X170655336Y-98170709D01*
X170819694Y-98280530D01*
X170959470Y-98420306D01*
X171069291Y-98584664D01*
X171144937Y-98767290D01*
X171183500Y-98961164D01*
X171183500Y-99158836D01*
X171144937Y-99352710D01*
X171069291Y-99535336D01*
X170959470Y-99699694D01*
X170819694Y-99839470D01*
X170655336Y-99949291D01*
X170472710Y-100024937D01*
X170306425Y-100058012D01*
X170278837Y-100063500D01*
X170081163Y-100063500D01*
X170053575Y-100058012D01*
X169887290Y-100024937D01*
X169704664Y-99949291D01*
X169540306Y-99839470D01*
X169400530Y-99699694D01*
X169290709Y-99535336D01*
X169215063Y-99352710D01*
X169176500Y-99158836D01*
X169176500Y-98961164D01*
X169215063Y-98767290D01*
X169290709Y-98584664D01*
X169400530Y-98420306D01*
X169540306Y-98280530D01*
X169704664Y-98170709D01*
X169887290Y-98095063D01*
X170053575Y-98061988D01*
X170081163Y-98056500D01*
X170278837Y-98056500D01*
X170306425Y-98061988D01*
G37*
G36*
X180466425Y-98061988D02*
G01*
X180632710Y-98095063D01*
X180815336Y-98170709D01*
X180979694Y-98280530D01*
X181119470Y-98420306D01*
X181229291Y-98584664D01*
X181304937Y-98767290D01*
X181343500Y-98961164D01*
X181343500Y-99158836D01*
X181304937Y-99352710D01*
X181229291Y-99535336D01*
X181119470Y-99699694D01*
X180979694Y-99839470D01*
X180815336Y-99949291D01*
X180632710Y-100024937D01*
X180466425Y-100058012D01*
X180438837Y-100063500D01*
X180241163Y-100063500D01*
X180213575Y-100058012D01*
X180047290Y-100024937D01*
X179864664Y-99949291D01*
X179700306Y-99839470D01*
X179560530Y-99699694D01*
X179450709Y-99535336D01*
X179375063Y-99352710D01*
X179336500Y-99158836D01*
X179336500Y-98961164D01*
X179375063Y-98767290D01*
X179450709Y-98584664D01*
X179560530Y-98420306D01*
X179700306Y-98280530D01*
X179864664Y-98170709D01*
X180047290Y-98095063D01*
X180213575Y-98061988D01*
X180241163Y-98056500D01*
X180438837Y-98056500D01*
X180466425Y-98061988D01*
G37*
G36*
X160286778Y-98180547D02*
G01*
X160453224Y-98249491D01*
X160603022Y-98349583D01*
X160730417Y-98476978D01*
X160830509Y-98626776D01*
X160899453Y-98793222D01*
X160934600Y-98969918D01*
X160934600Y-99150082D01*
X160899453Y-99326778D01*
X160830509Y-99493224D01*
X160730417Y-99643022D01*
X160603022Y-99770417D01*
X160453224Y-99870509D01*
X160286778Y-99939453D01*
X160110082Y-99974600D01*
X159929918Y-99974600D01*
X159753222Y-99939453D01*
X159586776Y-99870509D01*
X159436978Y-99770417D01*
X159309583Y-99643022D01*
X159209491Y-99493224D01*
X159140547Y-99326778D01*
X159105400Y-99150082D01*
X159105400Y-98969918D01*
X159140547Y-98793222D01*
X159209491Y-98626776D01*
X159309583Y-98476978D01*
X159436978Y-98349583D01*
X159586776Y-98249491D01*
X159753222Y-98180547D01*
X159929918Y-98145400D01*
X160110082Y-98145400D01*
X160286778Y-98180547D01*
G37*
G36*
X163474600Y-99974600D02*
G01*
X161645400Y-99974600D01*
X161645400Y-98145400D01*
X163474600Y-98145400D01*
X163474600Y-99974600D01*
G37*
G36*
X150338571Y-98262863D02*
G01*
X150417023Y-98270590D01*
X150516487Y-98300762D01*
X150568013Y-98316392D01*
X150707165Y-98390771D01*
X150829133Y-98490867D01*
X150929229Y-98612835D01*
X151003608Y-98751987D01*
X151003608Y-98751988D01*
X151049410Y-98902977D01*
X151064875Y-99060000D01*
X151049410Y-99217023D01*
X151030708Y-99278674D01*
X151003608Y-99368013D01*
X150929229Y-99507165D01*
X150829133Y-99629133D01*
X150707165Y-99729229D01*
X150568013Y-99803608D01*
X150517682Y-99818875D01*
X150417023Y-99849410D01*
X150338571Y-99857137D01*
X150299346Y-99861000D01*
X149420654Y-99861000D01*
X149381429Y-99857137D01*
X149302977Y-99849410D01*
X149202318Y-99818875D01*
X149151987Y-99803608D01*
X149012835Y-99729229D01*
X148890867Y-99629133D01*
X148790771Y-99507165D01*
X148716392Y-99368013D01*
X148689292Y-99278674D01*
X148670590Y-99217023D01*
X148655125Y-99060000D01*
X148670590Y-98902977D01*
X148716392Y-98751988D01*
X148716392Y-98751987D01*
X148790771Y-98612835D01*
X148890867Y-98490867D01*
X149012835Y-98390771D01*
X149151987Y-98316392D01*
X149203513Y-98300762D01*
X149302977Y-98270590D01*
X149381429Y-98262863D01*
X149420654Y-98259000D01*
X150299346Y-98259000D01*
X150338571Y-98262863D01*
G37*
G36*
X145368674Y-98193465D02*
G01*
X145406367Y-98204899D01*
X145441103Y-98223466D01*
X145471548Y-98248452D01*
X145496534Y-98278897D01*
X145515101Y-98313633D01*
X145526535Y-98351326D01*
X145531000Y-98396661D01*
X145531000Y-99233339D01*
X145526535Y-99278674D01*
X145515101Y-99316367D01*
X145496534Y-99351103D01*
X145471548Y-99381548D01*
X145441103Y-99406534D01*
X145406367Y-99425101D01*
X145368674Y-99436535D01*
X145323339Y-99441000D01*
X144236661Y-99441000D01*
X144191326Y-99436535D01*
X144153633Y-99425101D01*
X144118897Y-99406534D01*
X144088452Y-99381548D01*
X144063466Y-99351103D01*
X144044899Y-99316367D01*
X144033465Y-99278674D01*
X144029000Y-99233339D01*
X144029000Y-98396661D01*
X144033465Y-98351326D01*
X144044899Y-98313633D01*
X144063466Y-98278897D01*
X144088452Y-98248452D01*
X144118897Y-98223466D01*
X144153633Y-98204899D01*
X144191326Y-98193465D01*
X144236661Y-98189000D01*
X145323339Y-98189000D01*
X145368674Y-98193465D01*
G37*
G36*
X142828674Y-98193465D02*
G01*
X142866367Y-98204899D01*
X142901103Y-98223466D01*
X142931548Y-98248452D01*
X142956534Y-98278897D01*
X142975101Y-98313633D01*
X142986535Y-98351326D01*
X142991000Y-98396661D01*
X142991000Y-99233339D01*
X142986535Y-99278674D01*
X142975101Y-99316367D01*
X142956534Y-99351103D01*
X142931548Y-99381548D01*
X142901103Y-99406534D01*
X142866367Y-99425101D01*
X142828674Y-99436535D01*
X142783339Y-99441000D01*
X141696661Y-99441000D01*
X141651326Y-99436535D01*
X141613633Y-99425101D01*
X141578897Y-99406534D01*
X141548452Y-99381548D01*
X141523466Y-99351103D01*
X141504899Y-99316367D01*
X141493465Y-99278674D01*
X141489000Y-99233339D01*
X141489000Y-98396661D01*
X141493465Y-98351326D01*
X141504899Y-98313633D01*
X141523466Y-98278897D01*
X141548452Y-98248452D01*
X141578897Y-98223466D01*
X141613633Y-98204899D01*
X141651326Y-98193465D01*
X141696661Y-98189000D01*
X142783339Y-98189000D01*
X142828674Y-98193465D01*
G37*
G36*
X175386425Y-95521988D02*
G01*
X175552710Y-95555063D01*
X175735336Y-95630709D01*
X175899694Y-95740530D01*
X176039470Y-95880306D01*
X176149291Y-96044664D01*
X176224937Y-96227290D01*
X176263500Y-96421164D01*
X176263500Y-96618836D01*
X176224937Y-96812710D01*
X176149291Y-96995336D01*
X176039470Y-97159694D01*
X175899694Y-97299470D01*
X175735336Y-97409291D01*
X175552710Y-97484937D01*
X175386425Y-97518012D01*
X175358837Y-97523500D01*
X175161163Y-97523500D01*
X175133575Y-97518012D01*
X174967290Y-97484937D01*
X174784664Y-97409291D01*
X174620306Y-97299470D01*
X174480530Y-97159694D01*
X174370709Y-96995336D01*
X174295063Y-96812710D01*
X174256500Y-96618836D01*
X174256500Y-96421164D01*
X174295063Y-96227290D01*
X174370709Y-96044664D01*
X174480530Y-95880306D01*
X174620306Y-95740530D01*
X174784664Y-95630709D01*
X174967290Y-95555063D01*
X175133575Y-95521988D01*
X175161163Y-95516500D01*
X175358837Y-95516500D01*
X175386425Y-95521988D01*
G37*
G36*
X170306425Y-95521988D02*
G01*
X170472710Y-95555063D01*
X170655336Y-95630709D01*
X170819694Y-95740530D01*
X170959470Y-95880306D01*
X171069291Y-96044664D01*
X171144937Y-96227290D01*
X171183500Y-96421164D01*
X171183500Y-96618836D01*
X171144937Y-96812710D01*
X171069291Y-96995336D01*
X170959470Y-97159694D01*
X170819694Y-97299470D01*
X170655336Y-97409291D01*
X170472710Y-97484937D01*
X170306425Y-97518012D01*
X170278837Y-97523500D01*
X170081163Y-97523500D01*
X170053575Y-97518012D01*
X169887290Y-97484937D01*
X169704664Y-97409291D01*
X169540306Y-97299470D01*
X169400530Y-97159694D01*
X169290709Y-96995336D01*
X169215063Y-96812710D01*
X169176500Y-96618836D01*
X169176500Y-96421164D01*
X169215063Y-96227290D01*
X169290709Y-96044664D01*
X169400530Y-95880306D01*
X169540306Y-95740530D01*
X169704664Y-95630709D01*
X169887290Y-95555063D01*
X170053575Y-95521988D01*
X170081163Y-95516500D01*
X170278837Y-95516500D01*
X170306425Y-95521988D01*
G37*
G36*
X195706425Y-95521988D02*
G01*
X195872710Y-95555063D01*
X196055336Y-95630709D01*
X196219694Y-95740530D01*
X196359470Y-95880306D01*
X196469291Y-96044664D01*
X196544937Y-96227290D01*
X196583500Y-96421164D01*
X196583500Y-96618836D01*
X196544937Y-96812710D01*
X196469291Y-96995336D01*
X196359470Y-97159694D01*
X196219694Y-97299470D01*
X196055336Y-97409291D01*
X195872710Y-97484937D01*
X195706425Y-97518012D01*
X195678837Y-97523500D01*
X195481163Y-97523500D01*
X195453575Y-97518012D01*
X195287290Y-97484937D01*
X195104664Y-97409291D01*
X194940306Y-97299470D01*
X194800530Y-97159694D01*
X194690709Y-96995336D01*
X194615063Y-96812710D01*
X194576500Y-96618836D01*
X194576500Y-96421164D01*
X194615063Y-96227290D01*
X194690709Y-96044664D01*
X194800530Y-95880306D01*
X194940306Y-95740530D01*
X195104664Y-95630709D01*
X195287290Y-95555063D01*
X195453575Y-95521988D01*
X195481163Y-95516500D01*
X195678837Y-95516500D01*
X195706425Y-95521988D01*
G37*
G36*
X188086425Y-95521988D02*
G01*
X188252710Y-95555063D01*
X188435336Y-95630709D01*
X188599694Y-95740530D01*
X188739470Y-95880306D01*
X188849291Y-96044664D01*
X188924937Y-96227290D01*
X188963500Y-96421164D01*
X188963500Y-96618836D01*
X188924937Y-96812710D01*
X188849291Y-96995336D01*
X188739470Y-97159694D01*
X188599694Y-97299470D01*
X188435336Y-97409291D01*
X188252710Y-97484937D01*
X188086425Y-97518012D01*
X188058837Y-97523500D01*
X187861163Y-97523500D01*
X187833575Y-97518012D01*
X187667290Y-97484937D01*
X187484664Y-97409291D01*
X187320306Y-97299470D01*
X187180530Y-97159694D01*
X187070709Y-96995336D01*
X186995063Y-96812710D01*
X186956500Y-96618836D01*
X186956500Y-96421164D01*
X186995063Y-96227290D01*
X187070709Y-96044664D01*
X187180530Y-95880306D01*
X187320306Y-95740530D01*
X187484664Y-95630709D01*
X187667290Y-95555063D01*
X187833575Y-95521988D01*
X187861163Y-95516500D01*
X188058837Y-95516500D01*
X188086425Y-95521988D01*
G37*
G36*
X172846425Y-95521988D02*
G01*
X173012710Y-95555063D01*
X173195336Y-95630709D01*
X173359694Y-95740530D01*
X173499470Y-95880306D01*
X173609291Y-96044664D01*
X173684937Y-96227290D01*
X173723500Y-96421164D01*
X173723500Y-96618836D01*
X173684937Y-96812710D01*
X173609291Y-96995336D01*
X173499470Y-97159694D01*
X173359694Y-97299470D01*
X173195336Y-97409291D01*
X173012710Y-97484937D01*
X172846425Y-97518012D01*
X172818837Y-97523500D01*
X172621163Y-97523500D01*
X172593575Y-97518012D01*
X172427290Y-97484937D01*
X172244664Y-97409291D01*
X172080306Y-97299470D01*
X171940530Y-97159694D01*
X171830709Y-96995336D01*
X171755063Y-96812710D01*
X171716500Y-96618836D01*
X171716500Y-96421164D01*
X171755063Y-96227290D01*
X171830709Y-96044664D01*
X171940530Y-95880306D01*
X172080306Y-95740530D01*
X172244664Y-95630709D01*
X172427290Y-95555063D01*
X172593575Y-95521988D01*
X172621163Y-95516500D01*
X172818837Y-95516500D01*
X172846425Y-95521988D01*
G37*
G36*
X177926425Y-95521988D02*
G01*
X178092710Y-95555063D01*
X178275336Y-95630709D01*
X178439694Y-95740530D01*
X178579470Y-95880306D01*
X178689291Y-96044664D01*
X178764937Y-96227290D01*
X178803500Y-96421164D01*
X178803500Y-96618836D01*
X178764937Y-96812710D01*
X178689291Y-96995336D01*
X178579470Y-97159694D01*
X178439694Y-97299470D01*
X178275336Y-97409291D01*
X178092710Y-97484937D01*
X177926425Y-97518012D01*
X177898837Y-97523500D01*
X177701163Y-97523500D01*
X177673575Y-97518012D01*
X177507290Y-97484937D01*
X177324664Y-97409291D01*
X177160306Y-97299470D01*
X177020530Y-97159694D01*
X176910709Y-96995336D01*
X176835063Y-96812710D01*
X176796500Y-96618836D01*
X176796500Y-96421164D01*
X176835063Y-96227290D01*
X176910709Y-96044664D01*
X177020530Y-95880306D01*
X177160306Y-95740530D01*
X177324664Y-95630709D01*
X177507290Y-95555063D01*
X177673575Y-95521988D01*
X177701163Y-95516500D01*
X177898837Y-95516500D01*
X177926425Y-95521988D01*
G37*
G36*
X167766425Y-95521988D02*
G01*
X167932710Y-95555063D01*
X168115336Y-95630709D01*
X168279694Y-95740530D01*
X168419470Y-95880306D01*
X168529291Y-96044664D01*
X168604937Y-96227290D01*
X168643500Y-96421164D01*
X168643500Y-96618836D01*
X168604937Y-96812710D01*
X168529291Y-96995336D01*
X168419470Y-97159694D01*
X168279694Y-97299470D01*
X168115336Y-97409291D01*
X167932710Y-97484937D01*
X167766425Y-97518012D01*
X167738837Y-97523500D01*
X167541163Y-97523500D01*
X167513575Y-97518012D01*
X167347290Y-97484937D01*
X167164664Y-97409291D01*
X167000306Y-97299470D01*
X166860530Y-97159694D01*
X166750709Y-96995336D01*
X166675063Y-96812710D01*
X166636500Y-96618836D01*
X166636500Y-96421164D01*
X166675063Y-96227290D01*
X166750709Y-96044664D01*
X166860530Y-95880306D01*
X167000306Y-95740530D01*
X167164664Y-95630709D01*
X167347290Y-95555063D01*
X167513575Y-95521988D01*
X167541163Y-95516500D01*
X167738837Y-95516500D01*
X167766425Y-95521988D01*
G37*
G36*
X198246425Y-95521988D02*
G01*
X198412710Y-95555063D01*
X198595336Y-95630709D01*
X198759694Y-95740530D01*
X198899470Y-95880306D01*
X199009291Y-96044664D01*
X199084937Y-96227290D01*
X199123500Y-96421164D01*
X199123500Y-96618836D01*
X199084937Y-96812710D01*
X199009291Y-96995336D01*
X198899470Y-97159694D01*
X198759694Y-97299470D01*
X198595336Y-97409291D01*
X198412710Y-97484937D01*
X198246425Y-97518012D01*
X198218837Y-97523500D01*
X198021163Y-97523500D01*
X197993575Y-97518012D01*
X197827290Y-97484937D01*
X197644664Y-97409291D01*
X197480306Y-97299470D01*
X197340530Y-97159694D01*
X197230709Y-96995336D01*
X197155063Y-96812710D01*
X197116500Y-96618836D01*
X197116500Y-96421164D01*
X197155063Y-96227290D01*
X197230709Y-96044664D01*
X197340530Y-95880306D01*
X197480306Y-95740530D01*
X197644664Y-95630709D01*
X197827290Y-95555063D01*
X197993575Y-95521988D01*
X198021163Y-95516500D01*
X198218837Y-95516500D01*
X198246425Y-95521988D01*
G37*
G36*
X205866425Y-95521988D02*
G01*
X206032710Y-95555063D01*
X206215336Y-95630709D01*
X206379694Y-95740530D01*
X206519470Y-95880306D01*
X206629291Y-96044664D01*
X206704937Y-96227290D01*
X206743500Y-96421164D01*
X206743500Y-96618836D01*
X206704937Y-96812710D01*
X206629291Y-96995336D01*
X206519470Y-97159694D01*
X206379694Y-97299470D01*
X206215336Y-97409291D01*
X206032710Y-97484937D01*
X205866425Y-97518012D01*
X205838837Y-97523500D01*
X205641163Y-97523500D01*
X205613575Y-97518012D01*
X205447290Y-97484937D01*
X205264664Y-97409291D01*
X205100306Y-97299470D01*
X204960530Y-97159694D01*
X204850709Y-96995336D01*
X204775063Y-96812710D01*
X204736500Y-96618836D01*
X204736500Y-96421164D01*
X204775063Y-96227290D01*
X204850709Y-96044664D01*
X204960530Y-95880306D01*
X205100306Y-95740530D01*
X205264664Y-95630709D01*
X205447290Y-95555063D01*
X205613575Y-95521988D01*
X205641163Y-95516500D01*
X205838837Y-95516500D01*
X205866425Y-95521988D01*
G37*
G36*
X193166425Y-95521988D02*
G01*
X193332710Y-95555063D01*
X193515336Y-95630709D01*
X193679694Y-95740530D01*
X193819470Y-95880306D01*
X193929291Y-96044664D01*
X194004937Y-96227290D01*
X194043500Y-96421164D01*
X194043500Y-96618836D01*
X194004937Y-96812710D01*
X193929291Y-96995336D01*
X193819470Y-97159694D01*
X193679694Y-97299470D01*
X193515336Y-97409291D01*
X193332710Y-97484937D01*
X193166425Y-97518012D01*
X193138837Y-97523500D01*
X192941163Y-97523500D01*
X192913575Y-97518012D01*
X192747290Y-97484937D01*
X192564664Y-97409291D01*
X192400306Y-97299470D01*
X192260530Y-97159694D01*
X192150709Y-96995336D01*
X192075063Y-96812710D01*
X192036500Y-96618836D01*
X192036500Y-96421164D01*
X192075063Y-96227290D01*
X192150709Y-96044664D01*
X192260530Y-95880306D01*
X192400306Y-95740530D01*
X192564664Y-95630709D01*
X192747290Y-95555063D01*
X192913575Y-95521988D01*
X192941163Y-95516500D01*
X193138837Y-95516500D01*
X193166425Y-95521988D01*
G37*
G36*
X203326425Y-95521988D02*
G01*
X203492710Y-95555063D01*
X203675336Y-95630709D01*
X203839694Y-95740530D01*
X203979470Y-95880306D01*
X204089291Y-96044664D01*
X204164937Y-96227290D01*
X204203500Y-96421164D01*
X204203500Y-96618836D01*
X204164937Y-96812710D01*
X204089291Y-96995336D01*
X203979470Y-97159694D01*
X203839694Y-97299470D01*
X203675336Y-97409291D01*
X203492710Y-97484937D01*
X203326425Y-97518012D01*
X203298837Y-97523500D01*
X203101163Y-97523500D01*
X203073575Y-97518012D01*
X202907290Y-97484937D01*
X202724664Y-97409291D01*
X202560306Y-97299470D01*
X202420530Y-97159694D01*
X202310709Y-96995336D01*
X202235063Y-96812710D01*
X202196500Y-96618836D01*
X202196500Y-96421164D01*
X202235063Y-96227290D01*
X202310709Y-96044664D01*
X202420530Y-95880306D01*
X202560306Y-95740530D01*
X202724664Y-95630709D01*
X202907290Y-95555063D01*
X203073575Y-95521988D01*
X203101163Y-95516500D01*
X203298837Y-95516500D01*
X203326425Y-95521988D01*
G37*
G36*
X190626425Y-95521988D02*
G01*
X190792710Y-95555063D01*
X190975336Y-95630709D01*
X191139694Y-95740530D01*
X191279470Y-95880306D01*
X191389291Y-96044664D01*
X191464937Y-96227290D01*
X191503500Y-96421164D01*
X191503500Y-96618836D01*
X191464937Y-96812710D01*
X191389291Y-96995336D01*
X191279470Y-97159694D01*
X191139694Y-97299470D01*
X190975336Y-97409291D01*
X190792710Y-97484937D01*
X190626425Y-97518012D01*
X190598837Y-97523500D01*
X190401163Y-97523500D01*
X190373575Y-97518012D01*
X190207290Y-97484937D01*
X190024664Y-97409291D01*
X189860306Y-97299470D01*
X189720530Y-97159694D01*
X189610709Y-96995336D01*
X189535063Y-96812710D01*
X189496500Y-96618836D01*
X189496500Y-96421164D01*
X189535063Y-96227290D01*
X189610709Y-96044664D01*
X189720530Y-95880306D01*
X189860306Y-95740530D01*
X190024664Y-95630709D01*
X190207290Y-95555063D01*
X190373575Y-95521988D01*
X190401163Y-95516500D01*
X190598837Y-95516500D01*
X190626425Y-95521988D01*
G37*
G36*
X180466425Y-95521988D02*
G01*
X180632710Y-95555063D01*
X180815336Y-95630709D01*
X180979694Y-95740530D01*
X181119470Y-95880306D01*
X181229291Y-96044664D01*
X181304937Y-96227290D01*
X181343500Y-96421164D01*
X181343500Y-96618836D01*
X181304937Y-96812710D01*
X181229291Y-96995336D01*
X181119470Y-97159694D01*
X180979694Y-97299470D01*
X180815336Y-97409291D01*
X180632710Y-97484937D01*
X180466425Y-97518012D01*
X180438837Y-97523500D01*
X180241163Y-97523500D01*
X180213575Y-97518012D01*
X180047290Y-97484937D01*
X179864664Y-97409291D01*
X179700306Y-97299470D01*
X179560530Y-97159694D01*
X179450709Y-96995336D01*
X179375063Y-96812710D01*
X179336500Y-96618836D01*
X179336500Y-96421164D01*
X179375063Y-96227290D01*
X179450709Y-96044664D01*
X179560530Y-95880306D01*
X179700306Y-95740530D01*
X179864664Y-95630709D01*
X180047290Y-95555063D01*
X180213575Y-95521988D01*
X180241163Y-95516500D01*
X180438837Y-95516500D01*
X180466425Y-95521988D01*
G37*
G36*
X200786425Y-95521988D02*
G01*
X200952710Y-95555063D01*
X201135336Y-95630709D01*
X201299694Y-95740530D01*
X201439470Y-95880306D01*
X201549291Y-96044664D01*
X201624937Y-96227290D01*
X201663500Y-96421164D01*
X201663500Y-96618836D01*
X201624937Y-96812710D01*
X201549291Y-96995336D01*
X201439470Y-97159694D01*
X201299694Y-97299470D01*
X201135336Y-97409291D01*
X200952710Y-97484937D01*
X200786425Y-97518012D01*
X200758837Y-97523500D01*
X200561163Y-97523500D01*
X200533575Y-97518012D01*
X200367290Y-97484937D01*
X200184664Y-97409291D01*
X200020306Y-97299470D01*
X199880530Y-97159694D01*
X199770709Y-96995336D01*
X199695063Y-96812710D01*
X199656500Y-96618836D01*
X199656500Y-96421164D01*
X199695063Y-96227290D01*
X199770709Y-96044664D01*
X199880530Y-95880306D01*
X200020306Y-95740530D01*
X200184664Y-95630709D01*
X200367290Y-95555063D01*
X200533575Y-95521988D01*
X200561163Y-95516500D01*
X200758837Y-95516500D01*
X200786425Y-95521988D01*
G37*
G36*
X185546425Y-95521988D02*
G01*
X185712710Y-95555063D01*
X185895336Y-95630709D01*
X186059694Y-95740530D01*
X186199470Y-95880306D01*
X186309291Y-96044664D01*
X186384937Y-96227290D01*
X186423500Y-96421164D01*
X186423500Y-96618836D01*
X186384937Y-96812710D01*
X186309291Y-96995336D01*
X186199470Y-97159694D01*
X186059694Y-97299470D01*
X185895336Y-97409291D01*
X185712710Y-97484937D01*
X185546425Y-97518012D01*
X185518837Y-97523500D01*
X185321163Y-97523500D01*
X185293575Y-97518012D01*
X185127290Y-97484937D01*
X184944664Y-97409291D01*
X184780306Y-97299470D01*
X184640530Y-97159694D01*
X184530709Y-96995336D01*
X184455063Y-96812710D01*
X184416500Y-96618836D01*
X184416500Y-96421164D01*
X184455063Y-96227290D01*
X184530709Y-96044664D01*
X184640530Y-95880306D01*
X184780306Y-95740530D01*
X184944664Y-95630709D01*
X185127290Y-95555063D01*
X185293575Y-95521988D01*
X185321163Y-95516500D01*
X185518837Y-95516500D01*
X185546425Y-95521988D01*
G37*
G36*
X183006425Y-95521988D02*
G01*
X183172710Y-95555063D01*
X183355336Y-95630709D01*
X183519694Y-95740530D01*
X183659470Y-95880306D01*
X183769291Y-96044664D01*
X183844937Y-96227290D01*
X183883500Y-96421164D01*
X183883500Y-96618836D01*
X183844937Y-96812710D01*
X183769291Y-96995336D01*
X183659470Y-97159694D01*
X183519694Y-97299470D01*
X183355336Y-97409291D01*
X183172710Y-97484937D01*
X183006425Y-97518012D01*
X182978837Y-97523500D01*
X182781163Y-97523500D01*
X182753575Y-97518012D01*
X182587290Y-97484937D01*
X182404664Y-97409291D01*
X182240306Y-97299470D01*
X182100530Y-97159694D01*
X181990709Y-96995336D01*
X181915063Y-96812710D01*
X181876500Y-96618836D01*
X181876500Y-96421164D01*
X181915063Y-96227290D01*
X181990709Y-96044664D01*
X182100530Y-95880306D01*
X182240306Y-95740530D01*
X182404664Y-95630709D01*
X182587290Y-95555063D01*
X182753575Y-95521988D01*
X182781163Y-95516500D01*
X182978837Y-95516500D01*
X183006425Y-95521988D01*
G37*
G36*
X162826778Y-95640547D02*
G01*
X162993224Y-95709491D01*
X163143022Y-95809583D01*
X163270417Y-95936978D01*
X163370509Y-96086776D01*
X163439453Y-96253222D01*
X163474600Y-96429918D01*
X163474600Y-96610082D01*
X163439453Y-96786778D01*
X163370509Y-96953224D01*
X163270417Y-97103022D01*
X163143022Y-97230417D01*
X162993224Y-97330509D01*
X162826778Y-97399453D01*
X162650082Y-97434600D01*
X162469918Y-97434600D01*
X162293222Y-97399453D01*
X162126776Y-97330509D01*
X161976978Y-97230417D01*
X161849583Y-97103022D01*
X161749491Y-96953224D01*
X161680547Y-96786778D01*
X161645400Y-96610082D01*
X161645400Y-96429918D01*
X161680547Y-96253222D01*
X161749491Y-96086776D01*
X161849583Y-95936978D01*
X161976978Y-95809583D01*
X162126776Y-95709491D01*
X162293222Y-95640547D01*
X162469918Y-95605400D01*
X162650082Y-95605400D01*
X162826778Y-95640547D01*
G37*
G36*
X160286778Y-95640547D02*
G01*
X160453224Y-95709491D01*
X160603022Y-95809583D01*
X160730417Y-95936978D01*
X160830509Y-96086776D01*
X160899453Y-96253222D01*
X160934600Y-96429918D01*
X160934600Y-96610082D01*
X160899453Y-96786778D01*
X160830509Y-96953224D01*
X160730417Y-97103022D01*
X160603022Y-97230417D01*
X160453224Y-97330509D01*
X160286778Y-97399453D01*
X160110082Y-97434600D01*
X159929918Y-97434600D01*
X159753222Y-97399453D01*
X159586776Y-97330509D01*
X159436978Y-97230417D01*
X159309583Y-97103022D01*
X159209491Y-96953224D01*
X159140547Y-96786778D01*
X159105400Y-96610082D01*
X159105400Y-96429918D01*
X159140547Y-96253222D01*
X159209491Y-96086776D01*
X159309583Y-95936978D01*
X159436978Y-95809583D01*
X159586776Y-95709491D01*
X159753222Y-95640547D01*
X159929918Y-95605400D01*
X160110082Y-95605400D01*
X160286778Y-95640547D01*
G37*
G36*
X142828674Y-96143465D02*
G01*
X142866367Y-96154899D01*
X142901103Y-96173466D01*
X142931548Y-96198452D01*
X142956534Y-96228897D01*
X142975101Y-96263633D01*
X142986535Y-96301326D01*
X142991000Y-96346661D01*
X142991000Y-97183339D01*
X142986535Y-97228674D01*
X142975101Y-97266367D01*
X142956534Y-97301103D01*
X142931548Y-97331548D01*
X142901103Y-97356534D01*
X142866367Y-97375101D01*
X142828674Y-97386535D01*
X142783339Y-97391000D01*
X141696661Y-97391000D01*
X141651326Y-97386535D01*
X141613633Y-97375101D01*
X141578897Y-97356534D01*
X141548452Y-97331548D01*
X141523466Y-97301103D01*
X141504899Y-97266367D01*
X141493465Y-97228674D01*
X141489000Y-97183339D01*
X141489000Y-96346661D01*
X141493465Y-96301326D01*
X141504899Y-96263633D01*
X141523466Y-96228897D01*
X141548452Y-96198452D01*
X141578897Y-96173466D01*
X141613633Y-96154899D01*
X141651326Y-96143465D01*
X141696661Y-96139000D01*
X142783339Y-96139000D01*
X142828674Y-96143465D01*
G37*
G36*
X145368674Y-96143465D02*
G01*
X145406367Y-96154899D01*
X145441103Y-96173466D01*
X145471548Y-96198452D01*
X145496534Y-96228897D01*
X145515101Y-96263633D01*
X145526535Y-96301326D01*
X145531000Y-96346661D01*
X145531000Y-97183339D01*
X145526535Y-97228674D01*
X145515101Y-97266367D01*
X145496534Y-97301103D01*
X145471548Y-97331548D01*
X145441103Y-97356534D01*
X145406367Y-97375101D01*
X145368674Y-97386535D01*
X145323339Y-97391000D01*
X144236661Y-97391000D01*
X144191326Y-97386535D01*
X144153633Y-97375101D01*
X144118897Y-97356534D01*
X144088452Y-97331548D01*
X144063466Y-97301103D01*
X144044899Y-97266367D01*
X144033465Y-97228674D01*
X144029000Y-97183339D01*
X144029000Y-96346661D01*
X144033465Y-96301326D01*
X144044899Y-96263633D01*
X144063466Y-96228897D01*
X144088452Y-96198452D01*
X144118897Y-96173466D01*
X144153633Y-96154899D01*
X144191326Y-96143465D01*
X144236661Y-96139000D01*
X145323339Y-96139000D01*
X145368674Y-96143465D01*
G37*
G36*
X150338571Y-95722863D02*
G01*
X150417023Y-95730590D01*
X150517682Y-95761125D01*
X150568013Y-95776392D01*
X150707165Y-95850771D01*
X150829133Y-95950867D01*
X150929229Y-96072835D01*
X151003608Y-96211987D01*
X151003608Y-96211988D01*
X151049410Y-96362977D01*
X151064875Y-96520000D01*
X151049410Y-96677023D01*
X151018875Y-96777682D01*
X151003608Y-96828013D01*
X150929229Y-96967165D01*
X150829133Y-97089133D01*
X150707165Y-97189229D01*
X150568013Y-97263608D01*
X150517682Y-97278875D01*
X150417023Y-97309410D01*
X150338571Y-97317137D01*
X150299346Y-97321000D01*
X149420654Y-97321000D01*
X149381429Y-97317137D01*
X149302977Y-97309410D01*
X149202318Y-97278875D01*
X149151987Y-97263608D01*
X149012835Y-97189229D01*
X148890867Y-97089133D01*
X148790771Y-96967165D01*
X148716392Y-96828013D01*
X148701125Y-96777682D01*
X148670590Y-96677023D01*
X148655125Y-96520000D01*
X148670590Y-96362977D01*
X148716392Y-96211988D01*
X148716392Y-96211987D01*
X148790771Y-96072835D01*
X148890867Y-95950867D01*
X149012835Y-95850771D01*
X149151987Y-95776392D01*
X149202318Y-95761125D01*
X149302977Y-95730590D01*
X149381429Y-95722863D01*
X149420654Y-95719000D01*
X150299346Y-95719000D01*
X150338571Y-95722863D01*
G37*
G36*
X135055000Y-97051000D02*
G01*
X131453000Y-97051000D01*
X131453000Y-93449000D01*
X135055000Y-93449000D01*
X135055000Y-97051000D01*
G37*
G36*
X128230979Y-93463293D02*
G01*
X128364625Y-93503834D01*
X128487784Y-93569664D01*
X128595740Y-93658260D01*
X128684336Y-93766216D01*
X128750166Y-93889375D01*
X128790707Y-94023021D01*
X128805000Y-94168140D01*
X128805000Y-96331860D01*
X128790707Y-96476979D01*
X128750166Y-96610625D01*
X128684336Y-96733784D01*
X128595740Y-96841740D01*
X128487784Y-96930336D01*
X128364625Y-96996166D01*
X128230979Y-97036707D01*
X128085860Y-97051000D01*
X126422140Y-97051000D01*
X126277021Y-97036707D01*
X126143375Y-96996166D01*
X126020216Y-96930336D01*
X125912260Y-96841740D01*
X125823664Y-96733784D01*
X125757834Y-96610625D01*
X125717293Y-96476979D01*
X125703000Y-96331860D01*
X125703000Y-94168140D01*
X125717293Y-94023021D01*
X125757834Y-93889375D01*
X125823664Y-93766216D01*
X125912260Y-93658260D01*
X126020216Y-93569664D01*
X126143375Y-93503834D01*
X126277021Y-93463293D01*
X126422140Y-93449000D01*
X128085860Y-93449000D01*
X128230979Y-93463293D01*
G37*
G36*
X175386425Y-92981988D02*
G01*
X175552710Y-93015063D01*
X175735336Y-93090709D01*
X175899694Y-93200530D01*
X176039470Y-93340306D01*
X176149291Y-93504664D01*
X176224937Y-93687290D01*
X176263500Y-93881164D01*
X176263500Y-94078836D01*
X176224937Y-94272710D01*
X176149291Y-94455336D01*
X176039470Y-94619694D01*
X175899694Y-94759470D01*
X175735336Y-94869291D01*
X175552710Y-94944937D01*
X175386425Y-94978012D01*
X175358837Y-94983500D01*
X175161163Y-94983500D01*
X175133575Y-94978012D01*
X174967290Y-94944937D01*
X174784664Y-94869291D01*
X174620306Y-94759470D01*
X174480530Y-94619694D01*
X174370709Y-94455336D01*
X174295063Y-94272710D01*
X174256500Y-94078836D01*
X174256500Y-93881164D01*
X174295063Y-93687290D01*
X174370709Y-93504664D01*
X174480530Y-93340306D01*
X174620306Y-93200530D01*
X174784664Y-93090709D01*
X174967290Y-93015063D01*
X175133575Y-92981988D01*
X175161163Y-92976500D01*
X175358837Y-92976500D01*
X175386425Y-92981988D01*
G37*
G36*
X200786425Y-92981988D02*
G01*
X200952710Y-93015063D01*
X201135336Y-93090709D01*
X201299694Y-93200530D01*
X201439470Y-93340306D01*
X201549291Y-93504664D01*
X201624937Y-93687290D01*
X201663500Y-93881164D01*
X201663500Y-94078836D01*
X201624937Y-94272710D01*
X201549291Y-94455336D01*
X201439470Y-94619694D01*
X201299694Y-94759470D01*
X201135336Y-94869291D01*
X200952710Y-94944937D01*
X200786425Y-94978012D01*
X200758837Y-94983500D01*
X200561163Y-94983500D01*
X200533575Y-94978012D01*
X200367290Y-94944937D01*
X200184664Y-94869291D01*
X200020306Y-94759470D01*
X199880530Y-94619694D01*
X199770709Y-94455336D01*
X199695063Y-94272710D01*
X199656500Y-94078836D01*
X199656500Y-93881164D01*
X199695063Y-93687290D01*
X199770709Y-93504664D01*
X199880530Y-93340306D01*
X200020306Y-93200530D01*
X200184664Y-93090709D01*
X200367290Y-93015063D01*
X200533575Y-92981988D01*
X200561163Y-92976500D01*
X200758837Y-92976500D01*
X200786425Y-92981988D01*
G37*
G36*
X198246425Y-92981988D02*
G01*
X198412710Y-93015063D01*
X198595336Y-93090709D01*
X198759694Y-93200530D01*
X198899470Y-93340306D01*
X199009291Y-93504664D01*
X199084937Y-93687290D01*
X199123500Y-93881164D01*
X199123500Y-94078836D01*
X199084937Y-94272710D01*
X199009291Y-94455336D01*
X198899470Y-94619694D01*
X198759694Y-94759470D01*
X198595336Y-94869291D01*
X198412710Y-94944937D01*
X198246425Y-94978012D01*
X198218837Y-94983500D01*
X198021163Y-94983500D01*
X197993575Y-94978012D01*
X197827290Y-94944937D01*
X197644664Y-94869291D01*
X197480306Y-94759470D01*
X197340530Y-94619694D01*
X197230709Y-94455336D01*
X197155063Y-94272710D01*
X197116500Y-94078836D01*
X197116500Y-93881164D01*
X197155063Y-93687290D01*
X197230709Y-93504664D01*
X197340530Y-93340306D01*
X197480306Y-93200530D01*
X197644664Y-93090709D01*
X197827290Y-93015063D01*
X197993575Y-92981988D01*
X198021163Y-92976500D01*
X198218837Y-92976500D01*
X198246425Y-92981988D01*
G37*
G36*
X190626425Y-92981988D02*
G01*
X190792710Y-93015063D01*
X190975336Y-93090709D01*
X191139694Y-93200530D01*
X191279470Y-93340306D01*
X191389291Y-93504664D01*
X191464937Y-93687290D01*
X191503500Y-93881164D01*
X191503500Y-94078836D01*
X191464937Y-94272710D01*
X191389291Y-94455336D01*
X191279470Y-94619694D01*
X191139694Y-94759470D01*
X190975336Y-94869291D01*
X190792710Y-94944937D01*
X190626425Y-94978012D01*
X190598837Y-94983500D01*
X190401163Y-94983500D01*
X190373575Y-94978012D01*
X190207290Y-94944937D01*
X190024664Y-94869291D01*
X189860306Y-94759470D01*
X189720530Y-94619694D01*
X189610709Y-94455336D01*
X189535063Y-94272710D01*
X189496500Y-94078836D01*
X189496500Y-93881164D01*
X189535063Y-93687290D01*
X189610709Y-93504664D01*
X189720530Y-93340306D01*
X189860306Y-93200530D01*
X190024664Y-93090709D01*
X190207290Y-93015063D01*
X190373575Y-92981988D01*
X190401163Y-92976500D01*
X190598837Y-92976500D01*
X190626425Y-92981988D01*
G37*
G36*
X170306425Y-92981988D02*
G01*
X170472710Y-93015063D01*
X170655336Y-93090709D01*
X170819694Y-93200530D01*
X170959470Y-93340306D01*
X171069291Y-93504664D01*
X171144937Y-93687290D01*
X171183500Y-93881164D01*
X171183500Y-94078836D01*
X171144937Y-94272710D01*
X171069291Y-94455336D01*
X170959470Y-94619694D01*
X170819694Y-94759470D01*
X170655336Y-94869291D01*
X170472710Y-94944937D01*
X170306425Y-94978012D01*
X170278837Y-94983500D01*
X170081163Y-94983500D01*
X170053575Y-94978012D01*
X169887290Y-94944937D01*
X169704664Y-94869291D01*
X169540306Y-94759470D01*
X169400530Y-94619694D01*
X169290709Y-94455336D01*
X169215063Y-94272710D01*
X169176500Y-94078836D01*
X169176500Y-93881164D01*
X169215063Y-93687290D01*
X169290709Y-93504664D01*
X169400530Y-93340306D01*
X169540306Y-93200530D01*
X169704664Y-93090709D01*
X169887290Y-93015063D01*
X170053575Y-92981988D01*
X170081163Y-92976500D01*
X170278837Y-92976500D01*
X170306425Y-92981988D01*
G37*
G36*
X172846425Y-92981988D02*
G01*
X173012710Y-93015063D01*
X173195336Y-93090709D01*
X173359694Y-93200530D01*
X173499470Y-93340306D01*
X173609291Y-93504664D01*
X173684937Y-93687290D01*
X173723500Y-93881164D01*
X173723500Y-94078836D01*
X173684937Y-94272710D01*
X173609291Y-94455336D01*
X173499470Y-94619694D01*
X173359694Y-94759470D01*
X173195336Y-94869291D01*
X173012710Y-94944937D01*
X172846425Y-94978012D01*
X172818837Y-94983500D01*
X172621163Y-94983500D01*
X172593575Y-94978012D01*
X172427290Y-94944937D01*
X172244664Y-94869291D01*
X172080306Y-94759470D01*
X171940530Y-94619694D01*
X171830709Y-94455336D01*
X171755063Y-94272710D01*
X171716500Y-94078836D01*
X171716500Y-93881164D01*
X171755063Y-93687290D01*
X171830709Y-93504664D01*
X171940530Y-93340306D01*
X172080306Y-93200530D01*
X172244664Y-93090709D01*
X172427290Y-93015063D01*
X172593575Y-92981988D01*
X172621163Y-92976500D01*
X172818837Y-92976500D01*
X172846425Y-92981988D01*
G37*
G36*
X193166425Y-92981988D02*
G01*
X193332710Y-93015063D01*
X193515336Y-93090709D01*
X193679694Y-93200530D01*
X193819470Y-93340306D01*
X193929291Y-93504664D01*
X194004937Y-93687290D01*
X194043500Y-93881164D01*
X194043500Y-94078836D01*
X194004937Y-94272710D01*
X193929291Y-94455336D01*
X193819470Y-94619694D01*
X193679694Y-94759470D01*
X193515336Y-94869291D01*
X193332710Y-94944937D01*
X193166425Y-94978012D01*
X193138837Y-94983500D01*
X192941163Y-94983500D01*
X192913575Y-94978012D01*
X192747290Y-94944937D01*
X192564664Y-94869291D01*
X192400306Y-94759470D01*
X192260530Y-94619694D01*
X192150709Y-94455336D01*
X192075063Y-94272710D01*
X192036500Y-94078836D01*
X192036500Y-93881164D01*
X192075063Y-93687290D01*
X192150709Y-93504664D01*
X192260530Y-93340306D01*
X192400306Y-93200530D01*
X192564664Y-93090709D01*
X192747290Y-93015063D01*
X192913575Y-92981988D01*
X192941163Y-92976500D01*
X193138837Y-92976500D01*
X193166425Y-92981988D01*
G37*
G36*
X203326425Y-92981988D02*
G01*
X203492710Y-93015063D01*
X203675336Y-93090709D01*
X203839694Y-93200530D01*
X203979470Y-93340306D01*
X204089291Y-93504664D01*
X204164937Y-93687290D01*
X204203500Y-93881164D01*
X204203500Y-94078836D01*
X204164937Y-94272710D01*
X204089291Y-94455336D01*
X203979470Y-94619694D01*
X203839694Y-94759470D01*
X203675336Y-94869291D01*
X203492710Y-94944937D01*
X203326425Y-94978012D01*
X203298837Y-94983500D01*
X203101163Y-94983500D01*
X203073575Y-94978012D01*
X202907290Y-94944937D01*
X202724664Y-94869291D01*
X202560306Y-94759470D01*
X202420530Y-94619694D01*
X202310709Y-94455336D01*
X202235063Y-94272710D01*
X202196500Y-94078836D01*
X202196500Y-93881164D01*
X202235063Y-93687290D01*
X202310709Y-93504664D01*
X202420530Y-93340306D01*
X202560306Y-93200530D01*
X202724664Y-93090709D01*
X202907290Y-93015063D01*
X203073575Y-92981988D01*
X203101163Y-92976500D01*
X203298837Y-92976500D01*
X203326425Y-92981988D01*
G37*
G36*
X205866425Y-92981988D02*
G01*
X206032710Y-93015063D01*
X206215336Y-93090709D01*
X206379694Y-93200530D01*
X206519470Y-93340306D01*
X206629291Y-93504664D01*
X206704937Y-93687290D01*
X206743500Y-93881164D01*
X206743500Y-94078836D01*
X206704937Y-94272710D01*
X206629291Y-94455336D01*
X206519470Y-94619694D01*
X206379694Y-94759470D01*
X206215336Y-94869291D01*
X206032710Y-94944937D01*
X205866425Y-94978012D01*
X205838837Y-94983500D01*
X205641163Y-94983500D01*
X205613575Y-94978012D01*
X205447290Y-94944937D01*
X205264664Y-94869291D01*
X205100306Y-94759470D01*
X204960530Y-94619694D01*
X204850709Y-94455336D01*
X204775063Y-94272710D01*
X204736500Y-94078836D01*
X204736500Y-93881164D01*
X204775063Y-93687290D01*
X204850709Y-93504664D01*
X204960530Y-93340306D01*
X205100306Y-93200530D01*
X205264664Y-93090709D01*
X205447290Y-93015063D01*
X205613575Y-92981988D01*
X205641163Y-92976500D01*
X205838837Y-92976500D01*
X205866425Y-92981988D01*
G37*
G36*
X177926425Y-92981988D02*
G01*
X178092710Y-93015063D01*
X178275336Y-93090709D01*
X178439694Y-93200530D01*
X178579470Y-93340306D01*
X178689291Y-93504664D01*
X178764937Y-93687290D01*
X178803500Y-93881164D01*
X178803500Y-94078836D01*
X178764937Y-94272710D01*
X178689291Y-94455336D01*
X178579470Y-94619694D01*
X178439694Y-94759470D01*
X178275336Y-94869291D01*
X178092710Y-94944937D01*
X177926425Y-94978012D01*
X177898837Y-94983500D01*
X177701163Y-94983500D01*
X177673575Y-94978012D01*
X177507290Y-94944937D01*
X177324664Y-94869291D01*
X177160306Y-94759470D01*
X177020530Y-94619694D01*
X176910709Y-94455336D01*
X176835063Y-94272710D01*
X176796500Y-94078836D01*
X176796500Y-93881164D01*
X176835063Y-93687290D01*
X176910709Y-93504664D01*
X177020530Y-93340306D01*
X177160306Y-93200530D01*
X177324664Y-93090709D01*
X177507290Y-93015063D01*
X177673575Y-92981988D01*
X177701163Y-92976500D01*
X177898837Y-92976500D01*
X177926425Y-92981988D01*
G37*
G36*
X183006425Y-92981988D02*
G01*
X183172710Y-93015063D01*
X183355336Y-93090709D01*
X183519694Y-93200530D01*
X183659470Y-93340306D01*
X183769291Y-93504664D01*
X183844937Y-93687290D01*
X183883500Y-93881164D01*
X183883500Y-94078836D01*
X183844937Y-94272710D01*
X183769291Y-94455336D01*
X183659470Y-94619694D01*
X183519694Y-94759470D01*
X183355336Y-94869291D01*
X183172710Y-94944937D01*
X183006425Y-94978012D01*
X182978837Y-94983500D01*
X182781163Y-94983500D01*
X182753575Y-94978012D01*
X182587290Y-94944937D01*
X182404664Y-94869291D01*
X182240306Y-94759470D01*
X182100530Y-94619694D01*
X181990709Y-94455336D01*
X181915063Y-94272710D01*
X181876500Y-94078836D01*
X181876500Y-93881164D01*
X181915063Y-93687290D01*
X181990709Y-93504664D01*
X182100530Y-93340306D01*
X182240306Y-93200530D01*
X182404664Y-93090709D01*
X182587290Y-93015063D01*
X182753575Y-92981988D01*
X182781163Y-92976500D01*
X182978837Y-92976500D01*
X183006425Y-92981988D01*
G37*
G36*
X185546425Y-92981988D02*
G01*
X185712710Y-93015063D01*
X185895336Y-93090709D01*
X186059694Y-93200530D01*
X186199470Y-93340306D01*
X186309291Y-93504664D01*
X186384937Y-93687290D01*
X186423500Y-93881164D01*
X186423500Y-94078836D01*
X186384937Y-94272710D01*
X186309291Y-94455336D01*
X186199470Y-94619694D01*
X186059694Y-94759470D01*
X185895336Y-94869291D01*
X185712710Y-94944937D01*
X185546425Y-94978012D01*
X185518837Y-94983500D01*
X185321163Y-94983500D01*
X185293575Y-94978012D01*
X185127290Y-94944937D01*
X184944664Y-94869291D01*
X184780306Y-94759470D01*
X184640530Y-94619694D01*
X184530709Y-94455336D01*
X184455063Y-94272710D01*
X184416500Y-94078836D01*
X184416500Y-93881164D01*
X184455063Y-93687290D01*
X184530709Y-93504664D01*
X184640530Y-93340306D01*
X184780306Y-93200530D01*
X184944664Y-93090709D01*
X185127290Y-93015063D01*
X185293575Y-92981988D01*
X185321163Y-92976500D01*
X185518837Y-92976500D01*
X185546425Y-92981988D01*
G37*
G36*
X195706425Y-92981988D02*
G01*
X195872710Y-93015063D01*
X196055336Y-93090709D01*
X196219694Y-93200530D01*
X196359470Y-93340306D01*
X196469291Y-93504664D01*
X196544937Y-93687290D01*
X196583500Y-93881164D01*
X196583500Y-94078836D01*
X196544937Y-94272710D01*
X196469291Y-94455336D01*
X196359470Y-94619694D01*
X196219694Y-94759470D01*
X196055336Y-94869291D01*
X195872710Y-94944937D01*
X195706425Y-94978012D01*
X195678837Y-94983500D01*
X195481163Y-94983500D01*
X195453575Y-94978012D01*
X195287290Y-94944937D01*
X195104664Y-94869291D01*
X194940306Y-94759470D01*
X194800530Y-94619694D01*
X194690709Y-94455336D01*
X194615063Y-94272710D01*
X194576500Y-94078836D01*
X194576500Y-93881164D01*
X194615063Y-93687290D01*
X194690709Y-93504664D01*
X194800530Y-93340306D01*
X194940306Y-93200530D01*
X195104664Y-93090709D01*
X195287290Y-93015063D01*
X195453575Y-92981988D01*
X195481163Y-92976500D01*
X195678837Y-92976500D01*
X195706425Y-92981988D01*
G37*
G36*
X180466425Y-92981988D02*
G01*
X180632710Y-93015063D01*
X180815336Y-93090709D01*
X180979694Y-93200530D01*
X181119470Y-93340306D01*
X181229291Y-93504664D01*
X181304937Y-93687290D01*
X181343500Y-93881164D01*
X181343500Y-94078836D01*
X181304937Y-94272710D01*
X181229291Y-94455336D01*
X181119470Y-94619694D01*
X180979694Y-94759470D01*
X180815336Y-94869291D01*
X180632710Y-94944937D01*
X180466425Y-94978012D01*
X180438837Y-94983500D01*
X180241163Y-94983500D01*
X180213575Y-94978012D01*
X180047290Y-94944937D01*
X179864664Y-94869291D01*
X179700306Y-94759470D01*
X179560530Y-94619694D01*
X179450709Y-94455336D01*
X179375063Y-94272710D01*
X179336500Y-94078836D01*
X179336500Y-93881164D01*
X179375063Y-93687290D01*
X179450709Y-93504664D01*
X179560530Y-93340306D01*
X179700306Y-93200530D01*
X179864664Y-93090709D01*
X180047290Y-93015063D01*
X180213575Y-92981988D01*
X180241163Y-92976500D01*
X180438837Y-92976500D01*
X180466425Y-92981988D01*
G37*
G36*
X188086425Y-92981988D02*
G01*
X188252710Y-93015063D01*
X188435336Y-93090709D01*
X188599694Y-93200530D01*
X188739470Y-93340306D01*
X188849291Y-93504664D01*
X188924937Y-93687290D01*
X188963500Y-93881164D01*
X188963500Y-94078836D01*
X188924937Y-94272710D01*
X188849291Y-94455336D01*
X188739470Y-94619694D01*
X188599694Y-94759470D01*
X188435336Y-94869291D01*
X188252710Y-94944937D01*
X188086425Y-94978012D01*
X188058837Y-94983500D01*
X187861163Y-94983500D01*
X187833575Y-94978012D01*
X187667290Y-94944937D01*
X187484664Y-94869291D01*
X187320306Y-94759470D01*
X187180530Y-94619694D01*
X187070709Y-94455336D01*
X186995063Y-94272710D01*
X186956500Y-94078836D01*
X186956500Y-93881164D01*
X186995063Y-93687290D01*
X187070709Y-93504664D01*
X187180530Y-93340306D01*
X187320306Y-93200530D01*
X187484664Y-93090709D01*
X187667290Y-93015063D01*
X187833575Y-92981988D01*
X187861163Y-92976500D01*
X188058837Y-92976500D01*
X188086425Y-92981988D01*
G37*
G36*
X160286778Y-93100547D02*
G01*
X160453224Y-93169491D01*
X160603022Y-93269583D01*
X160730417Y-93396978D01*
X160830509Y-93546776D01*
X160899453Y-93713222D01*
X160934600Y-93889918D01*
X160934600Y-94070082D01*
X160899453Y-94246778D01*
X160830509Y-94413224D01*
X160730417Y-94563022D01*
X160603022Y-94690417D01*
X160453224Y-94790509D01*
X160286778Y-94859453D01*
X160110082Y-94894600D01*
X159929918Y-94894600D01*
X159753222Y-94859453D01*
X159586776Y-94790509D01*
X159436978Y-94690417D01*
X159309583Y-94563022D01*
X159209491Y-94413224D01*
X159140547Y-94246778D01*
X159105400Y-94070082D01*
X159105400Y-93889918D01*
X159140547Y-93713222D01*
X159209491Y-93546776D01*
X159309583Y-93396978D01*
X159436978Y-93269583D01*
X159586776Y-93169491D01*
X159753222Y-93100547D01*
X159929918Y-93065400D01*
X160110082Y-93065400D01*
X160286778Y-93100547D01*
G37*
G36*
X162826778Y-93100547D02*
G01*
X162993224Y-93169491D01*
X163143022Y-93269583D01*
X163270417Y-93396978D01*
X163370509Y-93546776D01*
X163439453Y-93713222D01*
X163474600Y-93889918D01*
X163474600Y-94070082D01*
X163439453Y-94246778D01*
X163370509Y-94413224D01*
X163270417Y-94563022D01*
X163143022Y-94690417D01*
X162993224Y-94790509D01*
X162826778Y-94859453D01*
X162650082Y-94894600D01*
X162469918Y-94894600D01*
X162293222Y-94859453D01*
X162126776Y-94790509D01*
X161976978Y-94690417D01*
X161849583Y-94563022D01*
X161749491Y-94413224D01*
X161680547Y-94246778D01*
X161645400Y-94070082D01*
X161645400Y-93889918D01*
X161680547Y-93713222D01*
X161749491Y-93546776D01*
X161849583Y-93396978D01*
X161976978Y-93269583D01*
X162126776Y-93169491D01*
X162293222Y-93100547D01*
X162469918Y-93065400D01*
X162650082Y-93065400D01*
X162826778Y-93100547D01*
G37*
G36*
X151061000Y-94781000D02*
G01*
X148659000Y-94781000D01*
X148659000Y-93179000D01*
X151061000Y-93179000D01*
X151061000Y-94781000D01*
G37*
G36*
X145961000Y-94511000D02*
G01*
X143809000Y-94511000D01*
X143809000Y-90909000D01*
X145961000Y-90909000D01*
X145961000Y-94511000D01*
G37*
G36*
X143211000Y-94511000D02*
G01*
X141059000Y-94511000D01*
X141059000Y-90909000D01*
X143211000Y-90909000D01*
X143211000Y-94511000D01*
G37*
G36*
X203326425Y-90441988D02*
G01*
X203492710Y-90475063D01*
X203675336Y-90550709D01*
X203839694Y-90660530D01*
X203979470Y-90800306D01*
X204089291Y-90964664D01*
X204164937Y-91147290D01*
X204203500Y-91341164D01*
X204203500Y-91538836D01*
X204164937Y-91732710D01*
X204089291Y-91915336D01*
X203979470Y-92079694D01*
X203839694Y-92219470D01*
X203675336Y-92329291D01*
X203492710Y-92404937D01*
X203326425Y-92438012D01*
X203298837Y-92443500D01*
X203101163Y-92443500D01*
X203073575Y-92438012D01*
X202907290Y-92404937D01*
X202724664Y-92329291D01*
X202560306Y-92219470D01*
X202420530Y-92079694D01*
X202310709Y-91915336D01*
X202235063Y-91732710D01*
X202196500Y-91538836D01*
X202196500Y-91341164D01*
X202235063Y-91147290D01*
X202310709Y-90964664D01*
X202420530Y-90800306D01*
X202560306Y-90660530D01*
X202724664Y-90550709D01*
X202907290Y-90475063D01*
X203073575Y-90441988D01*
X203101163Y-90436500D01*
X203298837Y-90436500D01*
X203326425Y-90441988D01*
G37*
G36*
X205866425Y-90441988D02*
G01*
X206032710Y-90475063D01*
X206215336Y-90550709D01*
X206379694Y-90660530D01*
X206519470Y-90800306D01*
X206629291Y-90964664D01*
X206704937Y-91147290D01*
X206743500Y-91341164D01*
X206743500Y-91538836D01*
X206704937Y-91732710D01*
X206629291Y-91915336D01*
X206519470Y-92079694D01*
X206379694Y-92219470D01*
X206215336Y-92329291D01*
X206032710Y-92404937D01*
X205866425Y-92438012D01*
X205838837Y-92443500D01*
X205641163Y-92443500D01*
X205613575Y-92438012D01*
X205447290Y-92404937D01*
X205264664Y-92329291D01*
X205100306Y-92219470D01*
X204960530Y-92079694D01*
X204850709Y-91915336D01*
X204775063Y-91732710D01*
X204736500Y-91538836D01*
X204736500Y-91341164D01*
X204775063Y-91147290D01*
X204850709Y-90964664D01*
X204960530Y-90800306D01*
X205100306Y-90660530D01*
X205264664Y-90550709D01*
X205447290Y-90475063D01*
X205613575Y-90441988D01*
X205641163Y-90436500D01*
X205838837Y-90436500D01*
X205866425Y-90441988D01*
G37*
G36*
X195706425Y-90441988D02*
G01*
X195872710Y-90475063D01*
X196055336Y-90550709D01*
X196219694Y-90660530D01*
X196359470Y-90800306D01*
X196469291Y-90964664D01*
X196544937Y-91147290D01*
X196583500Y-91341164D01*
X196583500Y-91538836D01*
X196544937Y-91732710D01*
X196469291Y-91915336D01*
X196359470Y-92079694D01*
X196219694Y-92219470D01*
X196055336Y-92329291D01*
X195872710Y-92404937D01*
X195706425Y-92438012D01*
X195678837Y-92443500D01*
X195481163Y-92443500D01*
X195453575Y-92438012D01*
X195287290Y-92404937D01*
X195104664Y-92329291D01*
X194940306Y-92219470D01*
X194800530Y-92079694D01*
X194690709Y-91915336D01*
X194615063Y-91732710D01*
X194576500Y-91538836D01*
X194576500Y-91341164D01*
X194615063Y-91147290D01*
X194690709Y-90964664D01*
X194800530Y-90800306D01*
X194940306Y-90660530D01*
X195104664Y-90550709D01*
X195287290Y-90475063D01*
X195453575Y-90441988D01*
X195481163Y-90436500D01*
X195678837Y-90436500D01*
X195706425Y-90441988D01*
G37*
G36*
X193166425Y-90441988D02*
G01*
X193332710Y-90475063D01*
X193515336Y-90550709D01*
X193679694Y-90660530D01*
X193819470Y-90800306D01*
X193929291Y-90964664D01*
X194004937Y-91147290D01*
X194043500Y-91341164D01*
X194043500Y-91538836D01*
X194004937Y-91732710D01*
X193929291Y-91915336D01*
X193819470Y-92079694D01*
X193679694Y-92219470D01*
X193515336Y-92329291D01*
X193332710Y-92404937D01*
X193166425Y-92438012D01*
X193138837Y-92443500D01*
X192941163Y-92443500D01*
X192913575Y-92438012D01*
X192747290Y-92404937D01*
X192564664Y-92329291D01*
X192400306Y-92219470D01*
X192260530Y-92079694D01*
X192150709Y-91915336D01*
X192075063Y-91732710D01*
X192036500Y-91538836D01*
X192036500Y-91341164D01*
X192075063Y-91147290D01*
X192150709Y-90964664D01*
X192260530Y-90800306D01*
X192400306Y-90660530D01*
X192564664Y-90550709D01*
X192747290Y-90475063D01*
X192913575Y-90441988D01*
X192941163Y-90436500D01*
X193138837Y-90436500D01*
X193166425Y-90441988D01*
G37*
G36*
X200786425Y-90441988D02*
G01*
X200952710Y-90475063D01*
X201135336Y-90550709D01*
X201299694Y-90660530D01*
X201439470Y-90800306D01*
X201549291Y-90964664D01*
X201624937Y-91147290D01*
X201663500Y-91341164D01*
X201663500Y-91538836D01*
X201624937Y-91732710D01*
X201549291Y-91915336D01*
X201439470Y-92079694D01*
X201299694Y-92219470D01*
X201135336Y-92329291D01*
X200952710Y-92404937D01*
X200786425Y-92438012D01*
X200758837Y-92443500D01*
X200561163Y-92443500D01*
X200533575Y-92438012D01*
X200367290Y-92404937D01*
X200184664Y-92329291D01*
X200020306Y-92219470D01*
X199880530Y-92079694D01*
X199770709Y-91915336D01*
X199695063Y-91732710D01*
X199656500Y-91538836D01*
X199656500Y-91341164D01*
X199695063Y-91147290D01*
X199770709Y-90964664D01*
X199880530Y-90800306D01*
X200020306Y-90660530D01*
X200184664Y-90550709D01*
X200367290Y-90475063D01*
X200533575Y-90441988D01*
X200561163Y-90436500D01*
X200758837Y-90436500D01*
X200786425Y-90441988D01*
G37*
G36*
X190626425Y-90441988D02*
G01*
X190792710Y-90475063D01*
X190975336Y-90550709D01*
X191139694Y-90660530D01*
X191279470Y-90800306D01*
X191389291Y-90964664D01*
X191464937Y-91147290D01*
X191503500Y-91341164D01*
X191503500Y-91538836D01*
X191464937Y-91732710D01*
X191389291Y-91915336D01*
X191279470Y-92079694D01*
X191139694Y-92219470D01*
X190975336Y-92329291D01*
X190792710Y-92404937D01*
X190626425Y-92438012D01*
X190598837Y-92443500D01*
X190401163Y-92443500D01*
X190373575Y-92438012D01*
X190207290Y-92404937D01*
X190024664Y-92329291D01*
X189860306Y-92219470D01*
X189720530Y-92079694D01*
X189610709Y-91915336D01*
X189535063Y-91732710D01*
X189496500Y-91538836D01*
X189496500Y-91341164D01*
X189535063Y-91147290D01*
X189610709Y-90964664D01*
X189720530Y-90800306D01*
X189860306Y-90660530D01*
X190024664Y-90550709D01*
X190207290Y-90475063D01*
X190373575Y-90441988D01*
X190401163Y-90436500D01*
X190598837Y-90436500D01*
X190626425Y-90441988D01*
G37*
G36*
X188086425Y-90441988D02*
G01*
X188252710Y-90475063D01*
X188435336Y-90550709D01*
X188599694Y-90660530D01*
X188739470Y-90800306D01*
X188849291Y-90964664D01*
X188924937Y-91147290D01*
X188963500Y-91341164D01*
X188963500Y-91538836D01*
X188924937Y-91732710D01*
X188849291Y-91915336D01*
X188739470Y-92079694D01*
X188599694Y-92219470D01*
X188435336Y-92329291D01*
X188252710Y-92404937D01*
X188086425Y-92438012D01*
X188058837Y-92443500D01*
X187861163Y-92443500D01*
X187833575Y-92438012D01*
X187667290Y-92404937D01*
X187484664Y-92329291D01*
X187320306Y-92219470D01*
X187180530Y-92079694D01*
X187070709Y-91915336D01*
X186995063Y-91732710D01*
X186956500Y-91538836D01*
X186956500Y-91341164D01*
X186995063Y-91147290D01*
X187070709Y-90964664D01*
X187180530Y-90800306D01*
X187320306Y-90660530D01*
X187484664Y-90550709D01*
X187667290Y-90475063D01*
X187833575Y-90441988D01*
X187861163Y-90436500D01*
X188058837Y-90436500D01*
X188086425Y-90441988D01*
G37*
G36*
X183006425Y-90441988D02*
G01*
X183172710Y-90475063D01*
X183355336Y-90550709D01*
X183519694Y-90660530D01*
X183659470Y-90800306D01*
X183769291Y-90964664D01*
X183844937Y-91147290D01*
X183883500Y-91341164D01*
X183883500Y-91538836D01*
X183844937Y-91732710D01*
X183769291Y-91915336D01*
X183659470Y-92079694D01*
X183519694Y-92219470D01*
X183355336Y-92329291D01*
X183172710Y-92404937D01*
X183006425Y-92438012D01*
X182978837Y-92443500D01*
X182781163Y-92443500D01*
X182753575Y-92438012D01*
X182587290Y-92404937D01*
X182404664Y-92329291D01*
X182240306Y-92219470D01*
X182100530Y-92079694D01*
X181990709Y-91915336D01*
X181915063Y-91732710D01*
X181876500Y-91538836D01*
X181876500Y-91341164D01*
X181915063Y-91147290D01*
X181990709Y-90964664D01*
X182100530Y-90800306D01*
X182240306Y-90660530D01*
X182404664Y-90550709D01*
X182587290Y-90475063D01*
X182753575Y-90441988D01*
X182781163Y-90436500D01*
X182978837Y-90436500D01*
X183006425Y-90441988D01*
G37*
G36*
X180466425Y-90441988D02*
G01*
X180632710Y-90475063D01*
X180815336Y-90550709D01*
X180979694Y-90660530D01*
X181119470Y-90800306D01*
X181229291Y-90964664D01*
X181304937Y-91147290D01*
X181343500Y-91341164D01*
X181343500Y-91538836D01*
X181304937Y-91732710D01*
X181229291Y-91915336D01*
X181119470Y-92079694D01*
X180979694Y-92219470D01*
X180815336Y-92329291D01*
X180632710Y-92404937D01*
X180466425Y-92438012D01*
X180438837Y-92443500D01*
X180241163Y-92443500D01*
X180213575Y-92438012D01*
X180047290Y-92404937D01*
X179864664Y-92329291D01*
X179700306Y-92219470D01*
X179560530Y-92079694D01*
X179450709Y-91915336D01*
X179375063Y-91732710D01*
X179336500Y-91538836D01*
X179336500Y-91341164D01*
X179375063Y-91147290D01*
X179450709Y-90964664D01*
X179560530Y-90800306D01*
X179700306Y-90660530D01*
X179864664Y-90550709D01*
X180047290Y-90475063D01*
X180213575Y-90441988D01*
X180241163Y-90436500D01*
X180438837Y-90436500D01*
X180466425Y-90441988D01*
G37*
G36*
X177926425Y-90441988D02*
G01*
X178092710Y-90475063D01*
X178275336Y-90550709D01*
X178439694Y-90660530D01*
X178579470Y-90800306D01*
X178689291Y-90964664D01*
X178764937Y-91147290D01*
X178803500Y-91341164D01*
X178803500Y-91538836D01*
X178764937Y-91732710D01*
X178689291Y-91915336D01*
X178579470Y-92079694D01*
X178439694Y-92219470D01*
X178275336Y-92329291D01*
X178092710Y-92404937D01*
X177926425Y-92438012D01*
X177898837Y-92443500D01*
X177701163Y-92443500D01*
X177673575Y-92438012D01*
X177507290Y-92404937D01*
X177324664Y-92329291D01*
X177160306Y-92219470D01*
X177020530Y-92079694D01*
X176910709Y-91915336D01*
X176835063Y-91732710D01*
X176796500Y-91538836D01*
X176796500Y-91341164D01*
X176835063Y-91147290D01*
X176910709Y-90964664D01*
X177020530Y-90800306D01*
X177160306Y-90660530D01*
X177324664Y-90550709D01*
X177507290Y-90475063D01*
X177673575Y-90441988D01*
X177701163Y-90436500D01*
X177898837Y-90436500D01*
X177926425Y-90441988D01*
G37*
G36*
X175386425Y-90441988D02*
G01*
X175552710Y-90475063D01*
X175735336Y-90550709D01*
X175899694Y-90660530D01*
X176039470Y-90800306D01*
X176149291Y-90964664D01*
X176224937Y-91147290D01*
X176263500Y-91341164D01*
X176263500Y-91538836D01*
X176224937Y-91732710D01*
X176149291Y-91915336D01*
X176039470Y-92079694D01*
X175899694Y-92219470D01*
X175735336Y-92329291D01*
X175552710Y-92404937D01*
X175386425Y-92438012D01*
X175358837Y-92443500D01*
X175161163Y-92443500D01*
X175133575Y-92438012D01*
X174967290Y-92404937D01*
X174784664Y-92329291D01*
X174620306Y-92219470D01*
X174480530Y-92079694D01*
X174370709Y-91915336D01*
X174295063Y-91732710D01*
X174256500Y-91538836D01*
X174256500Y-91341164D01*
X174295063Y-91147290D01*
X174370709Y-90964664D01*
X174480530Y-90800306D01*
X174620306Y-90660530D01*
X174784664Y-90550709D01*
X174967290Y-90475063D01*
X175133575Y-90441988D01*
X175161163Y-90436500D01*
X175358837Y-90436500D01*
X175386425Y-90441988D01*
G37*
G36*
X170306425Y-90441988D02*
G01*
X170472710Y-90475063D01*
X170655336Y-90550709D01*
X170819694Y-90660530D01*
X170959470Y-90800306D01*
X171069291Y-90964664D01*
X171144937Y-91147290D01*
X171183500Y-91341164D01*
X171183500Y-91538836D01*
X171144937Y-91732710D01*
X171069291Y-91915336D01*
X170959470Y-92079694D01*
X170819694Y-92219470D01*
X170655336Y-92329291D01*
X170472710Y-92404937D01*
X170306425Y-92438012D01*
X170278837Y-92443500D01*
X170081163Y-92443500D01*
X170053575Y-92438012D01*
X169887290Y-92404937D01*
X169704664Y-92329291D01*
X169540306Y-92219470D01*
X169400530Y-92079694D01*
X169290709Y-91915336D01*
X169215063Y-91732710D01*
X169176500Y-91538836D01*
X169176500Y-91341164D01*
X169215063Y-91147290D01*
X169290709Y-90964664D01*
X169400530Y-90800306D01*
X169540306Y-90660530D01*
X169704664Y-90550709D01*
X169887290Y-90475063D01*
X170053575Y-90441988D01*
X170081163Y-90436500D01*
X170278837Y-90436500D01*
X170306425Y-90441988D01*
G37*
G36*
X198246425Y-90441988D02*
G01*
X198412710Y-90475063D01*
X198595336Y-90550709D01*
X198759694Y-90660530D01*
X198899470Y-90800306D01*
X199009291Y-90964664D01*
X199084937Y-91147290D01*
X199123500Y-91341164D01*
X199123500Y-91538836D01*
X199084937Y-91732710D01*
X199009291Y-91915336D01*
X198899470Y-92079694D01*
X198759694Y-92219470D01*
X198595336Y-92329291D01*
X198412710Y-92404937D01*
X198246425Y-92438012D01*
X198218837Y-92443500D01*
X198021163Y-92443500D01*
X197993575Y-92438012D01*
X197827290Y-92404937D01*
X197644664Y-92329291D01*
X197480306Y-92219470D01*
X197340530Y-92079694D01*
X197230709Y-91915336D01*
X197155063Y-91732710D01*
X197116500Y-91538836D01*
X197116500Y-91341164D01*
X197155063Y-91147290D01*
X197230709Y-90964664D01*
X197340530Y-90800306D01*
X197480306Y-90660530D01*
X197644664Y-90550709D01*
X197827290Y-90475063D01*
X197993575Y-90441988D01*
X198021163Y-90436500D01*
X198218837Y-90436500D01*
X198246425Y-90441988D01*
G37*
G36*
X172846425Y-90441988D02*
G01*
X173012710Y-90475063D01*
X173195336Y-90550709D01*
X173359694Y-90660530D01*
X173499470Y-90800306D01*
X173609291Y-90964664D01*
X173684937Y-91147290D01*
X173723500Y-91341164D01*
X173723500Y-91538836D01*
X173684937Y-91732710D01*
X173609291Y-91915336D01*
X173499470Y-92079694D01*
X173359694Y-92219470D01*
X173195336Y-92329291D01*
X173012710Y-92404937D01*
X172846425Y-92438012D01*
X172818837Y-92443500D01*
X172621163Y-92443500D01*
X172593575Y-92438012D01*
X172427290Y-92404937D01*
X172244664Y-92329291D01*
X172080306Y-92219470D01*
X171940530Y-92079694D01*
X171830709Y-91915336D01*
X171755063Y-91732710D01*
X171716500Y-91538836D01*
X171716500Y-91341164D01*
X171755063Y-91147290D01*
X171830709Y-90964664D01*
X171940530Y-90800306D01*
X172080306Y-90660530D01*
X172244664Y-90550709D01*
X172427290Y-90475063D01*
X172593575Y-90441988D01*
X172621163Y-90436500D01*
X172818837Y-90436500D01*
X172846425Y-90441988D01*
G37*
G36*
X185546425Y-90441988D02*
G01*
X185712710Y-90475063D01*
X185895336Y-90550709D01*
X186059694Y-90660530D01*
X186199470Y-90800306D01*
X186309291Y-90964664D01*
X186384937Y-91147290D01*
X186423500Y-91341164D01*
X186423500Y-91538836D01*
X186384937Y-91732710D01*
X186309291Y-91915336D01*
X186199470Y-92079694D01*
X186059694Y-92219470D01*
X185895336Y-92329291D01*
X185712710Y-92404937D01*
X185546425Y-92438012D01*
X185518837Y-92443500D01*
X185321163Y-92443500D01*
X185293575Y-92438012D01*
X185127290Y-92404937D01*
X184944664Y-92329291D01*
X184780306Y-92219470D01*
X184640530Y-92079694D01*
X184530709Y-91915336D01*
X184455063Y-91732710D01*
X184416500Y-91538836D01*
X184416500Y-91341164D01*
X184455063Y-91147290D01*
X184530709Y-90964664D01*
X184640530Y-90800306D01*
X184780306Y-90660530D01*
X184944664Y-90550709D01*
X185127290Y-90475063D01*
X185293575Y-90441988D01*
X185321163Y-90436500D01*
X185518837Y-90436500D01*
X185546425Y-90441988D01*
G37*
G36*
X162826778Y-90560547D02*
G01*
X162993224Y-90629491D01*
X163143022Y-90729583D01*
X163270417Y-90856978D01*
X163370509Y-91006776D01*
X163439453Y-91173222D01*
X163474600Y-91349918D01*
X163474600Y-91530082D01*
X163439453Y-91706778D01*
X163370509Y-91873224D01*
X163270417Y-92023022D01*
X163143022Y-92150417D01*
X162993224Y-92250509D01*
X162826778Y-92319453D01*
X162650082Y-92354600D01*
X162469918Y-92354600D01*
X162293222Y-92319453D01*
X162126776Y-92250509D01*
X161976978Y-92150417D01*
X161849583Y-92023022D01*
X161749491Y-91873224D01*
X161680547Y-91706778D01*
X161645400Y-91530082D01*
X161645400Y-91349918D01*
X161680547Y-91173222D01*
X161749491Y-91006776D01*
X161849583Y-90856978D01*
X161976978Y-90729583D01*
X162126776Y-90629491D01*
X162293222Y-90560547D01*
X162469918Y-90525400D01*
X162650082Y-90525400D01*
X162826778Y-90560547D01*
G37*
G36*
X160286778Y-90560547D02*
G01*
X160453224Y-90629491D01*
X160603022Y-90729583D01*
X160730417Y-90856978D01*
X160830509Y-91006776D01*
X160899453Y-91173222D01*
X160934600Y-91349918D01*
X160934600Y-91530082D01*
X160899453Y-91706778D01*
X160830509Y-91873224D01*
X160730417Y-92023022D01*
X160603022Y-92150417D01*
X160453224Y-92250509D01*
X160286778Y-92319453D01*
X160110082Y-92354600D01*
X159929918Y-92354600D01*
X159753222Y-92319453D01*
X159586776Y-92250509D01*
X159436978Y-92150417D01*
X159309583Y-92023022D01*
X159209491Y-91873224D01*
X159140547Y-91706778D01*
X159105400Y-91530082D01*
X159105400Y-91349918D01*
X159140547Y-91173222D01*
X159209491Y-91006776D01*
X159309583Y-90856978D01*
X159436978Y-90729583D01*
X159586776Y-90629491D01*
X159753222Y-90560547D01*
X159929918Y-90525400D01*
X160110082Y-90525400D01*
X160286778Y-90560547D01*
G37*
G36*
X205866425Y-87901988D02*
G01*
X206032710Y-87935063D01*
X206215336Y-88010709D01*
X206379694Y-88120530D01*
X206519470Y-88260306D01*
X206629291Y-88424664D01*
X206704937Y-88607290D01*
X206743500Y-88801164D01*
X206743500Y-88998836D01*
X206704937Y-89192710D01*
X206629291Y-89375336D01*
X206519470Y-89539694D01*
X206379694Y-89679470D01*
X206215336Y-89789291D01*
X206032710Y-89864937D01*
X205866425Y-89898012D01*
X205838837Y-89903500D01*
X205641163Y-89903500D01*
X205613575Y-89898012D01*
X205447290Y-89864937D01*
X205264664Y-89789291D01*
X205100306Y-89679470D01*
X204960530Y-89539694D01*
X204850709Y-89375336D01*
X204775063Y-89192710D01*
X204736500Y-88998836D01*
X204736500Y-88801164D01*
X204775063Y-88607290D01*
X204850709Y-88424664D01*
X204960530Y-88260306D01*
X205100306Y-88120530D01*
X205264664Y-88010709D01*
X205447290Y-87935063D01*
X205613575Y-87901988D01*
X205641163Y-87896500D01*
X205838837Y-87896500D01*
X205866425Y-87901988D01*
G37*
G36*
X180466425Y-87901988D02*
G01*
X180632710Y-87935063D01*
X180815336Y-88010709D01*
X180979694Y-88120530D01*
X181119470Y-88260306D01*
X181229291Y-88424664D01*
X181304937Y-88607290D01*
X181343500Y-88801164D01*
X181343500Y-88998836D01*
X181304937Y-89192710D01*
X181229291Y-89375336D01*
X181119470Y-89539694D01*
X180979694Y-89679470D01*
X180815336Y-89789291D01*
X180632710Y-89864937D01*
X180466425Y-89898012D01*
X180438837Y-89903500D01*
X180241163Y-89903500D01*
X180213575Y-89898012D01*
X180047290Y-89864937D01*
X179864664Y-89789291D01*
X179700306Y-89679470D01*
X179560530Y-89539694D01*
X179450709Y-89375336D01*
X179375063Y-89192710D01*
X179336500Y-88998836D01*
X179336500Y-88801164D01*
X179375063Y-88607290D01*
X179450709Y-88424664D01*
X179560530Y-88260306D01*
X179700306Y-88120530D01*
X179864664Y-88010709D01*
X180047290Y-87935063D01*
X180213575Y-87901988D01*
X180241163Y-87896500D01*
X180438837Y-87896500D01*
X180466425Y-87901988D01*
G37*
G36*
X190626425Y-87901988D02*
G01*
X190792710Y-87935063D01*
X190975336Y-88010709D01*
X191139694Y-88120530D01*
X191279470Y-88260306D01*
X191389291Y-88424664D01*
X191464937Y-88607290D01*
X191503500Y-88801164D01*
X191503500Y-88998836D01*
X191464937Y-89192710D01*
X191389291Y-89375336D01*
X191279470Y-89539694D01*
X191139694Y-89679470D01*
X190975336Y-89789291D01*
X190792710Y-89864937D01*
X190626425Y-89898012D01*
X190598837Y-89903500D01*
X190401163Y-89903500D01*
X190373575Y-89898012D01*
X190207290Y-89864937D01*
X190024664Y-89789291D01*
X189860306Y-89679470D01*
X189720530Y-89539694D01*
X189610709Y-89375336D01*
X189535063Y-89192710D01*
X189496500Y-88998836D01*
X189496500Y-88801164D01*
X189535063Y-88607290D01*
X189610709Y-88424664D01*
X189720530Y-88260306D01*
X189860306Y-88120530D01*
X190024664Y-88010709D01*
X190207290Y-87935063D01*
X190373575Y-87901988D01*
X190401163Y-87896500D01*
X190598837Y-87896500D01*
X190626425Y-87901988D01*
G37*
G36*
X195706425Y-87901988D02*
G01*
X195872710Y-87935063D01*
X196055336Y-88010709D01*
X196219694Y-88120530D01*
X196359470Y-88260306D01*
X196469291Y-88424664D01*
X196544937Y-88607290D01*
X196583500Y-88801164D01*
X196583500Y-88998836D01*
X196544937Y-89192710D01*
X196469291Y-89375336D01*
X196359470Y-89539694D01*
X196219694Y-89679470D01*
X196055336Y-89789291D01*
X195872710Y-89864937D01*
X195706425Y-89898012D01*
X195678837Y-89903500D01*
X195481163Y-89903500D01*
X195453575Y-89898012D01*
X195287290Y-89864937D01*
X195104664Y-89789291D01*
X194940306Y-89679470D01*
X194800530Y-89539694D01*
X194690709Y-89375336D01*
X194615063Y-89192710D01*
X194576500Y-88998836D01*
X194576500Y-88801164D01*
X194615063Y-88607290D01*
X194690709Y-88424664D01*
X194800530Y-88260306D01*
X194940306Y-88120530D01*
X195104664Y-88010709D01*
X195287290Y-87935063D01*
X195453575Y-87901988D01*
X195481163Y-87896500D01*
X195678837Y-87896500D01*
X195706425Y-87901988D01*
G37*
G36*
X193166425Y-87901988D02*
G01*
X193332710Y-87935063D01*
X193515336Y-88010709D01*
X193679694Y-88120530D01*
X193819470Y-88260306D01*
X193929291Y-88424664D01*
X194004937Y-88607290D01*
X194043500Y-88801164D01*
X194043500Y-88998836D01*
X194004937Y-89192710D01*
X193929291Y-89375336D01*
X193819470Y-89539694D01*
X193679694Y-89679470D01*
X193515336Y-89789291D01*
X193332710Y-89864937D01*
X193166425Y-89898012D01*
X193138837Y-89903500D01*
X192941163Y-89903500D01*
X192913575Y-89898012D01*
X192747290Y-89864937D01*
X192564664Y-89789291D01*
X192400306Y-89679470D01*
X192260530Y-89539694D01*
X192150709Y-89375336D01*
X192075063Y-89192710D01*
X192036500Y-88998836D01*
X192036500Y-88801164D01*
X192075063Y-88607290D01*
X192150709Y-88424664D01*
X192260530Y-88260306D01*
X192400306Y-88120530D01*
X192564664Y-88010709D01*
X192747290Y-87935063D01*
X192913575Y-87901988D01*
X192941163Y-87896500D01*
X193138837Y-87896500D01*
X193166425Y-87901988D01*
G37*
G36*
X200786425Y-87901988D02*
G01*
X200952710Y-87935063D01*
X201135336Y-88010709D01*
X201299694Y-88120530D01*
X201439470Y-88260306D01*
X201549291Y-88424664D01*
X201624937Y-88607290D01*
X201663500Y-88801164D01*
X201663500Y-88998836D01*
X201624937Y-89192710D01*
X201549291Y-89375336D01*
X201439470Y-89539694D01*
X201299694Y-89679470D01*
X201135336Y-89789291D01*
X200952710Y-89864937D01*
X200786425Y-89898012D01*
X200758837Y-89903500D01*
X200561163Y-89903500D01*
X200533575Y-89898012D01*
X200367290Y-89864937D01*
X200184664Y-89789291D01*
X200020306Y-89679470D01*
X199880530Y-89539694D01*
X199770709Y-89375336D01*
X199695063Y-89192710D01*
X199656500Y-88998836D01*
X199656500Y-88801164D01*
X199695063Y-88607290D01*
X199770709Y-88424664D01*
X199880530Y-88260306D01*
X200020306Y-88120530D01*
X200184664Y-88010709D01*
X200367290Y-87935063D01*
X200533575Y-87901988D01*
X200561163Y-87896500D01*
X200758837Y-87896500D01*
X200786425Y-87901988D01*
G37*
G36*
X188086425Y-87901988D02*
G01*
X188252710Y-87935063D01*
X188435336Y-88010709D01*
X188599694Y-88120530D01*
X188739470Y-88260306D01*
X188849291Y-88424664D01*
X188924937Y-88607290D01*
X188963500Y-88801164D01*
X188963500Y-88998836D01*
X188924937Y-89192710D01*
X188849291Y-89375336D01*
X188739470Y-89539694D01*
X188599694Y-89679470D01*
X188435336Y-89789291D01*
X188252710Y-89864937D01*
X188086425Y-89898012D01*
X188058837Y-89903500D01*
X187861163Y-89903500D01*
X187833575Y-89898012D01*
X187667290Y-89864937D01*
X187484664Y-89789291D01*
X187320306Y-89679470D01*
X187180530Y-89539694D01*
X187070709Y-89375336D01*
X186995063Y-89192710D01*
X186956500Y-88998836D01*
X186956500Y-88801164D01*
X186995063Y-88607290D01*
X187070709Y-88424664D01*
X187180530Y-88260306D01*
X187320306Y-88120530D01*
X187484664Y-88010709D01*
X187667290Y-87935063D01*
X187833575Y-87901988D01*
X187861163Y-87896500D01*
X188058837Y-87896500D01*
X188086425Y-87901988D01*
G37*
G36*
X198246425Y-87901988D02*
G01*
X198412710Y-87935063D01*
X198595336Y-88010709D01*
X198759694Y-88120530D01*
X198899470Y-88260306D01*
X199009291Y-88424664D01*
X199084937Y-88607290D01*
X199123500Y-88801164D01*
X199123500Y-88998836D01*
X199084937Y-89192710D01*
X199009291Y-89375336D01*
X198899470Y-89539694D01*
X198759694Y-89679470D01*
X198595336Y-89789291D01*
X198412710Y-89864937D01*
X198246425Y-89898012D01*
X198218837Y-89903500D01*
X198021163Y-89903500D01*
X197993575Y-89898012D01*
X197827290Y-89864937D01*
X197644664Y-89789291D01*
X197480306Y-89679470D01*
X197340530Y-89539694D01*
X197230709Y-89375336D01*
X197155063Y-89192710D01*
X197116500Y-88998836D01*
X197116500Y-88801164D01*
X197155063Y-88607290D01*
X197230709Y-88424664D01*
X197340530Y-88260306D01*
X197480306Y-88120530D01*
X197644664Y-88010709D01*
X197827290Y-87935063D01*
X197993575Y-87901988D01*
X198021163Y-87896500D01*
X198218837Y-87896500D01*
X198246425Y-87901988D01*
G37*
G36*
X183006425Y-87901988D02*
G01*
X183172710Y-87935063D01*
X183355336Y-88010709D01*
X183519694Y-88120530D01*
X183659470Y-88260306D01*
X183769291Y-88424664D01*
X183844937Y-88607290D01*
X183883500Y-88801164D01*
X183883500Y-88998836D01*
X183844937Y-89192710D01*
X183769291Y-89375336D01*
X183659470Y-89539694D01*
X183519694Y-89679470D01*
X183355336Y-89789291D01*
X183172710Y-89864937D01*
X183006425Y-89898012D01*
X182978837Y-89903500D01*
X182781163Y-89903500D01*
X182753575Y-89898012D01*
X182587290Y-89864937D01*
X182404664Y-89789291D01*
X182240306Y-89679470D01*
X182100530Y-89539694D01*
X181990709Y-89375336D01*
X181915063Y-89192710D01*
X181876500Y-88998836D01*
X181876500Y-88801164D01*
X181915063Y-88607290D01*
X181990709Y-88424664D01*
X182100530Y-88260306D01*
X182240306Y-88120530D01*
X182404664Y-88010709D01*
X182587290Y-87935063D01*
X182753575Y-87901988D01*
X182781163Y-87896500D01*
X182978837Y-87896500D01*
X183006425Y-87901988D01*
G37*
G36*
X170306425Y-87901988D02*
G01*
X170472710Y-87935063D01*
X170655336Y-88010709D01*
X170819694Y-88120530D01*
X170959470Y-88260306D01*
X171069291Y-88424664D01*
X171144937Y-88607290D01*
X171183500Y-88801164D01*
X171183500Y-88998836D01*
X171144937Y-89192710D01*
X171069291Y-89375336D01*
X170959470Y-89539694D01*
X170819694Y-89679470D01*
X170655336Y-89789291D01*
X170472710Y-89864937D01*
X170306425Y-89898012D01*
X170278837Y-89903500D01*
X170081163Y-89903500D01*
X170053575Y-89898012D01*
X169887290Y-89864937D01*
X169704664Y-89789291D01*
X169540306Y-89679470D01*
X169400530Y-89539694D01*
X169290709Y-89375336D01*
X169215063Y-89192710D01*
X169176500Y-88998836D01*
X169176500Y-88801164D01*
X169215063Y-88607290D01*
X169290709Y-88424664D01*
X169400530Y-88260306D01*
X169540306Y-88120530D01*
X169704664Y-88010709D01*
X169887290Y-87935063D01*
X170053575Y-87901988D01*
X170081163Y-87896500D01*
X170278837Y-87896500D01*
X170306425Y-87901988D01*
G37*
G36*
X172846425Y-87901988D02*
G01*
X173012710Y-87935063D01*
X173195336Y-88010709D01*
X173359694Y-88120530D01*
X173499470Y-88260306D01*
X173609291Y-88424664D01*
X173684937Y-88607290D01*
X173723500Y-88801164D01*
X173723500Y-88998836D01*
X173684937Y-89192710D01*
X173609291Y-89375336D01*
X173499470Y-89539694D01*
X173359694Y-89679470D01*
X173195336Y-89789291D01*
X173012710Y-89864937D01*
X172846425Y-89898012D01*
X172818837Y-89903500D01*
X172621163Y-89903500D01*
X172593575Y-89898012D01*
X172427290Y-89864937D01*
X172244664Y-89789291D01*
X172080306Y-89679470D01*
X171940530Y-89539694D01*
X171830709Y-89375336D01*
X171755063Y-89192710D01*
X171716500Y-88998836D01*
X171716500Y-88801164D01*
X171755063Y-88607290D01*
X171830709Y-88424664D01*
X171940530Y-88260306D01*
X172080306Y-88120530D01*
X172244664Y-88010709D01*
X172427290Y-87935063D01*
X172593575Y-87901988D01*
X172621163Y-87896500D01*
X172818837Y-87896500D01*
X172846425Y-87901988D01*
G37*
G36*
X185546425Y-87901988D02*
G01*
X185712710Y-87935063D01*
X185895336Y-88010709D01*
X186059694Y-88120530D01*
X186199470Y-88260306D01*
X186309291Y-88424664D01*
X186384937Y-88607290D01*
X186423500Y-88801164D01*
X186423500Y-88998836D01*
X186384937Y-89192710D01*
X186309291Y-89375336D01*
X186199470Y-89539694D01*
X186059694Y-89679470D01*
X185895336Y-89789291D01*
X185712710Y-89864937D01*
X185546425Y-89898012D01*
X185518837Y-89903500D01*
X185321163Y-89903500D01*
X185293575Y-89898012D01*
X185127290Y-89864937D01*
X184944664Y-89789291D01*
X184780306Y-89679470D01*
X184640530Y-89539694D01*
X184530709Y-89375336D01*
X184455063Y-89192710D01*
X184416500Y-88998836D01*
X184416500Y-88801164D01*
X184455063Y-88607290D01*
X184530709Y-88424664D01*
X184640530Y-88260306D01*
X184780306Y-88120530D01*
X184944664Y-88010709D01*
X185127290Y-87935063D01*
X185293575Y-87901988D01*
X185321163Y-87896500D01*
X185518837Y-87896500D01*
X185546425Y-87901988D01*
G37*
G36*
X177926425Y-87901988D02*
G01*
X178092710Y-87935063D01*
X178275336Y-88010709D01*
X178439694Y-88120530D01*
X178579470Y-88260306D01*
X178689291Y-88424664D01*
X178764937Y-88607290D01*
X178803500Y-88801164D01*
X178803500Y-88998836D01*
X178764937Y-89192710D01*
X178689291Y-89375336D01*
X178579470Y-89539694D01*
X178439694Y-89679470D01*
X178275336Y-89789291D01*
X178092710Y-89864937D01*
X177926425Y-89898012D01*
X177898837Y-89903500D01*
X177701163Y-89903500D01*
X177673575Y-89898012D01*
X177507290Y-89864937D01*
X177324664Y-89789291D01*
X177160306Y-89679470D01*
X177020530Y-89539694D01*
X176910709Y-89375336D01*
X176835063Y-89192710D01*
X176796500Y-88998836D01*
X176796500Y-88801164D01*
X176835063Y-88607290D01*
X176910709Y-88424664D01*
X177020530Y-88260306D01*
X177160306Y-88120530D01*
X177324664Y-88010709D01*
X177507290Y-87935063D01*
X177673575Y-87901988D01*
X177701163Y-87896500D01*
X177898837Y-87896500D01*
X177926425Y-87901988D01*
G37*
G36*
X175386425Y-87901988D02*
G01*
X175552710Y-87935063D01*
X175735336Y-88010709D01*
X175899694Y-88120530D01*
X176039470Y-88260306D01*
X176149291Y-88424664D01*
X176224937Y-88607290D01*
X176263500Y-88801164D01*
X176263500Y-88998836D01*
X176224937Y-89192710D01*
X176149291Y-89375336D01*
X176039470Y-89539694D01*
X175899694Y-89679470D01*
X175735336Y-89789291D01*
X175552710Y-89864937D01*
X175386425Y-89898012D01*
X175358837Y-89903500D01*
X175161163Y-89903500D01*
X175133575Y-89898012D01*
X174967290Y-89864937D01*
X174784664Y-89789291D01*
X174620306Y-89679470D01*
X174480530Y-89539694D01*
X174370709Y-89375336D01*
X174295063Y-89192710D01*
X174256500Y-88998836D01*
X174256500Y-88801164D01*
X174295063Y-88607290D01*
X174370709Y-88424664D01*
X174480530Y-88260306D01*
X174620306Y-88120530D01*
X174784664Y-88010709D01*
X174967290Y-87935063D01*
X175133575Y-87901988D01*
X175161163Y-87896500D01*
X175358837Y-87896500D01*
X175386425Y-87901988D01*
G37*
G36*
X203326425Y-87901988D02*
G01*
X203492710Y-87935063D01*
X203675336Y-88010709D01*
X203839694Y-88120530D01*
X203979470Y-88260306D01*
X204089291Y-88424664D01*
X204164937Y-88607290D01*
X204203500Y-88801164D01*
X204203500Y-88998836D01*
X204164937Y-89192710D01*
X204089291Y-89375336D01*
X203979470Y-89539694D01*
X203839694Y-89679470D01*
X203675336Y-89789291D01*
X203492710Y-89864937D01*
X203326425Y-89898012D01*
X203298837Y-89903500D01*
X203101163Y-89903500D01*
X203073575Y-89898012D01*
X202907290Y-89864937D01*
X202724664Y-89789291D01*
X202560306Y-89679470D01*
X202420530Y-89539694D01*
X202310709Y-89375336D01*
X202235063Y-89192710D01*
X202196500Y-88998836D01*
X202196500Y-88801164D01*
X202235063Y-88607290D01*
X202310709Y-88424664D01*
X202420530Y-88260306D01*
X202560306Y-88120530D01*
X202724664Y-88010709D01*
X202907290Y-87935063D01*
X203073575Y-87901988D01*
X203101163Y-87896500D01*
X203298837Y-87896500D01*
X203326425Y-87901988D01*
G37*
G36*
X145368674Y-87398465D02*
G01*
X145406367Y-87409899D01*
X145441103Y-87428466D01*
X145471548Y-87453452D01*
X145496534Y-87483897D01*
X145515101Y-87518633D01*
X145526535Y-87556326D01*
X145531000Y-87601661D01*
X145531000Y-88438339D01*
X145526535Y-88483674D01*
X145515101Y-88521367D01*
X145496534Y-88556103D01*
X145471548Y-88586548D01*
X145441103Y-88611534D01*
X145406367Y-88630101D01*
X145368674Y-88641535D01*
X145323339Y-88646000D01*
X144236661Y-88646000D01*
X144191326Y-88641535D01*
X144153633Y-88630101D01*
X144118897Y-88611534D01*
X144088452Y-88586548D01*
X144063466Y-88556103D01*
X144044899Y-88521367D01*
X144033465Y-88483674D01*
X144029000Y-88438339D01*
X144029000Y-87601661D01*
X144033465Y-87556326D01*
X144044899Y-87518633D01*
X144063466Y-87483897D01*
X144088452Y-87453452D01*
X144118897Y-87428466D01*
X144153633Y-87409899D01*
X144191326Y-87398465D01*
X144236661Y-87394000D01*
X145323339Y-87394000D01*
X145368674Y-87398465D01*
G37*
G36*
X170306425Y-85361988D02*
G01*
X170472710Y-85395063D01*
X170655336Y-85470709D01*
X170819694Y-85580530D01*
X170959470Y-85720306D01*
X171069291Y-85884664D01*
X171144937Y-86067290D01*
X171178012Y-86233575D01*
X171183500Y-86261163D01*
X171183500Y-86458837D01*
X171180277Y-86475038D01*
X171144937Y-86652710D01*
X171069291Y-86835336D01*
X170959470Y-86999694D01*
X170819694Y-87139470D01*
X170655336Y-87249291D01*
X170472710Y-87324937D01*
X170306425Y-87358012D01*
X170278837Y-87363500D01*
X170081163Y-87363500D01*
X170053575Y-87358012D01*
X169887290Y-87324937D01*
X169704664Y-87249291D01*
X169540306Y-87139470D01*
X169400530Y-86999694D01*
X169290709Y-86835336D01*
X169215063Y-86652710D01*
X169179723Y-86475038D01*
X169176500Y-86458837D01*
X169176500Y-86261163D01*
X169181988Y-86233575D01*
X169215063Y-86067290D01*
X169290709Y-85884664D01*
X169400530Y-85720306D01*
X169540306Y-85580530D01*
X169704664Y-85470709D01*
X169887290Y-85395063D01*
X170053575Y-85361988D01*
X170081163Y-85356500D01*
X170278837Y-85356500D01*
X170306425Y-85361988D01*
G37*
G36*
X205866425Y-85361988D02*
G01*
X206032710Y-85395063D01*
X206215336Y-85470709D01*
X206379694Y-85580530D01*
X206519470Y-85720306D01*
X206629291Y-85884664D01*
X206704937Y-86067290D01*
X206738012Y-86233575D01*
X206743500Y-86261163D01*
X206743500Y-86458837D01*
X206740277Y-86475038D01*
X206704937Y-86652710D01*
X206629291Y-86835336D01*
X206519470Y-86999694D01*
X206379694Y-87139470D01*
X206215336Y-87249291D01*
X206032710Y-87324937D01*
X205866425Y-87358012D01*
X205838837Y-87363500D01*
X205641163Y-87363500D01*
X205613575Y-87358012D01*
X205447290Y-87324937D01*
X205264664Y-87249291D01*
X205100306Y-87139470D01*
X204960530Y-86999694D01*
X204850709Y-86835336D01*
X204775063Y-86652710D01*
X204739723Y-86475038D01*
X204736500Y-86458837D01*
X204736500Y-86261163D01*
X204741988Y-86233575D01*
X204775063Y-86067290D01*
X204850709Y-85884664D01*
X204960530Y-85720306D01*
X205100306Y-85580530D01*
X205264664Y-85470709D01*
X205447290Y-85395063D01*
X205613575Y-85361988D01*
X205641163Y-85356500D01*
X205838837Y-85356500D01*
X205866425Y-85361988D01*
G37*
G36*
X203326425Y-85361988D02*
G01*
X203492710Y-85395063D01*
X203675336Y-85470709D01*
X203839694Y-85580530D01*
X203979470Y-85720306D01*
X204089291Y-85884664D01*
X204164937Y-86067290D01*
X204198012Y-86233575D01*
X204203500Y-86261163D01*
X204203500Y-86458837D01*
X204200277Y-86475038D01*
X204164937Y-86652710D01*
X204089291Y-86835336D01*
X203979470Y-86999694D01*
X203839694Y-87139470D01*
X203675336Y-87249291D01*
X203492710Y-87324937D01*
X203326425Y-87358012D01*
X203298837Y-87363500D01*
X203101163Y-87363500D01*
X203073575Y-87358012D01*
X202907290Y-87324937D01*
X202724664Y-87249291D01*
X202560306Y-87139470D01*
X202420530Y-86999694D01*
X202310709Y-86835336D01*
X202235063Y-86652710D01*
X202199723Y-86475038D01*
X202196500Y-86458837D01*
X202196500Y-86261163D01*
X202201988Y-86233575D01*
X202235063Y-86067290D01*
X202310709Y-85884664D01*
X202420530Y-85720306D01*
X202560306Y-85580530D01*
X202724664Y-85470709D01*
X202907290Y-85395063D01*
X203073575Y-85361988D01*
X203101163Y-85356500D01*
X203298837Y-85356500D01*
X203326425Y-85361988D01*
G37*
G36*
X177926425Y-85361988D02*
G01*
X178092710Y-85395063D01*
X178275336Y-85470709D01*
X178439694Y-85580530D01*
X178579470Y-85720306D01*
X178689291Y-85884664D01*
X178764937Y-86067290D01*
X178798012Y-86233575D01*
X178803500Y-86261163D01*
X178803500Y-86458837D01*
X178800277Y-86475038D01*
X178764937Y-86652710D01*
X178689291Y-86835336D01*
X178579470Y-86999694D01*
X178439694Y-87139470D01*
X178275336Y-87249291D01*
X178092710Y-87324937D01*
X177926425Y-87358012D01*
X177898837Y-87363500D01*
X177701163Y-87363500D01*
X177673575Y-87358012D01*
X177507290Y-87324937D01*
X177324664Y-87249291D01*
X177160306Y-87139470D01*
X177020530Y-86999694D01*
X176910709Y-86835336D01*
X176835063Y-86652710D01*
X176799723Y-86475038D01*
X176796500Y-86458837D01*
X176796500Y-86261163D01*
X176801988Y-86233575D01*
X176835063Y-86067290D01*
X176910709Y-85884664D01*
X177020530Y-85720306D01*
X177160306Y-85580530D01*
X177324664Y-85470709D01*
X177507290Y-85395063D01*
X177673575Y-85361988D01*
X177701163Y-85356500D01*
X177898837Y-85356500D01*
X177926425Y-85361988D01*
G37*
G36*
X183006425Y-85361988D02*
G01*
X183172710Y-85395063D01*
X183355336Y-85470709D01*
X183519694Y-85580530D01*
X183659470Y-85720306D01*
X183769291Y-85884664D01*
X183844937Y-86067290D01*
X183878012Y-86233575D01*
X183883500Y-86261163D01*
X183883500Y-86458837D01*
X183880277Y-86475038D01*
X183844937Y-86652710D01*
X183769291Y-86835336D01*
X183659470Y-86999694D01*
X183519694Y-87139470D01*
X183355336Y-87249291D01*
X183172710Y-87324937D01*
X183006425Y-87358012D01*
X182978837Y-87363500D01*
X182781163Y-87363500D01*
X182753575Y-87358012D01*
X182587290Y-87324937D01*
X182404664Y-87249291D01*
X182240306Y-87139470D01*
X182100530Y-86999694D01*
X181990709Y-86835336D01*
X181915063Y-86652710D01*
X181879723Y-86475038D01*
X181876500Y-86458837D01*
X181876500Y-86261163D01*
X181881988Y-86233575D01*
X181915063Y-86067290D01*
X181990709Y-85884664D01*
X182100530Y-85720306D01*
X182240306Y-85580530D01*
X182404664Y-85470709D01*
X182587290Y-85395063D01*
X182753575Y-85361988D01*
X182781163Y-85356500D01*
X182978837Y-85356500D01*
X183006425Y-85361988D01*
G37*
G36*
X172846425Y-85361988D02*
G01*
X173012710Y-85395063D01*
X173195336Y-85470709D01*
X173359694Y-85580530D01*
X173499470Y-85720306D01*
X173609291Y-85884664D01*
X173684937Y-86067290D01*
X173718012Y-86233575D01*
X173723500Y-86261163D01*
X173723500Y-86458837D01*
X173720277Y-86475038D01*
X173684937Y-86652710D01*
X173609291Y-86835336D01*
X173499470Y-86999694D01*
X173359694Y-87139470D01*
X173195336Y-87249291D01*
X173012710Y-87324937D01*
X172846425Y-87358012D01*
X172818837Y-87363500D01*
X172621163Y-87363500D01*
X172593575Y-87358012D01*
X172427290Y-87324937D01*
X172244664Y-87249291D01*
X172080306Y-87139470D01*
X171940530Y-86999694D01*
X171830709Y-86835336D01*
X171755063Y-86652710D01*
X171719723Y-86475038D01*
X171716500Y-86458837D01*
X171716500Y-86261163D01*
X171721988Y-86233575D01*
X171755063Y-86067290D01*
X171830709Y-85884664D01*
X171940530Y-85720306D01*
X172080306Y-85580530D01*
X172244664Y-85470709D01*
X172427290Y-85395063D01*
X172593575Y-85361988D01*
X172621163Y-85356500D01*
X172818837Y-85356500D01*
X172846425Y-85361988D01*
G37*
G36*
X200786425Y-85361988D02*
G01*
X200952710Y-85395063D01*
X201135336Y-85470709D01*
X201299694Y-85580530D01*
X201439470Y-85720306D01*
X201549291Y-85884664D01*
X201624937Y-86067290D01*
X201658012Y-86233575D01*
X201663500Y-86261163D01*
X201663500Y-86458837D01*
X201660277Y-86475038D01*
X201624937Y-86652710D01*
X201549291Y-86835336D01*
X201439470Y-86999694D01*
X201299694Y-87139470D01*
X201135336Y-87249291D01*
X200952710Y-87324937D01*
X200786425Y-87358012D01*
X200758837Y-87363500D01*
X200561163Y-87363500D01*
X200533575Y-87358012D01*
X200367290Y-87324937D01*
X200184664Y-87249291D01*
X200020306Y-87139470D01*
X199880530Y-86999694D01*
X199770709Y-86835336D01*
X199695063Y-86652710D01*
X199659723Y-86475038D01*
X199656500Y-86458837D01*
X199656500Y-86261163D01*
X199661988Y-86233575D01*
X199695063Y-86067290D01*
X199770709Y-85884664D01*
X199880530Y-85720306D01*
X200020306Y-85580530D01*
X200184664Y-85470709D01*
X200367290Y-85395063D01*
X200533575Y-85361988D01*
X200561163Y-85356500D01*
X200758837Y-85356500D01*
X200786425Y-85361988D01*
G37*
G36*
X175386425Y-85361988D02*
G01*
X175552710Y-85395063D01*
X175735336Y-85470709D01*
X175899694Y-85580530D01*
X176039470Y-85720306D01*
X176149291Y-85884664D01*
X176224937Y-86067290D01*
X176258012Y-86233575D01*
X176263500Y-86261163D01*
X176263500Y-86458837D01*
X176260277Y-86475038D01*
X176224937Y-86652710D01*
X176149291Y-86835336D01*
X176039470Y-86999694D01*
X175899694Y-87139470D01*
X175735336Y-87249291D01*
X175552710Y-87324937D01*
X175386425Y-87358012D01*
X175358837Y-87363500D01*
X175161163Y-87363500D01*
X175133575Y-87358012D01*
X174967290Y-87324937D01*
X174784664Y-87249291D01*
X174620306Y-87139470D01*
X174480530Y-86999694D01*
X174370709Y-86835336D01*
X174295063Y-86652710D01*
X174259723Y-86475038D01*
X174256500Y-86458837D01*
X174256500Y-86261163D01*
X174261988Y-86233575D01*
X174295063Y-86067290D01*
X174370709Y-85884664D01*
X174480530Y-85720306D01*
X174620306Y-85580530D01*
X174784664Y-85470709D01*
X174967290Y-85395063D01*
X175133575Y-85361988D01*
X175161163Y-85356500D01*
X175358837Y-85356500D01*
X175386425Y-85361988D01*
G37*
G36*
X195706425Y-85361988D02*
G01*
X195872710Y-85395063D01*
X196055336Y-85470709D01*
X196219694Y-85580530D01*
X196359470Y-85720306D01*
X196469291Y-85884664D01*
X196544937Y-86067290D01*
X196578012Y-86233575D01*
X196583500Y-86261163D01*
X196583500Y-86458837D01*
X196580277Y-86475038D01*
X196544937Y-86652710D01*
X196469291Y-86835336D01*
X196359470Y-86999694D01*
X196219694Y-87139470D01*
X196055336Y-87249291D01*
X195872710Y-87324937D01*
X195706425Y-87358012D01*
X195678837Y-87363500D01*
X195481163Y-87363500D01*
X195453575Y-87358012D01*
X195287290Y-87324937D01*
X195104664Y-87249291D01*
X194940306Y-87139470D01*
X194800530Y-86999694D01*
X194690709Y-86835336D01*
X194615063Y-86652710D01*
X194579723Y-86475038D01*
X194576500Y-86458837D01*
X194576500Y-86261163D01*
X194581988Y-86233575D01*
X194615063Y-86067290D01*
X194690709Y-85884664D01*
X194800530Y-85720306D01*
X194940306Y-85580530D01*
X195104664Y-85470709D01*
X195287290Y-85395063D01*
X195453575Y-85361988D01*
X195481163Y-85356500D01*
X195678837Y-85356500D01*
X195706425Y-85361988D01*
G37*
G36*
X198246425Y-85361988D02*
G01*
X198412710Y-85395063D01*
X198595336Y-85470709D01*
X198759694Y-85580530D01*
X198899470Y-85720306D01*
X199009291Y-85884664D01*
X199084937Y-86067290D01*
X199118012Y-86233575D01*
X199123500Y-86261163D01*
X199123500Y-86458837D01*
X199120277Y-86475038D01*
X199084937Y-86652710D01*
X199009291Y-86835336D01*
X198899470Y-86999694D01*
X198759694Y-87139470D01*
X198595336Y-87249291D01*
X198412710Y-87324937D01*
X198246425Y-87358012D01*
X198218837Y-87363500D01*
X198021163Y-87363500D01*
X197993575Y-87358012D01*
X197827290Y-87324937D01*
X197644664Y-87249291D01*
X197480306Y-87139470D01*
X197340530Y-86999694D01*
X197230709Y-86835336D01*
X197155063Y-86652710D01*
X197119723Y-86475038D01*
X197116500Y-86458837D01*
X197116500Y-86261163D01*
X197121988Y-86233575D01*
X197155063Y-86067290D01*
X197230709Y-85884664D01*
X197340530Y-85720306D01*
X197480306Y-85580530D01*
X197644664Y-85470709D01*
X197827290Y-85395063D01*
X197993575Y-85361988D01*
X198021163Y-85356500D01*
X198218837Y-85356500D01*
X198246425Y-85361988D01*
G37*
G36*
X188086425Y-85361988D02*
G01*
X188252710Y-85395063D01*
X188435336Y-85470709D01*
X188599694Y-85580530D01*
X188739470Y-85720306D01*
X188849291Y-85884664D01*
X188924937Y-86067290D01*
X188958012Y-86233575D01*
X188963500Y-86261163D01*
X188963500Y-86458837D01*
X188960277Y-86475038D01*
X188924937Y-86652710D01*
X188849291Y-86835336D01*
X188739470Y-86999694D01*
X188599694Y-87139470D01*
X188435336Y-87249291D01*
X188252710Y-87324937D01*
X188086425Y-87358012D01*
X188058837Y-87363500D01*
X187861163Y-87363500D01*
X187833575Y-87358012D01*
X187667290Y-87324937D01*
X187484664Y-87249291D01*
X187320306Y-87139470D01*
X187180530Y-86999694D01*
X187070709Y-86835336D01*
X186995063Y-86652710D01*
X186959723Y-86475038D01*
X186956500Y-86458837D01*
X186956500Y-86261163D01*
X186961988Y-86233575D01*
X186995063Y-86067290D01*
X187070709Y-85884664D01*
X187180530Y-85720306D01*
X187320306Y-85580530D01*
X187484664Y-85470709D01*
X187667290Y-85395063D01*
X187833575Y-85361988D01*
X187861163Y-85356500D01*
X188058837Y-85356500D01*
X188086425Y-85361988D01*
G37*
G36*
X180466425Y-85361988D02*
G01*
X180632710Y-85395063D01*
X180815336Y-85470709D01*
X180979694Y-85580530D01*
X181119470Y-85720306D01*
X181229291Y-85884664D01*
X181304937Y-86067290D01*
X181338012Y-86233575D01*
X181343500Y-86261163D01*
X181343500Y-86458837D01*
X181340277Y-86475038D01*
X181304937Y-86652710D01*
X181229291Y-86835336D01*
X181119470Y-86999694D01*
X180979694Y-87139470D01*
X180815336Y-87249291D01*
X180632710Y-87324937D01*
X180466425Y-87358012D01*
X180438837Y-87363500D01*
X180241163Y-87363500D01*
X180213575Y-87358012D01*
X180047290Y-87324937D01*
X179864664Y-87249291D01*
X179700306Y-87139470D01*
X179560530Y-86999694D01*
X179450709Y-86835336D01*
X179375063Y-86652710D01*
X179339723Y-86475038D01*
X179336500Y-86458837D01*
X179336500Y-86261163D01*
X179341988Y-86233575D01*
X179375063Y-86067290D01*
X179450709Y-85884664D01*
X179560530Y-85720306D01*
X179700306Y-85580530D01*
X179864664Y-85470709D01*
X180047290Y-85395063D01*
X180213575Y-85361988D01*
X180241163Y-85356500D01*
X180438837Y-85356500D01*
X180466425Y-85361988D01*
G37*
G36*
X185546425Y-85361988D02*
G01*
X185712710Y-85395063D01*
X185895336Y-85470709D01*
X186059694Y-85580530D01*
X186199470Y-85720306D01*
X186309291Y-85884664D01*
X186384937Y-86067290D01*
X186418012Y-86233575D01*
X186423500Y-86261163D01*
X186423500Y-86458837D01*
X186420277Y-86475038D01*
X186384937Y-86652710D01*
X186309291Y-86835336D01*
X186199470Y-86999694D01*
X186059694Y-87139470D01*
X185895336Y-87249291D01*
X185712710Y-87324937D01*
X185546425Y-87358012D01*
X185518837Y-87363500D01*
X185321163Y-87363500D01*
X185293575Y-87358012D01*
X185127290Y-87324937D01*
X184944664Y-87249291D01*
X184780306Y-87139470D01*
X184640530Y-86999694D01*
X184530709Y-86835336D01*
X184455063Y-86652710D01*
X184419723Y-86475038D01*
X184416500Y-86458837D01*
X184416500Y-86261163D01*
X184421988Y-86233575D01*
X184455063Y-86067290D01*
X184530709Y-85884664D01*
X184640530Y-85720306D01*
X184780306Y-85580530D01*
X184944664Y-85470709D01*
X185127290Y-85395063D01*
X185293575Y-85361988D01*
X185321163Y-85356500D01*
X185518837Y-85356500D01*
X185546425Y-85361988D01*
G37*
G36*
X193166425Y-85361988D02*
G01*
X193332710Y-85395063D01*
X193515336Y-85470709D01*
X193679694Y-85580530D01*
X193819470Y-85720306D01*
X193929291Y-85884664D01*
X194004937Y-86067290D01*
X194038012Y-86233575D01*
X194043500Y-86261163D01*
X194043500Y-86458837D01*
X194040277Y-86475038D01*
X194004937Y-86652710D01*
X193929291Y-86835336D01*
X193819470Y-86999694D01*
X193679694Y-87139470D01*
X193515336Y-87249291D01*
X193332710Y-87324937D01*
X193166425Y-87358012D01*
X193138837Y-87363500D01*
X192941163Y-87363500D01*
X192913575Y-87358012D01*
X192747290Y-87324937D01*
X192564664Y-87249291D01*
X192400306Y-87139470D01*
X192260530Y-86999694D01*
X192150709Y-86835336D01*
X192075063Y-86652710D01*
X192039723Y-86475038D01*
X192036500Y-86458837D01*
X192036500Y-86261163D01*
X192041988Y-86233575D01*
X192075063Y-86067290D01*
X192150709Y-85884664D01*
X192260530Y-85720306D01*
X192400306Y-85580530D01*
X192564664Y-85470709D01*
X192747290Y-85395063D01*
X192913575Y-85361988D01*
X192941163Y-85356500D01*
X193138837Y-85356500D01*
X193166425Y-85361988D01*
G37*
G36*
X190626425Y-85361988D02*
G01*
X190792710Y-85395063D01*
X190975336Y-85470709D01*
X191139694Y-85580530D01*
X191279470Y-85720306D01*
X191389291Y-85884664D01*
X191464937Y-86067290D01*
X191498012Y-86233575D01*
X191503500Y-86261163D01*
X191503500Y-86458837D01*
X191500277Y-86475038D01*
X191464937Y-86652710D01*
X191389291Y-86835336D01*
X191279470Y-86999694D01*
X191139694Y-87139470D01*
X190975336Y-87249291D01*
X190792710Y-87324937D01*
X190626425Y-87358012D01*
X190598837Y-87363500D01*
X190401163Y-87363500D01*
X190373575Y-87358012D01*
X190207290Y-87324937D01*
X190024664Y-87249291D01*
X189860306Y-87139470D01*
X189720530Y-86999694D01*
X189610709Y-86835336D01*
X189535063Y-86652710D01*
X189499723Y-86475038D01*
X189496500Y-86458837D01*
X189496500Y-86261163D01*
X189501988Y-86233575D01*
X189535063Y-86067290D01*
X189610709Y-85884664D01*
X189720530Y-85720306D01*
X189860306Y-85580530D01*
X190024664Y-85470709D01*
X190207290Y-85395063D01*
X190373575Y-85361988D01*
X190401163Y-85356500D01*
X190598837Y-85356500D01*
X190626425Y-85361988D01*
G37*
G36*
X150338571Y-85562863D02*
G01*
X150417023Y-85570590D01*
X150517682Y-85601125D01*
X150568013Y-85616392D01*
X150707165Y-85690771D01*
X150829133Y-85790867D01*
X150929229Y-85912835D01*
X151003608Y-86051987D01*
X151003608Y-86051988D01*
X151049410Y-86202977D01*
X151064875Y-86360000D01*
X151049410Y-86517023D01*
X151018875Y-86617682D01*
X151003608Y-86668013D01*
X150929229Y-86807165D01*
X150829133Y-86929133D01*
X150707165Y-87029229D01*
X150568013Y-87103608D01*
X150517682Y-87118875D01*
X150417023Y-87149410D01*
X150338571Y-87157137D01*
X150299346Y-87161000D01*
X149420654Y-87161000D01*
X149381429Y-87157137D01*
X149302977Y-87149410D01*
X149202318Y-87118875D01*
X149151987Y-87103608D01*
X149012835Y-87029229D01*
X148890867Y-86929133D01*
X148790771Y-86807165D01*
X148716392Y-86668013D01*
X148701125Y-86617682D01*
X148670590Y-86517023D01*
X148655125Y-86360000D01*
X148670590Y-86202977D01*
X148716392Y-86051988D01*
X148716392Y-86051987D01*
X148790771Y-85912835D01*
X148890867Y-85790867D01*
X149012835Y-85690771D01*
X149151987Y-85616392D01*
X149202318Y-85601125D01*
X149302977Y-85570590D01*
X149381429Y-85562863D01*
X149420654Y-85559000D01*
X150299346Y-85559000D01*
X150338571Y-85562863D01*
G37*
G36*
X145368674Y-85348465D02*
G01*
X145406367Y-85359899D01*
X145441103Y-85378466D01*
X145471548Y-85403452D01*
X145496534Y-85433897D01*
X145515101Y-85468633D01*
X145526535Y-85506326D01*
X145531000Y-85551661D01*
X145531000Y-86388339D01*
X145526535Y-86433674D01*
X145515101Y-86471367D01*
X145496534Y-86506103D01*
X145471548Y-86536548D01*
X145441103Y-86561534D01*
X145406367Y-86580101D01*
X145368674Y-86591535D01*
X145323339Y-86596000D01*
X144236661Y-86596000D01*
X144191326Y-86591535D01*
X144153633Y-86580101D01*
X144118897Y-86561534D01*
X144088452Y-86536548D01*
X144063466Y-86506103D01*
X144044899Y-86471367D01*
X144033465Y-86433674D01*
X144029000Y-86388339D01*
X144029000Y-85551661D01*
X144033465Y-85506326D01*
X144044899Y-85468633D01*
X144063466Y-85433897D01*
X144088452Y-85403452D01*
X144118897Y-85378466D01*
X144153633Y-85359899D01*
X144191326Y-85348465D01*
X144236661Y-85344000D01*
X145323339Y-85344000D01*
X145368674Y-85348465D01*
G37*
G36*
X188086425Y-82821988D02*
G01*
X188252710Y-82855063D01*
X188435336Y-82930709D01*
X188599694Y-83040530D01*
X188739470Y-83180306D01*
X188849291Y-83344664D01*
X188924937Y-83527290D01*
X188963500Y-83721164D01*
X188963500Y-83918836D01*
X188924937Y-84112710D01*
X188849291Y-84295336D01*
X188739470Y-84459694D01*
X188599694Y-84599470D01*
X188435336Y-84709291D01*
X188252710Y-84784937D01*
X188086425Y-84818012D01*
X188058837Y-84823500D01*
X187861163Y-84823500D01*
X187833575Y-84818012D01*
X187667290Y-84784937D01*
X187484664Y-84709291D01*
X187320306Y-84599470D01*
X187180530Y-84459694D01*
X187070709Y-84295336D01*
X186995063Y-84112710D01*
X186956500Y-83918836D01*
X186956500Y-83721164D01*
X186995063Y-83527290D01*
X187070709Y-83344664D01*
X187180530Y-83180306D01*
X187320306Y-83040530D01*
X187484664Y-82930709D01*
X187667290Y-82855063D01*
X187833575Y-82821988D01*
X187861163Y-82816500D01*
X188058837Y-82816500D01*
X188086425Y-82821988D01*
G37*
G36*
X167766425Y-82821988D02*
G01*
X167932710Y-82855063D01*
X168115336Y-82930709D01*
X168279694Y-83040530D01*
X168419470Y-83180306D01*
X168529291Y-83344664D01*
X168604937Y-83527290D01*
X168643500Y-83721164D01*
X168643500Y-83918836D01*
X168604937Y-84112710D01*
X168529291Y-84295336D01*
X168419470Y-84459694D01*
X168279694Y-84599470D01*
X168115336Y-84709291D01*
X167932710Y-84784937D01*
X167766425Y-84818012D01*
X167738837Y-84823500D01*
X167541163Y-84823500D01*
X167513575Y-84818012D01*
X167347290Y-84784937D01*
X167164664Y-84709291D01*
X167000306Y-84599470D01*
X166860530Y-84459694D01*
X166750709Y-84295336D01*
X166675063Y-84112710D01*
X166636500Y-83918836D01*
X166636500Y-83721164D01*
X166675063Y-83527290D01*
X166750709Y-83344664D01*
X166860530Y-83180306D01*
X167000306Y-83040530D01*
X167164664Y-82930709D01*
X167347290Y-82855063D01*
X167513575Y-82821988D01*
X167541163Y-82816500D01*
X167738837Y-82816500D01*
X167766425Y-82821988D01*
G37*
G36*
X160146425Y-82821988D02*
G01*
X160312710Y-82855063D01*
X160495336Y-82930709D01*
X160659694Y-83040530D01*
X160799470Y-83180306D01*
X160909291Y-83344664D01*
X160984937Y-83527290D01*
X161023500Y-83721164D01*
X161023500Y-83918836D01*
X160984937Y-84112710D01*
X160909291Y-84295336D01*
X160799470Y-84459694D01*
X160659694Y-84599470D01*
X160495336Y-84709291D01*
X160312710Y-84784937D01*
X160146425Y-84818012D01*
X160118837Y-84823500D01*
X159921163Y-84823500D01*
X159893575Y-84818012D01*
X159727290Y-84784937D01*
X159544664Y-84709291D01*
X159380306Y-84599470D01*
X159240530Y-84459694D01*
X159130709Y-84295336D01*
X159055063Y-84112710D01*
X159016500Y-83918836D01*
X159016500Y-83721164D01*
X159055063Y-83527290D01*
X159130709Y-83344664D01*
X159240530Y-83180306D01*
X159380306Y-83040530D01*
X159544664Y-82930709D01*
X159727290Y-82855063D01*
X159893575Y-82821988D01*
X159921163Y-82816500D01*
X160118837Y-82816500D01*
X160146425Y-82821988D01*
G37*
G36*
X185546425Y-82821988D02*
G01*
X185712710Y-82855063D01*
X185895336Y-82930709D01*
X186059694Y-83040530D01*
X186199470Y-83180306D01*
X186309291Y-83344664D01*
X186384937Y-83527290D01*
X186423500Y-83721164D01*
X186423500Y-83918836D01*
X186384937Y-84112710D01*
X186309291Y-84295336D01*
X186199470Y-84459694D01*
X186059694Y-84599470D01*
X185895336Y-84709291D01*
X185712710Y-84784937D01*
X185546425Y-84818012D01*
X185518837Y-84823500D01*
X185321163Y-84823500D01*
X185293575Y-84818012D01*
X185127290Y-84784937D01*
X184944664Y-84709291D01*
X184780306Y-84599470D01*
X184640530Y-84459694D01*
X184530709Y-84295336D01*
X184455063Y-84112710D01*
X184416500Y-83918836D01*
X184416500Y-83721164D01*
X184455063Y-83527290D01*
X184530709Y-83344664D01*
X184640530Y-83180306D01*
X184780306Y-83040530D01*
X184944664Y-82930709D01*
X185127290Y-82855063D01*
X185293575Y-82821988D01*
X185321163Y-82816500D01*
X185518837Y-82816500D01*
X185546425Y-82821988D01*
G37*
G36*
X183006425Y-82821988D02*
G01*
X183172710Y-82855063D01*
X183355336Y-82930709D01*
X183519694Y-83040530D01*
X183659470Y-83180306D01*
X183769291Y-83344664D01*
X183844937Y-83527290D01*
X183883500Y-83721164D01*
X183883500Y-83918836D01*
X183844937Y-84112710D01*
X183769291Y-84295336D01*
X183659470Y-84459694D01*
X183519694Y-84599470D01*
X183355336Y-84709291D01*
X183172710Y-84784937D01*
X183006425Y-84818012D01*
X182978837Y-84823500D01*
X182781163Y-84823500D01*
X182753575Y-84818012D01*
X182587290Y-84784937D01*
X182404664Y-84709291D01*
X182240306Y-84599470D01*
X182100530Y-84459694D01*
X181990709Y-84295336D01*
X181915063Y-84112710D01*
X181876500Y-83918836D01*
X181876500Y-83721164D01*
X181915063Y-83527290D01*
X181990709Y-83344664D01*
X182100530Y-83180306D01*
X182240306Y-83040530D01*
X182404664Y-82930709D01*
X182587290Y-82855063D01*
X182753575Y-82821988D01*
X182781163Y-82816500D01*
X182978837Y-82816500D01*
X183006425Y-82821988D01*
G37*
G36*
X172846425Y-82821988D02*
G01*
X173012710Y-82855063D01*
X173195336Y-82930709D01*
X173359694Y-83040530D01*
X173499470Y-83180306D01*
X173609291Y-83344664D01*
X173684937Y-83527290D01*
X173723500Y-83721164D01*
X173723500Y-83918836D01*
X173684937Y-84112710D01*
X173609291Y-84295336D01*
X173499470Y-84459694D01*
X173359694Y-84599470D01*
X173195336Y-84709291D01*
X173012710Y-84784937D01*
X172846425Y-84818012D01*
X172818837Y-84823500D01*
X172621163Y-84823500D01*
X172593575Y-84818012D01*
X172427290Y-84784937D01*
X172244664Y-84709291D01*
X172080306Y-84599470D01*
X171940530Y-84459694D01*
X171830709Y-84295336D01*
X171755063Y-84112710D01*
X171716500Y-83918836D01*
X171716500Y-83721164D01*
X171755063Y-83527290D01*
X171830709Y-83344664D01*
X171940530Y-83180306D01*
X172080306Y-83040530D01*
X172244664Y-82930709D01*
X172427290Y-82855063D01*
X172593575Y-82821988D01*
X172621163Y-82816500D01*
X172818837Y-82816500D01*
X172846425Y-82821988D01*
G37*
G36*
X180466425Y-82821988D02*
G01*
X180632710Y-82855063D01*
X180815336Y-82930709D01*
X180979694Y-83040530D01*
X181119470Y-83180306D01*
X181229291Y-83344664D01*
X181304937Y-83527290D01*
X181343500Y-83721164D01*
X181343500Y-83918836D01*
X181304937Y-84112710D01*
X181229291Y-84295336D01*
X181119470Y-84459694D01*
X180979694Y-84599470D01*
X180815336Y-84709291D01*
X180632710Y-84784937D01*
X180466425Y-84818012D01*
X180438837Y-84823500D01*
X180241163Y-84823500D01*
X180213575Y-84818012D01*
X180047290Y-84784937D01*
X179864664Y-84709291D01*
X179700306Y-84599470D01*
X179560530Y-84459694D01*
X179450709Y-84295336D01*
X179375063Y-84112710D01*
X179336500Y-83918836D01*
X179336500Y-83721164D01*
X179375063Y-83527290D01*
X179450709Y-83344664D01*
X179560530Y-83180306D01*
X179700306Y-83040530D01*
X179864664Y-82930709D01*
X180047290Y-82855063D01*
X180213575Y-82821988D01*
X180241163Y-82816500D01*
X180438837Y-82816500D01*
X180466425Y-82821988D01*
G37*
G36*
X198246425Y-82821988D02*
G01*
X198412710Y-82855063D01*
X198595336Y-82930709D01*
X198759694Y-83040530D01*
X198899470Y-83180306D01*
X199009291Y-83344664D01*
X199084937Y-83527290D01*
X199123500Y-83721164D01*
X199123500Y-83918836D01*
X199084937Y-84112710D01*
X199009291Y-84295336D01*
X198899470Y-84459694D01*
X198759694Y-84599470D01*
X198595336Y-84709291D01*
X198412710Y-84784937D01*
X198246425Y-84818012D01*
X198218837Y-84823500D01*
X198021163Y-84823500D01*
X197993575Y-84818012D01*
X197827290Y-84784937D01*
X197644664Y-84709291D01*
X197480306Y-84599470D01*
X197340530Y-84459694D01*
X197230709Y-84295336D01*
X197155063Y-84112710D01*
X197116500Y-83918836D01*
X197116500Y-83721164D01*
X197155063Y-83527290D01*
X197230709Y-83344664D01*
X197340530Y-83180306D01*
X197480306Y-83040530D01*
X197644664Y-82930709D01*
X197827290Y-82855063D01*
X197993575Y-82821988D01*
X198021163Y-82816500D01*
X198218837Y-82816500D01*
X198246425Y-82821988D01*
G37*
G36*
X193166425Y-82821988D02*
G01*
X193332710Y-82855063D01*
X193515336Y-82930709D01*
X193679694Y-83040530D01*
X193819470Y-83180306D01*
X193929291Y-83344664D01*
X194004937Y-83527290D01*
X194043500Y-83721164D01*
X194043500Y-83918836D01*
X194004937Y-84112710D01*
X193929291Y-84295336D01*
X193819470Y-84459694D01*
X193679694Y-84599470D01*
X193515336Y-84709291D01*
X193332710Y-84784937D01*
X193166425Y-84818012D01*
X193138837Y-84823500D01*
X192941163Y-84823500D01*
X192913575Y-84818012D01*
X192747290Y-84784937D01*
X192564664Y-84709291D01*
X192400306Y-84599470D01*
X192260530Y-84459694D01*
X192150709Y-84295336D01*
X192075063Y-84112710D01*
X192036500Y-83918836D01*
X192036500Y-83721164D01*
X192075063Y-83527290D01*
X192150709Y-83344664D01*
X192260530Y-83180306D01*
X192400306Y-83040530D01*
X192564664Y-82930709D01*
X192747290Y-82855063D01*
X192913575Y-82821988D01*
X192941163Y-82816500D01*
X193138837Y-82816500D01*
X193166425Y-82821988D01*
G37*
G36*
X203326425Y-82821988D02*
G01*
X203492710Y-82855063D01*
X203675336Y-82930709D01*
X203839694Y-83040530D01*
X203979470Y-83180306D01*
X204089291Y-83344664D01*
X204164937Y-83527290D01*
X204203500Y-83721164D01*
X204203500Y-83918836D01*
X204164937Y-84112710D01*
X204089291Y-84295336D01*
X203979470Y-84459694D01*
X203839694Y-84599470D01*
X203675336Y-84709291D01*
X203492710Y-84784937D01*
X203326425Y-84818012D01*
X203298837Y-84823500D01*
X203101163Y-84823500D01*
X203073575Y-84818012D01*
X202907290Y-84784937D01*
X202724664Y-84709291D01*
X202560306Y-84599470D01*
X202420530Y-84459694D01*
X202310709Y-84295336D01*
X202235063Y-84112710D01*
X202196500Y-83918836D01*
X202196500Y-83721164D01*
X202235063Y-83527290D01*
X202310709Y-83344664D01*
X202420530Y-83180306D01*
X202560306Y-83040530D01*
X202724664Y-82930709D01*
X202907290Y-82855063D01*
X203073575Y-82821988D01*
X203101163Y-82816500D01*
X203298837Y-82816500D01*
X203326425Y-82821988D01*
G37*
G36*
X165226425Y-82821988D02*
G01*
X165392710Y-82855063D01*
X165575336Y-82930709D01*
X165739694Y-83040530D01*
X165879470Y-83180306D01*
X165989291Y-83344664D01*
X166064937Y-83527290D01*
X166103500Y-83721164D01*
X166103500Y-83918836D01*
X166064937Y-84112710D01*
X165989291Y-84295336D01*
X165879470Y-84459694D01*
X165739694Y-84599470D01*
X165575336Y-84709291D01*
X165392710Y-84784937D01*
X165226425Y-84818012D01*
X165198837Y-84823500D01*
X165001163Y-84823500D01*
X164973575Y-84818012D01*
X164807290Y-84784937D01*
X164624664Y-84709291D01*
X164460306Y-84599470D01*
X164320530Y-84459694D01*
X164210709Y-84295336D01*
X164135063Y-84112710D01*
X164096500Y-83918836D01*
X164096500Y-83721164D01*
X164135063Y-83527290D01*
X164210709Y-83344664D01*
X164320530Y-83180306D01*
X164460306Y-83040530D01*
X164624664Y-82930709D01*
X164807290Y-82855063D01*
X164973575Y-82821988D01*
X165001163Y-82816500D01*
X165198837Y-82816500D01*
X165226425Y-82821988D01*
G37*
G36*
X170306425Y-82821988D02*
G01*
X170472710Y-82855063D01*
X170655336Y-82930709D01*
X170819694Y-83040530D01*
X170959470Y-83180306D01*
X171069291Y-83344664D01*
X171144937Y-83527290D01*
X171183500Y-83721164D01*
X171183500Y-83918836D01*
X171144937Y-84112710D01*
X171069291Y-84295336D01*
X170959470Y-84459694D01*
X170819694Y-84599470D01*
X170655336Y-84709291D01*
X170472710Y-84784937D01*
X170306425Y-84818012D01*
X170278837Y-84823500D01*
X170081163Y-84823500D01*
X170053575Y-84818012D01*
X169887290Y-84784937D01*
X169704664Y-84709291D01*
X169540306Y-84599470D01*
X169400530Y-84459694D01*
X169290709Y-84295336D01*
X169215063Y-84112710D01*
X169176500Y-83918836D01*
X169176500Y-83721164D01*
X169215063Y-83527290D01*
X169290709Y-83344664D01*
X169400530Y-83180306D01*
X169540306Y-83040530D01*
X169704664Y-82930709D01*
X169887290Y-82855063D01*
X170053575Y-82821988D01*
X170081163Y-82816500D01*
X170278837Y-82816500D01*
X170306425Y-82821988D01*
G37*
G36*
X195706425Y-82821988D02*
G01*
X195872710Y-82855063D01*
X196055336Y-82930709D01*
X196219694Y-83040530D01*
X196359470Y-83180306D01*
X196469291Y-83344664D01*
X196544937Y-83527290D01*
X196583500Y-83721164D01*
X196583500Y-83918836D01*
X196544937Y-84112710D01*
X196469291Y-84295336D01*
X196359470Y-84459694D01*
X196219694Y-84599470D01*
X196055336Y-84709291D01*
X195872710Y-84784937D01*
X195706425Y-84818012D01*
X195678837Y-84823500D01*
X195481163Y-84823500D01*
X195453575Y-84818012D01*
X195287290Y-84784937D01*
X195104664Y-84709291D01*
X194940306Y-84599470D01*
X194800530Y-84459694D01*
X194690709Y-84295336D01*
X194615063Y-84112710D01*
X194576500Y-83918836D01*
X194576500Y-83721164D01*
X194615063Y-83527290D01*
X194690709Y-83344664D01*
X194800530Y-83180306D01*
X194940306Y-83040530D01*
X195104664Y-82930709D01*
X195287290Y-82855063D01*
X195453575Y-82821988D01*
X195481163Y-82816500D01*
X195678837Y-82816500D01*
X195706425Y-82821988D01*
G37*
G36*
X177926425Y-82821988D02*
G01*
X178092710Y-82855063D01*
X178275336Y-82930709D01*
X178439694Y-83040530D01*
X178579470Y-83180306D01*
X178689291Y-83344664D01*
X178764937Y-83527290D01*
X178803500Y-83721164D01*
X178803500Y-83918836D01*
X178764937Y-84112710D01*
X178689291Y-84295336D01*
X178579470Y-84459694D01*
X178439694Y-84599470D01*
X178275336Y-84709291D01*
X178092710Y-84784937D01*
X177926425Y-84818012D01*
X177898837Y-84823500D01*
X177701163Y-84823500D01*
X177673575Y-84818012D01*
X177507290Y-84784937D01*
X177324664Y-84709291D01*
X177160306Y-84599470D01*
X177020530Y-84459694D01*
X176910709Y-84295336D01*
X176835063Y-84112710D01*
X176796500Y-83918836D01*
X176796500Y-83721164D01*
X176835063Y-83527290D01*
X176910709Y-83344664D01*
X177020530Y-83180306D01*
X177160306Y-83040530D01*
X177324664Y-82930709D01*
X177507290Y-82855063D01*
X177673575Y-82821988D01*
X177701163Y-82816500D01*
X177898837Y-82816500D01*
X177926425Y-82821988D01*
G37*
G36*
X205866425Y-82821988D02*
G01*
X206032710Y-82855063D01*
X206215336Y-82930709D01*
X206379694Y-83040530D01*
X206519470Y-83180306D01*
X206629291Y-83344664D01*
X206704937Y-83527290D01*
X206743500Y-83721164D01*
X206743500Y-83918836D01*
X206704937Y-84112710D01*
X206629291Y-84295336D01*
X206519470Y-84459694D01*
X206379694Y-84599470D01*
X206215336Y-84709291D01*
X206032710Y-84784937D01*
X205866425Y-84818012D01*
X205838837Y-84823500D01*
X205641163Y-84823500D01*
X205613575Y-84818012D01*
X205447290Y-84784937D01*
X205264664Y-84709291D01*
X205100306Y-84599470D01*
X204960530Y-84459694D01*
X204850709Y-84295336D01*
X204775063Y-84112710D01*
X204736500Y-83918836D01*
X204736500Y-83721164D01*
X204775063Y-83527290D01*
X204850709Y-83344664D01*
X204960530Y-83180306D01*
X205100306Y-83040530D01*
X205264664Y-82930709D01*
X205447290Y-82855063D01*
X205613575Y-82821988D01*
X205641163Y-82816500D01*
X205838837Y-82816500D01*
X205866425Y-82821988D01*
G37*
G36*
X175386425Y-82821988D02*
G01*
X175552710Y-82855063D01*
X175735336Y-82930709D01*
X175899694Y-83040530D01*
X176039470Y-83180306D01*
X176149291Y-83344664D01*
X176224937Y-83527290D01*
X176263500Y-83721164D01*
X176263500Y-83918836D01*
X176224937Y-84112710D01*
X176149291Y-84295336D01*
X176039470Y-84459694D01*
X175899694Y-84599470D01*
X175735336Y-84709291D01*
X175552710Y-84784937D01*
X175386425Y-84818012D01*
X175358837Y-84823500D01*
X175161163Y-84823500D01*
X175133575Y-84818012D01*
X174967290Y-84784937D01*
X174784664Y-84709291D01*
X174620306Y-84599470D01*
X174480530Y-84459694D01*
X174370709Y-84295336D01*
X174295063Y-84112710D01*
X174256500Y-83918836D01*
X174256500Y-83721164D01*
X174295063Y-83527290D01*
X174370709Y-83344664D01*
X174480530Y-83180306D01*
X174620306Y-83040530D01*
X174784664Y-82930709D01*
X174967290Y-82855063D01*
X175133575Y-82821988D01*
X175161163Y-82816500D01*
X175358837Y-82816500D01*
X175386425Y-82821988D01*
G37*
G36*
X190626425Y-82821988D02*
G01*
X190792710Y-82855063D01*
X190975336Y-82930709D01*
X191139694Y-83040530D01*
X191279470Y-83180306D01*
X191389291Y-83344664D01*
X191464937Y-83527290D01*
X191503500Y-83721164D01*
X191503500Y-83918836D01*
X191464937Y-84112710D01*
X191389291Y-84295336D01*
X191279470Y-84459694D01*
X191139694Y-84599470D01*
X190975336Y-84709291D01*
X190792710Y-84784937D01*
X190626425Y-84818012D01*
X190598837Y-84823500D01*
X190401163Y-84823500D01*
X190373575Y-84818012D01*
X190207290Y-84784937D01*
X190024664Y-84709291D01*
X189860306Y-84599470D01*
X189720530Y-84459694D01*
X189610709Y-84295336D01*
X189535063Y-84112710D01*
X189496500Y-83918836D01*
X189496500Y-83721164D01*
X189535063Y-83527290D01*
X189610709Y-83344664D01*
X189720530Y-83180306D01*
X189860306Y-83040530D01*
X190024664Y-82930709D01*
X190207290Y-82855063D01*
X190373575Y-82821988D01*
X190401163Y-82816500D01*
X190598837Y-82816500D01*
X190626425Y-82821988D01*
G37*
G36*
X200786425Y-82821988D02*
G01*
X200952710Y-82855063D01*
X201135336Y-82930709D01*
X201299694Y-83040530D01*
X201439470Y-83180306D01*
X201549291Y-83344664D01*
X201624937Y-83527290D01*
X201663500Y-83721164D01*
X201663500Y-83918836D01*
X201624937Y-84112710D01*
X201549291Y-84295336D01*
X201439470Y-84459694D01*
X201299694Y-84599470D01*
X201135336Y-84709291D01*
X200952710Y-84784937D01*
X200786425Y-84818012D01*
X200758837Y-84823500D01*
X200561163Y-84823500D01*
X200533575Y-84818012D01*
X200367290Y-84784937D01*
X200184664Y-84709291D01*
X200020306Y-84599470D01*
X199880530Y-84459694D01*
X199770709Y-84295336D01*
X199695063Y-84112710D01*
X199656500Y-83918836D01*
X199656500Y-83721164D01*
X199695063Y-83527290D01*
X199770709Y-83344664D01*
X199880530Y-83180306D01*
X200020306Y-83040530D01*
X200184664Y-82930709D01*
X200367290Y-82855063D01*
X200533575Y-82821988D01*
X200561163Y-82816500D01*
X200758837Y-82816500D01*
X200786425Y-82821988D01*
G37*
G36*
X162686425Y-82821988D02*
G01*
X162852710Y-82855063D01*
X163035336Y-82930709D01*
X163199694Y-83040530D01*
X163339470Y-83180306D01*
X163449291Y-83344664D01*
X163524937Y-83527290D01*
X163563500Y-83721164D01*
X163563500Y-83918836D01*
X163524937Y-84112710D01*
X163449291Y-84295336D01*
X163339470Y-84459694D01*
X163199694Y-84599470D01*
X163035336Y-84709291D01*
X162852710Y-84784937D01*
X162686425Y-84818012D01*
X162658837Y-84823500D01*
X162461163Y-84823500D01*
X162433575Y-84818012D01*
X162267290Y-84784937D01*
X162084664Y-84709291D01*
X161920306Y-84599470D01*
X161780530Y-84459694D01*
X161670709Y-84295336D01*
X161595063Y-84112710D01*
X161556500Y-83918836D01*
X161556500Y-83721164D01*
X161595063Y-83527290D01*
X161670709Y-83344664D01*
X161780530Y-83180306D01*
X161920306Y-83040530D01*
X162084664Y-82930709D01*
X162267290Y-82855063D01*
X162433575Y-82821988D01*
X162461163Y-82816500D01*
X162658837Y-82816500D01*
X162686425Y-82821988D01*
G37*
G36*
X150338571Y-83022863D02*
G01*
X150417023Y-83030590D01*
X150517682Y-83061125D01*
X150568013Y-83076392D01*
X150707165Y-83150771D01*
X150829133Y-83250867D01*
X150929229Y-83372835D01*
X151003608Y-83511987D01*
X151003608Y-83511988D01*
X151049410Y-83662977D01*
X151064875Y-83820000D01*
X151049410Y-83977023D01*
X151018875Y-84077682D01*
X151003608Y-84128013D01*
X150929229Y-84267165D01*
X150829133Y-84389133D01*
X150707165Y-84489229D01*
X150568013Y-84563608D01*
X150517682Y-84578875D01*
X150417023Y-84609410D01*
X150338571Y-84617137D01*
X150299346Y-84621000D01*
X149420654Y-84621000D01*
X149381429Y-84617137D01*
X149302977Y-84609410D01*
X149202318Y-84578875D01*
X149151987Y-84563608D01*
X149012835Y-84489229D01*
X148890867Y-84389133D01*
X148790771Y-84267165D01*
X148716392Y-84128013D01*
X148701125Y-84077682D01*
X148670590Y-83977023D01*
X148655125Y-83820000D01*
X148670590Y-83662977D01*
X148716392Y-83511988D01*
X148716392Y-83511987D01*
X148790771Y-83372835D01*
X148890867Y-83250867D01*
X149012835Y-83150771D01*
X149151987Y-83076392D01*
X149202318Y-83061125D01*
X149302977Y-83030590D01*
X149381429Y-83022863D01*
X149420654Y-83019000D01*
X150299346Y-83019000D01*
X150338571Y-83022863D01*
G37*
G36*
X128821000Y-83876000D02*
G01*
X127719000Y-83876000D01*
X127719000Y-81224000D01*
X128821000Y-81224000D01*
X128821000Y-83876000D01*
G37*
G36*
X126821000Y-83876000D02*
G01*
X125719000Y-83876000D01*
X125719000Y-81224000D01*
X126821000Y-81224000D01*
X126821000Y-83876000D01*
G37*
G36*
X130821000Y-83876000D02*
G01*
X129719000Y-83876000D01*
X129719000Y-81224000D01*
X130821000Y-81224000D01*
X130821000Y-83876000D01*
G37*
G36*
X145961000Y-83716000D02*
G01*
X143809000Y-83716000D01*
X143809000Y-80114000D01*
X145961000Y-80114000D01*
X145961000Y-83716000D01*
G37*
G36*
X143211000Y-83716000D02*
G01*
X141059000Y-83716000D01*
X141059000Y-80114000D01*
X143211000Y-80114000D01*
X143211000Y-83716000D01*
G37*
G36*
X180466425Y-80281988D02*
G01*
X180632710Y-80315063D01*
X180815336Y-80390709D01*
X180979694Y-80500530D01*
X181119470Y-80640306D01*
X181229291Y-80804664D01*
X181304937Y-80987290D01*
X181343500Y-81181164D01*
X181343500Y-81378836D01*
X181304937Y-81572710D01*
X181229291Y-81755336D01*
X181119470Y-81919694D01*
X180979694Y-82059470D01*
X180815336Y-82169291D01*
X180632710Y-82244937D01*
X180466425Y-82278012D01*
X180438837Y-82283500D01*
X180241163Y-82283500D01*
X180213575Y-82278012D01*
X180047290Y-82244937D01*
X179864664Y-82169291D01*
X179700306Y-82059470D01*
X179560530Y-81919694D01*
X179450709Y-81755336D01*
X179375063Y-81572710D01*
X179336500Y-81378836D01*
X179336500Y-81181164D01*
X179375063Y-80987290D01*
X179450709Y-80804664D01*
X179560530Y-80640306D01*
X179700306Y-80500530D01*
X179864664Y-80390709D01*
X180047290Y-80315063D01*
X180213575Y-80281988D01*
X180241163Y-80276500D01*
X180438837Y-80276500D01*
X180466425Y-80281988D01*
G37*
G36*
X203326425Y-80281988D02*
G01*
X203492710Y-80315063D01*
X203675336Y-80390709D01*
X203839694Y-80500530D01*
X203979470Y-80640306D01*
X204089291Y-80804664D01*
X204164937Y-80987290D01*
X204203500Y-81181164D01*
X204203500Y-81378836D01*
X204164937Y-81572710D01*
X204089291Y-81755336D01*
X203979470Y-81919694D01*
X203839694Y-82059470D01*
X203675336Y-82169291D01*
X203492710Y-82244937D01*
X203326425Y-82278012D01*
X203298837Y-82283500D01*
X203101163Y-82283500D01*
X203073575Y-82278012D01*
X202907290Y-82244937D01*
X202724664Y-82169291D01*
X202560306Y-82059470D01*
X202420530Y-81919694D01*
X202310709Y-81755336D01*
X202235063Y-81572710D01*
X202196500Y-81378836D01*
X202196500Y-81181164D01*
X202235063Y-80987290D01*
X202310709Y-80804664D01*
X202420530Y-80640306D01*
X202560306Y-80500530D01*
X202724664Y-80390709D01*
X202907290Y-80315063D01*
X203073575Y-80281988D01*
X203101163Y-80276500D01*
X203298837Y-80276500D01*
X203326425Y-80281988D01*
G37*
G36*
X205866425Y-80281988D02*
G01*
X206032710Y-80315063D01*
X206215336Y-80390709D01*
X206379694Y-80500530D01*
X206519470Y-80640306D01*
X206629291Y-80804664D01*
X206704937Y-80987290D01*
X206743500Y-81181164D01*
X206743500Y-81378836D01*
X206704937Y-81572710D01*
X206629291Y-81755336D01*
X206519470Y-81919694D01*
X206379694Y-82059470D01*
X206215336Y-82169291D01*
X206032710Y-82244937D01*
X205866425Y-82278012D01*
X205838837Y-82283500D01*
X205641163Y-82283500D01*
X205613575Y-82278012D01*
X205447290Y-82244937D01*
X205264664Y-82169291D01*
X205100306Y-82059470D01*
X204960530Y-81919694D01*
X204850709Y-81755336D01*
X204775063Y-81572710D01*
X204736500Y-81378836D01*
X204736500Y-81181164D01*
X204775063Y-80987290D01*
X204850709Y-80804664D01*
X204960530Y-80640306D01*
X205100306Y-80500530D01*
X205264664Y-80390709D01*
X205447290Y-80315063D01*
X205613575Y-80281988D01*
X205641163Y-80276500D01*
X205838837Y-80276500D01*
X205866425Y-80281988D01*
G37*
G36*
X200786425Y-80281988D02*
G01*
X200952710Y-80315063D01*
X201135336Y-80390709D01*
X201299694Y-80500530D01*
X201439470Y-80640306D01*
X201549291Y-80804664D01*
X201624937Y-80987290D01*
X201663500Y-81181164D01*
X201663500Y-81378836D01*
X201624937Y-81572710D01*
X201549291Y-81755336D01*
X201439470Y-81919694D01*
X201299694Y-82059470D01*
X201135336Y-82169291D01*
X200952710Y-82244937D01*
X200786425Y-82278012D01*
X200758837Y-82283500D01*
X200561163Y-82283500D01*
X200533575Y-82278012D01*
X200367290Y-82244937D01*
X200184664Y-82169291D01*
X200020306Y-82059470D01*
X199880530Y-81919694D01*
X199770709Y-81755336D01*
X199695063Y-81572710D01*
X199656500Y-81378836D01*
X199656500Y-81181164D01*
X199695063Y-80987290D01*
X199770709Y-80804664D01*
X199880530Y-80640306D01*
X200020306Y-80500530D01*
X200184664Y-80390709D01*
X200367290Y-80315063D01*
X200533575Y-80281988D01*
X200561163Y-80276500D01*
X200758837Y-80276500D01*
X200786425Y-80281988D01*
G37*
G36*
X195706425Y-80281988D02*
G01*
X195872710Y-80315063D01*
X196055336Y-80390709D01*
X196219694Y-80500530D01*
X196359470Y-80640306D01*
X196469291Y-80804664D01*
X196544937Y-80987290D01*
X196583500Y-81181164D01*
X196583500Y-81378836D01*
X196544937Y-81572710D01*
X196469291Y-81755336D01*
X196359470Y-81919694D01*
X196219694Y-82059470D01*
X196055336Y-82169291D01*
X195872710Y-82244937D01*
X195706425Y-82278012D01*
X195678837Y-82283500D01*
X195481163Y-82283500D01*
X195453575Y-82278012D01*
X195287290Y-82244937D01*
X195104664Y-82169291D01*
X194940306Y-82059470D01*
X194800530Y-81919694D01*
X194690709Y-81755336D01*
X194615063Y-81572710D01*
X194576500Y-81378836D01*
X194576500Y-81181164D01*
X194615063Y-80987290D01*
X194690709Y-80804664D01*
X194800530Y-80640306D01*
X194940306Y-80500530D01*
X195104664Y-80390709D01*
X195287290Y-80315063D01*
X195453575Y-80281988D01*
X195481163Y-80276500D01*
X195678837Y-80276500D01*
X195706425Y-80281988D01*
G37*
G36*
X198246425Y-80281988D02*
G01*
X198412710Y-80315063D01*
X198595336Y-80390709D01*
X198759694Y-80500530D01*
X198899470Y-80640306D01*
X199009291Y-80804664D01*
X199084937Y-80987290D01*
X199123500Y-81181164D01*
X199123500Y-81378836D01*
X199084937Y-81572710D01*
X199009291Y-81755336D01*
X198899470Y-81919694D01*
X198759694Y-82059470D01*
X198595336Y-82169291D01*
X198412710Y-82244937D01*
X198246425Y-82278012D01*
X198218837Y-82283500D01*
X198021163Y-82283500D01*
X197993575Y-82278012D01*
X197827290Y-82244937D01*
X197644664Y-82169291D01*
X197480306Y-82059470D01*
X197340530Y-81919694D01*
X197230709Y-81755336D01*
X197155063Y-81572710D01*
X197116500Y-81378836D01*
X197116500Y-81181164D01*
X197155063Y-80987290D01*
X197230709Y-80804664D01*
X197340530Y-80640306D01*
X197480306Y-80500530D01*
X197644664Y-80390709D01*
X197827290Y-80315063D01*
X197993575Y-80281988D01*
X198021163Y-80276500D01*
X198218837Y-80276500D01*
X198246425Y-80281988D01*
G37*
G36*
X170306425Y-80281988D02*
G01*
X170472710Y-80315063D01*
X170655336Y-80390709D01*
X170819694Y-80500530D01*
X170959470Y-80640306D01*
X171069291Y-80804664D01*
X171144937Y-80987290D01*
X171183500Y-81181164D01*
X171183500Y-81378836D01*
X171144937Y-81572710D01*
X171069291Y-81755336D01*
X170959470Y-81919694D01*
X170819694Y-82059470D01*
X170655336Y-82169291D01*
X170472710Y-82244937D01*
X170306425Y-82278012D01*
X170278837Y-82283500D01*
X170081163Y-82283500D01*
X170053575Y-82278012D01*
X169887290Y-82244937D01*
X169704664Y-82169291D01*
X169540306Y-82059470D01*
X169400530Y-81919694D01*
X169290709Y-81755336D01*
X169215063Y-81572710D01*
X169176500Y-81378836D01*
X169176500Y-81181164D01*
X169215063Y-80987290D01*
X169290709Y-80804664D01*
X169400530Y-80640306D01*
X169540306Y-80500530D01*
X169704664Y-80390709D01*
X169887290Y-80315063D01*
X170053575Y-80281988D01*
X170081163Y-80276500D01*
X170278837Y-80276500D01*
X170306425Y-80281988D01*
G37*
G36*
X175536425Y-80281988D02*
G01*
X175702710Y-80315063D01*
X175885336Y-80390709D01*
X176049694Y-80500530D01*
X176189470Y-80640306D01*
X176299291Y-80804664D01*
X176374937Y-80987290D01*
X176413500Y-81181164D01*
X176413500Y-81378836D01*
X176374937Y-81572710D01*
X176299291Y-81755336D01*
X176189470Y-81919694D01*
X176049694Y-82059470D01*
X175885336Y-82169291D01*
X175702710Y-82244937D01*
X175536425Y-82278012D01*
X175508837Y-82283500D01*
X175311163Y-82283500D01*
X175283575Y-82278012D01*
X175117290Y-82244937D01*
X174934664Y-82169291D01*
X174770306Y-82059470D01*
X174630530Y-81919694D01*
X174520709Y-81755336D01*
X174445063Y-81572710D01*
X174406500Y-81378836D01*
X174406500Y-81181164D01*
X174445063Y-80987290D01*
X174520709Y-80804664D01*
X174630530Y-80640306D01*
X174770306Y-80500530D01*
X174934664Y-80390709D01*
X175117290Y-80315063D01*
X175283575Y-80281988D01*
X175311163Y-80276500D01*
X175508837Y-80276500D01*
X175536425Y-80281988D01*
G37*
G36*
X177926425Y-80281988D02*
G01*
X178092710Y-80315063D01*
X178275336Y-80390709D01*
X178439694Y-80500530D01*
X178579470Y-80640306D01*
X178689291Y-80804664D01*
X178764937Y-80987290D01*
X178803500Y-81181164D01*
X178803500Y-81378836D01*
X178764937Y-81572710D01*
X178689291Y-81755336D01*
X178579470Y-81919694D01*
X178439694Y-82059470D01*
X178275336Y-82169291D01*
X178092710Y-82244937D01*
X177926425Y-82278012D01*
X177898837Y-82283500D01*
X177701163Y-82283500D01*
X177673575Y-82278012D01*
X177507290Y-82244937D01*
X177324664Y-82169291D01*
X177160306Y-82059470D01*
X177020530Y-81919694D01*
X176910709Y-81755336D01*
X176835063Y-81572710D01*
X176796500Y-81378836D01*
X176796500Y-81181164D01*
X176835063Y-80987290D01*
X176910709Y-80804664D01*
X177020530Y-80640306D01*
X177160306Y-80500530D01*
X177324664Y-80390709D01*
X177507290Y-80315063D01*
X177673575Y-80281988D01*
X177701163Y-80276500D01*
X177898837Y-80276500D01*
X177926425Y-80281988D01*
G37*
G36*
X183006425Y-80281988D02*
G01*
X183172710Y-80315063D01*
X183355336Y-80390709D01*
X183519694Y-80500530D01*
X183659470Y-80640306D01*
X183769291Y-80804664D01*
X183844937Y-80987290D01*
X183883500Y-81181164D01*
X183883500Y-81378836D01*
X183844937Y-81572710D01*
X183769291Y-81755336D01*
X183659470Y-81919694D01*
X183519694Y-82059470D01*
X183355336Y-82169291D01*
X183172710Y-82244937D01*
X183006425Y-82278012D01*
X182978837Y-82283500D01*
X182781163Y-82283500D01*
X182753575Y-82278012D01*
X182587290Y-82244937D01*
X182404664Y-82169291D01*
X182240306Y-82059470D01*
X182100530Y-81919694D01*
X181990709Y-81755336D01*
X181915063Y-81572710D01*
X181876500Y-81378836D01*
X181876500Y-81181164D01*
X181915063Y-80987290D01*
X181990709Y-80804664D01*
X182100530Y-80640306D01*
X182240306Y-80500530D01*
X182404664Y-80390709D01*
X182587290Y-80315063D01*
X182753575Y-80281988D01*
X182781163Y-80276500D01*
X182978837Y-80276500D01*
X183006425Y-80281988D01*
G37*
G36*
X185546425Y-80281988D02*
G01*
X185712710Y-80315063D01*
X185895336Y-80390709D01*
X186059694Y-80500530D01*
X186199470Y-80640306D01*
X186309291Y-80804664D01*
X186384937Y-80987290D01*
X186423500Y-81181164D01*
X186423500Y-81378836D01*
X186384937Y-81572710D01*
X186309291Y-81755336D01*
X186199470Y-81919694D01*
X186059694Y-82059470D01*
X185895336Y-82169291D01*
X185712710Y-82244937D01*
X185546425Y-82278012D01*
X185518837Y-82283500D01*
X185321163Y-82283500D01*
X185293575Y-82278012D01*
X185127290Y-82244937D01*
X184944664Y-82169291D01*
X184780306Y-82059470D01*
X184640530Y-81919694D01*
X184530709Y-81755336D01*
X184455063Y-81572710D01*
X184416500Y-81378836D01*
X184416500Y-81181164D01*
X184455063Y-80987290D01*
X184530709Y-80804664D01*
X184640530Y-80640306D01*
X184780306Y-80500530D01*
X184944664Y-80390709D01*
X185127290Y-80315063D01*
X185293575Y-80281988D01*
X185321163Y-80276500D01*
X185518837Y-80276500D01*
X185546425Y-80281988D01*
G37*
G36*
X188086425Y-80281988D02*
G01*
X188252710Y-80315063D01*
X188435336Y-80390709D01*
X188599694Y-80500530D01*
X188739470Y-80640306D01*
X188849291Y-80804664D01*
X188924937Y-80987290D01*
X188963500Y-81181164D01*
X188963500Y-81378836D01*
X188924937Y-81572710D01*
X188849291Y-81755336D01*
X188739470Y-81919694D01*
X188599694Y-82059470D01*
X188435336Y-82169291D01*
X188252710Y-82244937D01*
X188086425Y-82278012D01*
X188058837Y-82283500D01*
X187861163Y-82283500D01*
X187833575Y-82278012D01*
X187667290Y-82244937D01*
X187484664Y-82169291D01*
X187320306Y-82059470D01*
X187180530Y-81919694D01*
X187070709Y-81755336D01*
X186995063Y-81572710D01*
X186956500Y-81378836D01*
X186956500Y-81181164D01*
X186995063Y-80987290D01*
X187070709Y-80804664D01*
X187180530Y-80640306D01*
X187320306Y-80500530D01*
X187484664Y-80390709D01*
X187667290Y-80315063D01*
X187833575Y-80281988D01*
X187861163Y-80276500D01*
X188058837Y-80276500D01*
X188086425Y-80281988D01*
G37*
G36*
X190626425Y-80281988D02*
G01*
X190792710Y-80315063D01*
X190975336Y-80390709D01*
X191139694Y-80500530D01*
X191279470Y-80640306D01*
X191389291Y-80804664D01*
X191464937Y-80987290D01*
X191503500Y-81181164D01*
X191503500Y-81378836D01*
X191464937Y-81572710D01*
X191389291Y-81755336D01*
X191279470Y-81919694D01*
X191139694Y-82059470D01*
X190975336Y-82169291D01*
X190792710Y-82244937D01*
X190626425Y-82278012D01*
X190598837Y-82283500D01*
X190401163Y-82283500D01*
X190373575Y-82278012D01*
X190207290Y-82244937D01*
X190024664Y-82169291D01*
X189860306Y-82059470D01*
X189720530Y-81919694D01*
X189610709Y-81755336D01*
X189535063Y-81572710D01*
X189496500Y-81378836D01*
X189496500Y-81181164D01*
X189535063Y-80987290D01*
X189610709Y-80804664D01*
X189720530Y-80640306D01*
X189860306Y-80500530D01*
X190024664Y-80390709D01*
X190207290Y-80315063D01*
X190373575Y-80281988D01*
X190401163Y-80276500D01*
X190598837Y-80276500D01*
X190626425Y-80281988D01*
G37*
G36*
X193166425Y-80281988D02*
G01*
X193332710Y-80315063D01*
X193515336Y-80390709D01*
X193679694Y-80500530D01*
X193819470Y-80640306D01*
X193929291Y-80804664D01*
X194004937Y-80987290D01*
X194043500Y-81181164D01*
X194043500Y-81378836D01*
X194004937Y-81572710D01*
X193929291Y-81755336D01*
X193819470Y-81919694D01*
X193679694Y-82059470D01*
X193515336Y-82169291D01*
X193332710Y-82244937D01*
X193166425Y-82278012D01*
X193138837Y-82283500D01*
X192941163Y-82283500D01*
X192913575Y-82278012D01*
X192747290Y-82244937D01*
X192564664Y-82169291D01*
X192400306Y-82059470D01*
X192260530Y-81919694D01*
X192150709Y-81755336D01*
X192075063Y-81572710D01*
X192036500Y-81378836D01*
X192036500Y-81181164D01*
X192075063Y-80987290D01*
X192150709Y-80804664D01*
X192260530Y-80640306D01*
X192400306Y-80500530D01*
X192564664Y-80390709D01*
X192747290Y-80315063D01*
X192913575Y-80281988D01*
X192941163Y-80276500D01*
X193138837Y-80276500D01*
X193166425Y-80281988D01*
G37*
G36*
X172846425Y-80281988D02*
G01*
X173012710Y-80315063D01*
X173195336Y-80390709D01*
X173359694Y-80500530D01*
X173499470Y-80640306D01*
X173609291Y-80804664D01*
X173684937Y-80987290D01*
X173723500Y-81181164D01*
X173723500Y-81378836D01*
X173684937Y-81572710D01*
X173609291Y-81755336D01*
X173499470Y-81919694D01*
X173359694Y-82059470D01*
X173195336Y-82169291D01*
X173012710Y-82244937D01*
X172846425Y-82278012D01*
X172818837Y-82283500D01*
X172621163Y-82283500D01*
X172593575Y-82278012D01*
X172427290Y-82244937D01*
X172244664Y-82169291D01*
X172080306Y-82059470D01*
X171940530Y-81919694D01*
X171830709Y-81755336D01*
X171755063Y-81572710D01*
X171716500Y-81378836D01*
X171716500Y-81181164D01*
X171755063Y-80987290D01*
X171830709Y-80804664D01*
X171940530Y-80640306D01*
X172080306Y-80500530D01*
X172244664Y-80390709D01*
X172427290Y-80315063D01*
X172593575Y-80281988D01*
X172621163Y-80276500D01*
X172818837Y-80276500D01*
X172846425Y-80281988D01*
G37*
G36*
X151061000Y-82081000D02*
G01*
X148659000Y-82081000D01*
X148659000Y-80479000D01*
X151061000Y-80479000D01*
X151061000Y-82081000D01*
G37*
G36*
X124271000Y-79976000D02*
G01*
X122469000Y-79976000D01*
X122469000Y-78174000D01*
X124271000Y-78174000D01*
X124271000Y-79976000D01*
G37*
G36*
X134071000Y-79976000D02*
G01*
X132269000Y-79976000D01*
X132269000Y-78174000D01*
X134071000Y-78174000D01*
X134071000Y-79976000D01*
G37*
M02*
