M48
; DRILL file {KiCad 5.1.5} date Fri 21 Feb 2020 01:37:58 PM CST
; FORMAT={-:-/ absolute / inch / decimal}
; #@! TF.CreationDate,2020-02-21T13:37:58-06:00
; #@! TF.GenerationSoftware,Kicad,Pcbnew,5.1.5
; #@! TF.FileFunction,Plated,1,2,PTH
FMAT,2
INCH
T1C0.0350
T2C0.0394
T3C0.0400
%
G90
G05
T1
X6.7Y-3.7
X7.9Y-3.6
X7.7Y-3.4
X6.9Y-3.8
X7.8Y-3.6
X6.7Y-3.6
X8.1Y-3.6
X7.5Y-3.7
X6.9Y-3.7
X6.8Y-3.6
X7.2Y-3.6
X7.9Y-3.4
X6.8Y-3.7
X7.8Y-3.4
X7.2Y-3.2
X6.7Y-3.5
X7.6Y-3.6
X6.7Y-3.9
X7.4Y-3.7
X7.0Y-3.3
X8.1Y-3.8
X6.9059Y-3.2
X7.7Y-3.3
X7.1Y-3.8
X6.4Y-3.3
X6.7Y-3.8
X8.1Y-3.3
X8.0Y-3.3
X7.3Y-3.2
X7.7Y-3.6
X7.3Y-3.8
X7.2Y-3.3
X8.1Y-3.4
X8.0Y-3.8
X7.2Y-3.9
X7.6Y-3.7
X8.0Y-3.4
X6.9Y-3.3
X7.1Y-3.3
X8.0Y-3.2
X7.4Y-3.5
X7.9Y-3.7
X7.0Y-3.2
X7.4Y-3.4
X6.6Y-3.8
X7.7Y-3.2
X6.3Y-3.3
X7.8Y-3.9
X7.9Y-3.9
X8.1Y-3.2
X7.1Y-3.5
X7.8Y-3.3
X8.1Y-3.9
X7.8Y-3.8
X6.8Y-3.4
X7.9Y-3.3
X7.3Y-3.6
X7.5Y-3.9
X6.9Y-3.6
X7.8Y-3.7
X7.6Y-3.9
X8.0Y-3.9
X7.3Y-3.9
X7.7Y-3.7
X8.1Y-3.5
X7.2Y-3.8
X7.1Y-3.2
X7.5Y-3.6
X7.1Y-3.6
X7.0Y-3.5
X7.6Y-3.4
X7.3Y-3.5
X7.6Y-3.2
X7.4Y-3.3
X7.5Y-3.4
X7.1Y-3.9
X6.9Y-3.4
X7.4Y-3.2
X7.3Y-3.3
X8.0Y-3.5
X7.4Y-3.9
X6.7Y-3.2
X7.6Y-3.8
X7.2Y-3.4
X7.0Y-3.8
X7.5Y-3.8
X7.1Y-3.7
X7.5Y-3.5
X7.7Y-3.9
X7.5Y-3.3
X7.8Y-3.5
X7.6Y-3.3
X7.9Y-3.2
X7.1Y-3.4
X8.0Y-3.7
X7.3Y-3.7
X6.7Y-3.4
X6.8Y-3.5
X6.7Y-3.3
X7.0Y-3.4
X7.9Y-3.5
X6.9Y-3.5
X7.0Y-3.7
X7.7Y-3.8
X7.9Y-3.8
X7.2Y-3.7
X7.0Y-3.6
X6.5Y-3.3
X6.9Y-3.9
X6.8Y-3.2
X7.5Y-3.2
X8.0Y-3.6
X6.8Y-3.3
X7.6Y-3.5
X7.7Y-3.5
X7.2Y-3.5
X6.6Y-3.3
X7.4Y-3.6
X7.0Y-3.9
X7.8Y-3.2
X6.8Y-3.9
X7.3Y-3.4
X7.4Y-3.8
X8.1Y-3.7
X6.8Y-3.8
T2
X5.9Y-3.7
X5.9Y-3.8
X5.9Y-3.9
X5.9Y-3.2
X5.9Y-3.3
X5.9Y-3.4
T3
X6.3Y-3.6
X6.3Y-3.7
X6.3Y-3.8
X6.3Y-3.9
X6.4Y-3.6
X6.4Y-3.7
X6.4Y-3.8
X6.4Y-3.9
T2
G00X5.01Y-3.7106
M15
G01X5.01Y-3.7894
M16
G05
G00X5.0887Y-3.935
M15
G01X5.1675Y-3.935
M16
G05
G00X5.2462Y-3.7106
M15
G01X5.2462Y-3.7894
M16
G05
T0
M30
