G04 #@! TF.GenerationSoftware,KiCad,Pcbnew,5.1.5*
G04 #@! TF.CreationDate,2020-02-21T12:03:57-06:00*
G04 #@! TF.ProjectId,ESP-01_Breakout,4553502d-3031-45f4-9272-65616b6f7574,rev?*
G04 #@! TF.SameCoordinates,Original*
G04 #@! TF.FileFunction,Copper,L1,Top*
G04 #@! TF.FilePolarity,Positive*
%FSLAX46Y46*%
G04 Gerber Fmt 4.6, Leading zero omitted, Abs format (unit mm)*
G04 Created by KiCad (PCBNEW 5.1.5) date 2020-02-21 12:03:57*
%MOMM*%
%LPD*%
G04 APERTURE LIST*
%ADD10C,1.905000*%
%ADD11R,1.727200X1.727200*%
%ADD12O,1.727200X1.727200*%
%ADD13C,2.500000*%
%ADD14C,1.650000*%
%ADD15R,1.650000X1.650000*%
%ADD16O,2.300000X1.500000*%
%ADD17R,2.300000X1.500000*%
%ADD18R,2.050000X3.500000*%
%ADD19C,0.127000*%
%ADD20C,0.762000*%
%ADD21C,0.250000*%
%ADD22C,0.254000*%
G04 APERTURE END LIST*
D10*
X187960000Y-81280000D03*
D11*
X162560000Y-99060000D03*
D12*
X160020000Y-99060000D03*
X162560000Y-96520000D03*
X160020000Y-96520000D03*
X162560000Y-93980000D03*
X160020000Y-93980000D03*
X162560000Y-91440000D03*
X160020000Y-91440000D03*
D10*
X160020000Y-83820000D03*
X167640000Y-83820000D03*
X167640000Y-96520000D03*
X162560000Y-83820000D03*
X165100000Y-83820000D03*
X205740000Y-99060000D03*
X205740000Y-83820000D03*
X170180000Y-91440000D03*
X172720000Y-93980000D03*
X205740000Y-86360000D03*
X205740000Y-88900000D03*
X198120000Y-96520000D03*
X170180000Y-99060000D03*
X172720000Y-99060000D03*
X177800000Y-83820000D03*
X172720000Y-91440000D03*
X170180000Y-93980000D03*
X203200000Y-86360000D03*
X203200000Y-88900000D03*
X182880000Y-96520000D03*
X203200000Y-99060000D03*
X182880000Y-99060000D03*
X175260000Y-83820000D03*
X177800000Y-93980000D03*
X205740000Y-91440000D03*
X198120000Y-88900000D03*
X198120000Y-86360000D03*
X193040000Y-96520000D03*
X185420000Y-99060000D03*
X177800000Y-99060000D03*
X172720000Y-83820000D03*
X175260000Y-93980000D03*
X198120000Y-91440000D03*
X193040000Y-88900000D03*
X195580000Y-86360000D03*
X190500000Y-96520000D03*
X180340000Y-99060000D03*
X170180000Y-83820000D03*
X203200000Y-93980000D03*
X203200000Y-91440000D03*
X190500000Y-88900000D03*
X193040000Y-86360000D03*
X180340000Y-96520000D03*
X175260000Y-99060000D03*
X190500000Y-81280000D03*
X203200000Y-83820000D03*
X182880000Y-93980000D03*
X200660000Y-91440000D03*
X195580000Y-88900000D03*
X187960000Y-86360000D03*
X185420000Y-96520000D03*
X203200000Y-81280000D03*
X193040000Y-81280000D03*
X180340000Y-83820000D03*
X190500000Y-93980000D03*
X195580000Y-91440000D03*
X200660000Y-88900000D03*
X190500000Y-86360000D03*
X200660000Y-96520000D03*
X198120000Y-81280000D03*
X205740000Y-81280000D03*
X193040000Y-83820000D03*
X187960000Y-93980000D03*
X175260000Y-91440000D03*
X187960000Y-88900000D03*
X200660000Y-86360000D03*
X203200000Y-96520000D03*
X200660000Y-81280000D03*
X185420000Y-81280000D03*
X200660000Y-83820000D03*
X193040000Y-93980000D03*
X193040000Y-91440000D03*
X182880000Y-88900000D03*
X182880000Y-86360000D03*
X205740000Y-96520000D03*
X195580000Y-81280000D03*
X182880000Y-81280000D03*
X190500000Y-83820000D03*
X180340000Y-93980000D03*
X190500000Y-91440000D03*
X185420000Y-88900000D03*
X185420000Y-86360000D03*
X177800000Y-96520000D03*
X198120000Y-99060000D03*
X180340000Y-81280000D03*
X187960000Y-83820000D03*
X205740000Y-93980000D03*
X185420000Y-91440000D03*
X180340000Y-88900000D03*
X180340000Y-86360000D03*
X170180000Y-96520000D03*
X170180000Y-81280000D03*
X200660000Y-99060000D03*
X185420000Y-83820000D03*
X195580000Y-93980000D03*
X187960000Y-91440000D03*
X177800000Y-88900000D03*
X175260000Y-86360000D03*
X187960000Y-96520000D03*
X177800000Y-81280000D03*
X195580000Y-99060000D03*
X198120000Y-83820000D03*
X198120000Y-93980000D03*
X177800000Y-91440000D03*
X172720000Y-88900000D03*
X172720000Y-86360000D03*
X172720000Y-96520000D03*
X187960000Y-99060000D03*
X175410000Y-81280000D03*
X182880000Y-83820000D03*
X185420000Y-93980000D03*
X182880000Y-91440000D03*
X170180000Y-88900000D03*
X170180000Y-86360000D03*
X195580000Y-96520000D03*
X190500000Y-99060000D03*
X172720000Y-81280000D03*
X195580000Y-83820000D03*
X200660000Y-93980000D03*
X180340000Y-91440000D03*
X175260000Y-88900000D03*
X177800000Y-86360000D03*
X175260000Y-96520000D03*
X193040000Y-99060000D03*
D13*
X127000000Y-97460000D03*
X127000000Y-92710000D03*
X127000000Y-87960000D03*
D14*
X134620000Y-96520000D03*
D15*
X132080000Y-96520000D03*
D14*
X134620000Y-91440000D03*
D15*
X132080000Y-91440000D03*
D16*
X149860000Y-86360000D03*
X149860000Y-83820000D03*
D17*
X149860000Y-81280000D03*
D16*
X149860000Y-99060000D03*
X149860000Y-96520000D03*
D17*
X149860000Y-93980000D03*
D18*
X144885000Y-92710000D03*
X142135000Y-92710000D03*
X144885000Y-81915000D03*
X142135000Y-81915000D03*
G04 #@! TA.AperFunction,SMDPad,CuDef*
D19*
G36*
X145254505Y-98241204D02*
G01*
X145278773Y-98244804D01*
X145302572Y-98250765D01*
X145325671Y-98259030D01*
X145347850Y-98269520D01*
X145368893Y-98282132D01*
X145388599Y-98296747D01*
X145406777Y-98313223D01*
X145423253Y-98331401D01*
X145437868Y-98351107D01*
X145450480Y-98372150D01*
X145460970Y-98394329D01*
X145469235Y-98417428D01*
X145475196Y-98441227D01*
X145478796Y-98465495D01*
X145480000Y-98489999D01*
X145480000Y-99140001D01*
X145478796Y-99164505D01*
X145475196Y-99188773D01*
X145469235Y-99212572D01*
X145460970Y-99235671D01*
X145450480Y-99257850D01*
X145437868Y-99278893D01*
X145423253Y-99298599D01*
X145406777Y-99316777D01*
X145388599Y-99333253D01*
X145368893Y-99347868D01*
X145347850Y-99360480D01*
X145325671Y-99370970D01*
X145302572Y-99379235D01*
X145278773Y-99385196D01*
X145254505Y-99388796D01*
X145230001Y-99390000D01*
X144329999Y-99390000D01*
X144305495Y-99388796D01*
X144281227Y-99385196D01*
X144257428Y-99379235D01*
X144234329Y-99370970D01*
X144212150Y-99360480D01*
X144191107Y-99347868D01*
X144171401Y-99333253D01*
X144153223Y-99316777D01*
X144136747Y-99298599D01*
X144122132Y-99278893D01*
X144109520Y-99257850D01*
X144099030Y-99235671D01*
X144090765Y-99212572D01*
X144084804Y-99188773D01*
X144081204Y-99164505D01*
X144080000Y-99140001D01*
X144080000Y-98489999D01*
X144081204Y-98465495D01*
X144084804Y-98441227D01*
X144090765Y-98417428D01*
X144099030Y-98394329D01*
X144109520Y-98372150D01*
X144122132Y-98351107D01*
X144136747Y-98331401D01*
X144153223Y-98313223D01*
X144171401Y-98296747D01*
X144191107Y-98282132D01*
X144212150Y-98269520D01*
X144234329Y-98259030D01*
X144257428Y-98250765D01*
X144281227Y-98244804D01*
X144305495Y-98241204D01*
X144329999Y-98240000D01*
X145230001Y-98240000D01*
X145254505Y-98241204D01*
G37*
G04 #@! TD.AperFunction*
G04 #@! TA.AperFunction,SMDPad,CuDef*
G36*
X145254505Y-96191204D02*
G01*
X145278773Y-96194804D01*
X145302572Y-96200765D01*
X145325671Y-96209030D01*
X145347850Y-96219520D01*
X145368893Y-96232132D01*
X145388599Y-96246747D01*
X145406777Y-96263223D01*
X145423253Y-96281401D01*
X145437868Y-96301107D01*
X145450480Y-96322150D01*
X145460970Y-96344329D01*
X145469235Y-96367428D01*
X145475196Y-96391227D01*
X145478796Y-96415495D01*
X145480000Y-96439999D01*
X145480000Y-97090001D01*
X145478796Y-97114505D01*
X145475196Y-97138773D01*
X145469235Y-97162572D01*
X145460970Y-97185671D01*
X145450480Y-97207850D01*
X145437868Y-97228893D01*
X145423253Y-97248599D01*
X145406777Y-97266777D01*
X145388599Y-97283253D01*
X145368893Y-97297868D01*
X145347850Y-97310480D01*
X145325671Y-97320970D01*
X145302572Y-97329235D01*
X145278773Y-97335196D01*
X145254505Y-97338796D01*
X145230001Y-97340000D01*
X144329999Y-97340000D01*
X144305495Y-97338796D01*
X144281227Y-97335196D01*
X144257428Y-97329235D01*
X144234329Y-97320970D01*
X144212150Y-97310480D01*
X144191107Y-97297868D01*
X144171401Y-97283253D01*
X144153223Y-97266777D01*
X144136747Y-97248599D01*
X144122132Y-97228893D01*
X144109520Y-97207850D01*
X144099030Y-97185671D01*
X144090765Y-97162572D01*
X144084804Y-97138773D01*
X144081204Y-97114505D01*
X144080000Y-97090001D01*
X144080000Y-96439999D01*
X144081204Y-96415495D01*
X144084804Y-96391227D01*
X144090765Y-96367428D01*
X144099030Y-96344329D01*
X144109520Y-96322150D01*
X144122132Y-96301107D01*
X144136747Y-96281401D01*
X144153223Y-96263223D01*
X144171401Y-96246747D01*
X144191107Y-96232132D01*
X144212150Y-96219520D01*
X144234329Y-96209030D01*
X144257428Y-96200765D01*
X144281227Y-96194804D01*
X144305495Y-96191204D01*
X144329999Y-96190000D01*
X145230001Y-96190000D01*
X145254505Y-96191204D01*
G37*
G04 #@! TD.AperFunction*
G04 #@! TA.AperFunction,SMDPad,CuDef*
G36*
X145254505Y-87446204D02*
G01*
X145278773Y-87449804D01*
X145302572Y-87455765D01*
X145325671Y-87464030D01*
X145347850Y-87474520D01*
X145368893Y-87487132D01*
X145388599Y-87501747D01*
X145406777Y-87518223D01*
X145423253Y-87536401D01*
X145437868Y-87556107D01*
X145450480Y-87577150D01*
X145460970Y-87599329D01*
X145469235Y-87622428D01*
X145475196Y-87646227D01*
X145478796Y-87670495D01*
X145480000Y-87694999D01*
X145480000Y-88345001D01*
X145478796Y-88369505D01*
X145475196Y-88393773D01*
X145469235Y-88417572D01*
X145460970Y-88440671D01*
X145450480Y-88462850D01*
X145437868Y-88483893D01*
X145423253Y-88503599D01*
X145406777Y-88521777D01*
X145388599Y-88538253D01*
X145368893Y-88552868D01*
X145347850Y-88565480D01*
X145325671Y-88575970D01*
X145302572Y-88584235D01*
X145278773Y-88590196D01*
X145254505Y-88593796D01*
X145230001Y-88595000D01*
X144329999Y-88595000D01*
X144305495Y-88593796D01*
X144281227Y-88590196D01*
X144257428Y-88584235D01*
X144234329Y-88575970D01*
X144212150Y-88565480D01*
X144191107Y-88552868D01*
X144171401Y-88538253D01*
X144153223Y-88521777D01*
X144136747Y-88503599D01*
X144122132Y-88483893D01*
X144109520Y-88462850D01*
X144099030Y-88440671D01*
X144090765Y-88417572D01*
X144084804Y-88393773D01*
X144081204Y-88369505D01*
X144080000Y-88345001D01*
X144080000Y-87694999D01*
X144081204Y-87670495D01*
X144084804Y-87646227D01*
X144090765Y-87622428D01*
X144099030Y-87599329D01*
X144109520Y-87577150D01*
X144122132Y-87556107D01*
X144136747Y-87536401D01*
X144153223Y-87518223D01*
X144171401Y-87501747D01*
X144191107Y-87487132D01*
X144212150Y-87474520D01*
X144234329Y-87464030D01*
X144257428Y-87455765D01*
X144281227Y-87449804D01*
X144305495Y-87446204D01*
X144329999Y-87445000D01*
X145230001Y-87445000D01*
X145254505Y-87446204D01*
G37*
G04 #@! TD.AperFunction*
G04 #@! TA.AperFunction,SMDPad,CuDef*
G36*
X145254505Y-85396204D02*
G01*
X145278773Y-85399804D01*
X145302572Y-85405765D01*
X145325671Y-85414030D01*
X145347850Y-85424520D01*
X145368893Y-85437132D01*
X145388599Y-85451747D01*
X145406777Y-85468223D01*
X145423253Y-85486401D01*
X145437868Y-85506107D01*
X145450480Y-85527150D01*
X145460970Y-85549329D01*
X145469235Y-85572428D01*
X145475196Y-85596227D01*
X145478796Y-85620495D01*
X145480000Y-85644999D01*
X145480000Y-86295001D01*
X145478796Y-86319505D01*
X145475196Y-86343773D01*
X145469235Y-86367572D01*
X145460970Y-86390671D01*
X145450480Y-86412850D01*
X145437868Y-86433893D01*
X145423253Y-86453599D01*
X145406777Y-86471777D01*
X145388599Y-86488253D01*
X145368893Y-86502868D01*
X145347850Y-86515480D01*
X145325671Y-86525970D01*
X145302572Y-86534235D01*
X145278773Y-86540196D01*
X145254505Y-86543796D01*
X145230001Y-86545000D01*
X144329999Y-86545000D01*
X144305495Y-86543796D01*
X144281227Y-86540196D01*
X144257428Y-86534235D01*
X144234329Y-86525970D01*
X144212150Y-86515480D01*
X144191107Y-86502868D01*
X144171401Y-86488253D01*
X144153223Y-86471777D01*
X144136747Y-86453599D01*
X144122132Y-86433893D01*
X144109520Y-86412850D01*
X144099030Y-86390671D01*
X144090765Y-86367572D01*
X144084804Y-86343773D01*
X144081204Y-86319505D01*
X144080000Y-86295001D01*
X144080000Y-85644999D01*
X144081204Y-85620495D01*
X144084804Y-85596227D01*
X144090765Y-85572428D01*
X144099030Y-85549329D01*
X144109520Y-85527150D01*
X144122132Y-85506107D01*
X144136747Y-85486401D01*
X144153223Y-85468223D01*
X144171401Y-85451747D01*
X144191107Y-85437132D01*
X144212150Y-85424520D01*
X144234329Y-85414030D01*
X144257428Y-85405765D01*
X144281227Y-85399804D01*
X144305495Y-85396204D01*
X144329999Y-85395000D01*
X145230001Y-85395000D01*
X145254505Y-85396204D01*
G37*
G04 #@! TD.AperFunction*
G04 #@! TA.AperFunction,SMDPad,CuDef*
G36*
X142714505Y-98241204D02*
G01*
X142738773Y-98244804D01*
X142762572Y-98250765D01*
X142785671Y-98259030D01*
X142807850Y-98269520D01*
X142828893Y-98282132D01*
X142848599Y-98296747D01*
X142866777Y-98313223D01*
X142883253Y-98331401D01*
X142897868Y-98351107D01*
X142910480Y-98372150D01*
X142920970Y-98394329D01*
X142929235Y-98417428D01*
X142935196Y-98441227D01*
X142938796Y-98465495D01*
X142940000Y-98489999D01*
X142940000Y-99140001D01*
X142938796Y-99164505D01*
X142935196Y-99188773D01*
X142929235Y-99212572D01*
X142920970Y-99235671D01*
X142910480Y-99257850D01*
X142897868Y-99278893D01*
X142883253Y-99298599D01*
X142866777Y-99316777D01*
X142848599Y-99333253D01*
X142828893Y-99347868D01*
X142807850Y-99360480D01*
X142785671Y-99370970D01*
X142762572Y-99379235D01*
X142738773Y-99385196D01*
X142714505Y-99388796D01*
X142690001Y-99390000D01*
X141789999Y-99390000D01*
X141765495Y-99388796D01*
X141741227Y-99385196D01*
X141717428Y-99379235D01*
X141694329Y-99370970D01*
X141672150Y-99360480D01*
X141651107Y-99347868D01*
X141631401Y-99333253D01*
X141613223Y-99316777D01*
X141596747Y-99298599D01*
X141582132Y-99278893D01*
X141569520Y-99257850D01*
X141559030Y-99235671D01*
X141550765Y-99212572D01*
X141544804Y-99188773D01*
X141541204Y-99164505D01*
X141540000Y-99140001D01*
X141540000Y-98489999D01*
X141541204Y-98465495D01*
X141544804Y-98441227D01*
X141550765Y-98417428D01*
X141559030Y-98394329D01*
X141569520Y-98372150D01*
X141582132Y-98351107D01*
X141596747Y-98331401D01*
X141613223Y-98313223D01*
X141631401Y-98296747D01*
X141651107Y-98282132D01*
X141672150Y-98269520D01*
X141694329Y-98259030D01*
X141717428Y-98250765D01*
X141741227Y-98244804D01*
X141765495Y-98241204D01*
X141789999Y-98240000D01*
X142690001Y-98240000D01*
X142714505Y-98241204D01*
G37*
G04 #@! TD.AperFunction*
G04 #@! TA.AperFunction,SMDPad,CuDef*
G36*
X142714505Y-96191204D02*
G01*
X142738773Y-96194804D01*
X142762572Y-96200765D01*
X142785671Y-96209030D01*
X142807850Y-96219520D01*
X142828893Y-96232132D01*
X142848599Y-96246747D01*
X142866777Y-96263223D01*
X142883253Y-96281401D01*
X142897868Y-96301107D01*
X142910480Y-96322150D01*
X142920970Y-96344329D01*
X142929235Y-96367428D01*
X142935196Y-96391227D01*
X142938796Y-96415495D01*
X142940000Y-96439999D01*
X142940000Y-97090001D01*
X142938796Y-97114505D01*
X142935196Y-97138773D01*
X142929235Y-97162572D01*
X142920970Y-97185671D01*
X142910480Y-97207850D01*
X142897868Y-97228893D01*
X142883253Y-97248599D01*
X142866777Y-97266777D01*
X142848599Y-97283253D01*
X142828893Y-97297868D01*
X142807850Y-97310480D01*
X142785671Y-97320970D01*
X142762572Y-97329235D01*
X142738773Y-97335196D01*
X142714505Y-97338796D01*
X142690001Y-97340000D01*
X141789999Y-97340000D01*
X141765495Y-97338796D01*
X141741227Y-97335196D01*
X141717428Y-97329235D01*
X141694329Y-97320970D01*
X141672150Y-97310480D01*
X141651107Y-97297868D01*
X141631401Y-97283253D01*
X141613223Y-97266777D01*
X141596747Y-97248599D01*
X141582132Y-97228893D01*
X141569520Y-97207850D01*
X141559030Y-97185671D01*
X141550765Y-97162572D01*
X141544804Y-97138773D01*
X141541204Y-97114505D01*
X141540000Y-97090001D01*
X141540000Y-96439999D01*
X141541204Y-96415495D01*
X141544804Y-96391227D01*
X141550765Y-96367428D01*
X141559030Y-96344329D01*
X141569520Y-96322150D01*
X141582132Y-96301107D01*
X141596747Y-96281401D01*
X141613223Y-96263223D01*
X141631401Y-96246747D01*
X141651107Y-96232132D01*
X141672150Y-96219520D01*
X141694329Y-96209030D01*
X141717428Y-96200765D01*
X141741227Y-96194804D01*
X141765495Y-96191204D01*
X141789999Y-96190000D01*
X142690001Y-96190000D01*
X142714505Y-96191204D01*
G37*
G04 #@! TD.AperFunction*
G04 #@! TA.AperFunction,SMDPad,CuDef*
G36*
X142714505Y-87446204D02*
G01*
X142738773Y-87449804D01*
X142762572Y-87455765D01*
X142785671Y-87464030D01*
X142807850Y-87474520D01*
X142828893Y-87487132D01*
X142848599Y-87501747D01*
X142866777Y-87518223D01*
X142883253Y-87536401D01*
X142897868Y-87556107D01*
X142910480Y-87577150D01*
X142920970Y-87599329D01*
X142929235Y-87622428D01*
X142935196Y-87646227D01*
X142938796Y-87670495D01*
X142940000Y-87694999D01*
X142940000Y-88345001D01*
X142938796Y-88369505D01*
X142935196Y-88393773D01*
X142929235Y-88417572D01*
X142920970Y-88440671D01*
X142910480Y-88462850D01*
X142897868Y-88483893D01*
X142883253Y-88503599D01*
X142866777Y-88521777D01*
X142848599Y-88538253D01*
X142828893Y-88552868D01*
X142807850Y-88565480D01*
X142785671Y-88575970D01*
X142762572Y-88584235D01*
X142738773Y-88590196D01*
X142714505Y-88593796D01*
X142690001Y-88595000D01*
X141789999Y-88595000D01*
X141765495Y-88593796D01*
X141741227Y-88590196D01*
X141717428Y-88584235D01*
X141694329Y-88575970D01*
X141672150Y-88565480D01*
X141651107Y-88552868D01*
X141631401Y-88538253D01*
X141613223Y-88521777D01*
X141596747Y-88503599D01*
X141582132Y-88483893D01*
X141569520Y-88462850D01*
X141559030Y-88440671D01*
X141550765Y-88417572D01*
X141544804Y-88393773D01*
X141541204Y-88369505D01*
X141540000Y-88345001D01*
X141540000Y-87694999D01*
X141541204Y-87670495D01*
X141544804Y-87646227D01*
X141550765Y-87622428D01*
X141559030Y-87599329D01*
X141569520Y-87577150D01*
X141582132Y-87556107D01*
X141596747Y-87536401D01*
X141613223Y-87518223D01*
X141631401Y-87501747D01*
X141651107Y-87487132D01*
X141672150Y-87474520D01*
X141694329Y-87464030D01*
X141717428Y-87455765D01*
X141741227Y-87449804D01*
X141765495Y-87446204D01*
X141789999Y-87445000D01*
X142690001Y-87445000D01*
X142714505Y-87446204D01*
G37*
G04 #@! TD.AperFunction*
G04 #@! TA.AperFunction,SMDPad,CuDef*
G36*
X142714505Y-85396204D02*
G01*
X142738773Y-85399804D01*
X142762572Y-85405765D01*
X142785671Y-85414030D01*
X142807850Y-85424520D01*
X142828893Y-85437132D01*
X142848599Y-85451747D01*
X142866777Y-85468223D01*
X142883253Y-85486401D01*
X142897868Y-85506107D01*
X142910480Y-85527150D01*
X142920970Y-85549329D01*
X142929235Y-85572428D01*
X142935196Y-85596227D01*
X142938796Y-85620495D01*
X142940000Y-85644999D01*
X142940000Y-86295001D01*
X142938796Y-86319505D01*
X142935196Y-86343773D01*
X142929235Y-86367572D01*
X142920970Y-86390671D01*
X142910480Y-86412850D01*
X142897868Y-86433893D01*
X142883253Y-86453599D01*
X142866777Y-86471777D01*
X142848599Y-86488253D01*
X142828893Y-86502868D01*
X142807850Y-86515480D01*
X142785671Y-86525970D01*
X142762572Y-86534235D01*
X142738773Y-86540196D01*
X142714505Y-86543796D01*
X142690001Y-86545000D01*
X141789999Y-86545000D01*
X141765495Y-86543796D01*
X141741227Y-86540196D01*
X141717428Y-86534235D01*
X141694329Y-86525970D01*
X141672150Y-86515480D01*
X141651107Y-86502868D01*
X141631401Y-86488253D01*
X141613223Y-86471777D01*
X141596747Y-86453599D01*
X141582132Y-86433893D01*
X141569520Y-86412850D01*
X141559030Y-86390671D01*
X141550765Y-86367572D01*
X141544804Y-86343773D01*
X141541204Y-86319505D01*
X141540000Y-86295001D01*
X141540000Y-85644999D01*
X141541204Y-85620495D01*
X141544804Y-85596227D01*
X141550765Y-85572428D01*
X141559030Y-85549329D01*
X141569520Y-85527150D01*
X141582132Y-85506107D01*
X141596747Y-85486401D01*
X141613223Y-85468223D01*
X141631401Y-85451747D01*
X141651107Y-85437132D01*
X141672150Y-85424520D01*
X141694329Y-85414030D01*
X141717428Y-85405765D01*
X141741227Y-85399804D01*
X141765495Y-85396204D01*
X141789999Y-85395000D01*
X142690001Y-85395000D01*
X142714505Y-85396204D01*
G37*
G04 #@! TD.AperFunction*
D20*
X142240000Y-98815000D02*
X144780000Y-98815000D01*
X144780000Y-98815000D02*
X145660000Y-98815000D01*
X147948000Y-96520000D02*
X149860000Y-96520000D01*
X145660000Y-98808000D02*
X147948000Y-96520000D01*
X145660000Y-98815000D02*
X145660000Y-98808000D01*
X142240000Y-88020000D02*
X144780000Y-88020000D01*
X144780000Y-88020000D02*
X145660000Y-88020000D01*
X145660000Y-88020000D02*
X145660000Y-88013000D01*
X147948000Y-83820000D02*
X149860000Y-83820000D01*
X147320000Y-84448000D02*
X147948000Y-83820000D01*
X147320000Y-86360000D02*
X147320000Y-84448000D01*
X145660000Y-88020000D02*
X147320000Y-86360000D01*
D21*
X142135000Y-85865000D02*
X142240000Y-85970000D01*
X142135000Y-81915000D02*
X142135000Y-85865000D01*
D20*
X144780000Y-82020000D02*
X144885000Y-81915000D01*
X144780000Y-85970000D02*
X144780000Y-82020000D01*
X146672000Y-81915000D02*
X147307000Y-81280000D01*
X144885000Y-81915000D02*
X146672000Y-81915000D01*
X147307000Y-81280000D02*
X149860000Y-81280000D01*
X144780000Y-96765000D02*
X144780000Y-95885000D01*
X144885000Y-95780000D02*
X144885000Y-92710000D01*
X144780000Y-95885000D02*
X144885000Y-95780000D01*
X147942000Y-93980000D02*
X149860000Y-93980000D01*
X144885000Y-92710000D02*
X146672000Y-92710000D01*
X146672000Y-92710000D02*
X147942000Y-93980000D01*
D22*
X160883599Y-93116401D02*
X160020000Y-93980000D01*
X161210601Y-92789399D02*
X160883599Y-93116401D01*
X165877910Y-86360000D02*
X161210601Y-91027309D01*
X161210601Y-91027309D02*
X161210601Y-92789399D01*
X170180000Y-86360000D02*
X165877910Y-86360000D01*
X160883599Y-95656401D02*
X160020000Y-96520000D01*
X167005000Y-88900000D02*
X163115601Y-92789399D01*
X161210601Y-93567309D02*
X161210601Y-95329399D01*
X170180000Y-88900000D02*
X167005000Y-88900000D01*
X163115601Y-92789399D02*
X161988511Y-92789399D01*
X161210601Y-95329399D02*
X160883599Y-95656401D01*
X161988511Y-92789399D02*
X161210601Y-93567309D01*
D20*
X149860000Y-99060000D02*
X153035000Y-99060000D01*
X153035000Y-99060000D02*
X155575000Y-96520000D01*
X155575000Y-96520000D02*
X155575000Y-88900000D01*
X155575000Y-88900000D02*
X156845000Y-87630000D01*
X162560000Y-84820000D02*
X162560000Y-83820000D01*
X159750000Y-87630000D02*
X162560000Y-84820000D01*
X156845000Y-87630000D02*
X159750000Y-87630000D01*
D22*
X162560000Y-100177600D02*
X162560000Y-99060000D01*
X163347400Y-100965000D02*
X162560000Y-100177600D01*
X205798962Y-100965000D02*
X163347400Y-100965000D01*
X207067001Y-99696961D02*
X205798962Y-100965000D01*
X207067001Y-90227001D02*
X207067001Y-99696961D01*
X205740000Y-88900000D02*
X207067001Y-90227001D01*
X158829399Y-92630601D02*
X159156401Y-92303599D01*
X159156401Y-92303599D02*
X160020000Y-91440000D01*
X158829399Y-99631489D02*
X158829399Y-92630601D01*
X205740000Y-86360000D02*
X207645000Y-88265000D01*
X207645000Y-88265000D02*
X207645000Y-99761028D01*
X160616920Y-101419010D02*
X158829399Y-99631489D01*
X207645000Y-99761028D02*
X205987019Y-101419010D01*
X205987019Y-101419010D02*
X160616920Y-101419010D01*
X165100000Y-93980000D02*
X162560000Y-96520000D01*
X170180000Y-93980000D02*
X165100000Y-93980000D01*
X170180000Y-91440000D02*
X166370000Y-91440000D01*
X163830000Y-93980000D02*
X162560000Y-93980000D01*
X166370000Y-91440000D02*
X163830000Y-93980000D01*
D20*
X134620000Y-96520000D02*
X134620000Y-91440000D01*
X128249999Y-91460001D02*
X127000000Y-92710000D01*
X133213999Y-90033999D02*
X129676001Y-90033999D01*
X129676001Y-90033999D02*
X128249999Y-91460001D01*
X134620000Y-91440000D02*
X133213999Y-90033999D01*
D22*
G36*
X160349955Y-78204012D02*
G01*
X160555988Y-78410045D01*
X160735668Y-78639390D01*
X160886401Y-78888733D01*
X161005974Y-79154414D01*
X161092657Y-79432588D01*
X161145177Y-79719179D01*
X161163000Y-80013832D01*
X161163000Y-82912453D01*
X161121535Y-82898070D01*
X160199605Y-83820000D01*
X160213748Y-83834143D01*
X160034143Y-84013748D01*
X160020000Y-83999605D01*
X159098070Y-84921535D01*
X159188098Y-85181081D01*
X159469616Y-85317224D01*
X159730187Y-85384896D01*
X159605586Y-85440974D01*
X159327412Y-85527657D01*
X159040821Y-85580177D01*
X158746168Y-85598000D01*
X151423137Y-85598000D01*
X151417157Y-85586812D01*
X151244081Y-85375919D01*
X151033188Y-85202843D01*
X150822073Y-85090000D01*
X151033188Y-84977157D01*
X151244081Y-84804081D01*
X151417157Y-84593188D01*
X151545764Y-84352581D01*
X151624960Y-84091507D01*
X151645350Y-83884474D01*
X158426123Y-83884474D01*
X158469328Y-84194185D01*
X158572123Y-84489516D01*
X158658919Y-84651902D01*
X158918465Y-84741930D01*
X159840395Y-83820000D01*
X158918465Y-82898070D01*
X158658919Y-82988098D01*
X158522776Y-83269616D01*
X158444171Y-83572286D01*
X158426123Y-83884474D01*
X151645350Y-83884474D01*
X151651701Y-83820000D01*
X151624960Y-83548493D01*
X151545764Y-83287419D01*
X151417157Y-83046812D01*
X151244081Y-82835919D01*
X151100963Y-82718465D01*
X159098070Y-82718465D01*
X160020000Y-83640395D01*
X160941930Y-82718465D01*
X160851902Y-82458919D01*
X160570384Y-82322776D01*
X160267714Y-82244171D01*
X159955526Y-82226123D01*
X159645815Y-82269328D01*
X159350484Y-82372123D01*
X159188098Y-82458919D01*
X159098070Y-82718465D01*
X151100963Y-82718465D01*
X151036392Y-82665473D01*
X151134482Y-82655812D01*
X151254180Y-82619502D01*
X151364494Y-82560537D01*
X151461185Y-82481185D01*
X151540537Y-82384494D01*
X151599502Y-82274180D01*
X151635812Y-82154482D01*
X151648072Y-82030000D01*
X151648072Y-80530000D01*
X151635812Y-80405518D01*
X151599502Y-80285820D01*
X151540537Y-80175506D01*
X151461185Y-80078815D01*
X151364494Y-79999463D01*
X151254180Y-79940498D01*
X151134482Y-79904188D01*
X151010000Y-79891928D01*
X148710000Y-79891928D01*
X148585518Y-79904188D01*
X148465820Y-79940498D01*
X148355506Y-79999463D01*
X148258815Y-80078815D01*
X148179463Y-80175506D01*
X148132161Y-80264000D01*
X147356902Y-80264000D01*
X147307000Y-80259085D01*
X147257098Y-80264000D01*
X147107829Y-80278702D01*
X146916313Y-80336798D01*
X146739810Y-80431140D01*
X146585104Y-80558104D01*
X146553287Y-80596873D01*
X146548072Y-80602088D01*
X146548072Y-80165000D01*
X146535812Y-80040518D01*
X146499502Y-79920820D01*
X146440537Y-79810506D01*
X146361185Y-79713815D01*
X146264494Y-79634463D01*
X146154180Y-79575498D01*
X146034482Y-79539188D01*
X145910000Y-79526928D01*
X143860000Y-79526928D01*
X143735518Y-79539188D01*
X143615820Y-79575498D01*
X143510000Y-79632061D01*
X143404180Y-79575498D01*
X143284482Y-79539188D01*
X143160000Y-79526928D01*
X142420750Y-79530000D01*
X142262000Y-79688750D01*
X142262000Y-81788000D01*
X142282000Y-81788000D01*
X142282000Y-82042000D01*
X142262000Y-82042000D01*
X142262000Y-84141250D01*
X142420750Y-84300000D01*
X143160000Y-84303072D01*
X143284482Y-84290812D01*
X143404180Y-84254502D01*
X143510000Y-84197939D01*
X143615820Y-84254502D01*
X143735518Y-84290812D01*
X143764000Y-84293617D01*
X143764000Y-84966187D01*
X143702038Y-85017038D01*
X143591595Y-85151613D01*
X143552136Y-85225435D01*
X143529502Y-85150820D01*
X143470537Y-85040506D01*
X143391185Y-84943815D01*
X143294494Y-84864463D01*
X143184180Y-84805498D01*
X143064482Y-84769188D01*
X142940000Y-84756928D01*
X142525750Y-84760000D01*
X142367000Y-84918750D01*
X142367000Y-85843000D01*
X142387000Y-85843000D01*
X142387000Y-86097000D01*
X142367000Y-86097000D01*
X142367000Y-86117000D01*
X142113000Y-86117000D01*
X142113000Y-86097000D01*
X141063750Y-86097000D01*
X140905000Y-86255750D01*
X140901928Y-86545000D01*
X140914188Y-86669482D01*
X140950498Y-86789180D01*
X141009463Y-86899494D01*
X141088815Y-86996185D01*
X141168594Y-87061658D01*
X141162038Y-87067038D01*
X141051595Y-87201613D01*
X140969528Y-87355149D01*
X140918992Y-87521745D01*
X140901928Y-87694999D01*
X140901928Y-88345001D01*
X140918992Y-88518255D01*
X140969528Y-88684851D01*
X141051595Y-88838387D01*
X141162038Y-88972962D01*
X141296613Y-89083405D01*
X141450149Y-89165472D01*
X141616745Y-89216008D01*
X141789999Y-89233072D01*
X142690001Y-89233072D01*
X142748000Y-89227360D01*
X142748000Y-90323640D01*
X142420750Y-90325000D01*
X142262000Y-90483750D01*
X142262000Y-92583000D01*
X142282000Y-92583000D01*
X142282000Y-92837000D01*
X142262000Y-92837000D01*
X142262000Y-94936250D01*
X142420750Y-95095000D01*
X142748000Y-95096360D01*
X142748000Y-95553352D01*
X142525750Y-95555000D01*
X142367000Y-95713750D01*
X142367000Y-96638000D01*
X142387000Y-96638000D01*
X142387000Y-96892000D01*
X142367000Y-96892000D01*
X142367000Y-96912000D01*
X142113000Y-96912000D01*
X142113000Y-96892000D01*
X141063750Y-96892000D01*
X140905000Y-97050750D01*
X140901928Y-97340000D01*
X140914188Y-97464482D01*
X140950498Y-97584180D01*
X141009463Y-97694494D01*
X141088815Y-97791185D01*
X141168594Y-97856658D01*
X141162038Y-97862038D01*
X141051595Y-97996613D01*
X140969528Y-98150149D01*
X140918992Y-98316745D01*
X140901928Y-98489999D01*
X140901928Y-99140001D01*
X140918992Y-99313255D01*
X140969528Y-99479851D01*
X141051595Y-99633387D01*
X141162038Y-99767962D01*
X141296613Y-99878405D01*
X141450149Y-99960472D01*
X141616745Y-100011008D01*
X141789999Y-100028072D01*
X142690001Y-100028072D01*
X142748000Y-100022360D01*
X142748000Y-100326168D01*
X142730177Y-100620821D01*
X142677657Y-100907412D01*
X142590974Y-101185586D01*
X142471401Y-101451267D01*
X142320668Y-101700610D01*
X142140988Y-101929955D01*
X141934955Y-102135988D01*
X141889627Y-102171500D01*
X136875373Y-102171500D01*
X136830045Y-102135988D01*
X136624012Y-101929955D01*
X136444332Y-101700610D01*
X136293599Y-101451267D01*
X136174026Y-101185586D01*
X136087343Y-100907412D01*
X136034823Y-100620821D01*
X136017000Y-100326168D01*
X136017000Y-96962507D01*
X136023893Y-96945866D01*
X136080000Y-96663797D01*
X136080000Y-96376203D01*
X136042962Y-96190000D01*
X140901928Y-96190000D01*
X140905000Y-96479250D01*
X141063750Y-96638000D01*
X142113000Y-96638000D01*
X142113000Y-95713750D01*
X141954250Y-95555000D01*
X141540000Y-95551928D01*
X141415518Y-95564188D01*
X141295820Y-95600498D01*
X141185506Y-95659463D01*
X141088815Y-95738815D01*
X141009463Y-95835506D01*
X140950498Y-95945820D01*
X140914188Y-96065518D01*
X140901928Y-96190000D01*
X136042962Y-96190000D01*
X136023893Y-96094134D01*
X136017000Y-96077493D01*
X136017000Y-94460000D01*
X140471928Y-94460000D01*
X140484188Y-94584482D01*
X140520498Y-94704180D01*
X140579463Y-94814494D01*
X140658815Y-94911185D01*
X140755506Y-94990537D01*
X140865820Y-95049502D01*
X140985518Y-95085812D01*
X141110000Y-95098072D01*
X141849250Y-95095000D01*
X142008000Y-94936250D01*
X142008000Y-92837000D01*
X140633750Y-92837000D01*
X140475000Y-92995750D01*
X140471928Y-94460000D01*
X136017000Y-94460000D01*
X136017000Y-92710000D01*
X136016768Y-92702332D01*
X135998249Y-92396169D01*
X135996401Y-92380944D01*
X135941112Y-92079245D01*
X135939022Y-92070763D01*
X136023893Y-91865866D01*
X136080000Y-91583797D01*
X136080000Y-91296203D01*
X136023893Y-91014134D01*
X136001470Y-90960000D01*
X140471928Y-90960000D01*
X140475000Y-92424250D01*
X140633750Y-92583000D01*
X142008000Y-92583000D01*
X142008000Y-90483750D01*
X141849250Y-90325000D01*
X141110000Y-90321928D01*
X140985518Y-90334188D01*
X140865820Y-90370498D01*
X140755506Y-90429463D01*
X140658815Y-90508815D01*
X140579463Y-90605506D01*
X140520498Y-90715820D01*
X140484188Y-90835518D01*
X140471928Y-90960000D01*
X136001470Y-90960000D01*
X135913835Y-90748431D01*
X135754056Y-90509304D01*
X135550696Y-90305944D01*
X135311569Y-90146165D01*
X135045866Y-90036107D01*
X134763797Y-89980000D01*
X134596840Y-89980000D01*
X133967711Y-89350871D01*
X133935895Y-89312103D01*
X133781189Y-89185139D01*
X133604686Y-89090797D01*
X133413170Y-89032701D01*
X133263901Y-89017999D01*
X133213999Y-89013084D01*
X133164097Y-89017999D01*
X129725894Y-89017999D01*
X129676000Y-89013085D01*
X129626106Y-89017999D01*
X129626099Y-89017999D01*
X129496178Y-89030795D01*
X129476829Y-89032701D01*
X129449752Y-89040915D01*
X129285314Y-89090797D01*
X129108811Y-89185139D01*
X128954105Y-89312103D01*
X128922293Y-89350866D01*
X128230160Y-90043000D01*
X127003832Y-90043000D01*
X126709179Y-90025177D01*
X126422588Y-89972657D01*
X126144414Y-89885974D01*
X125878733Y-89766401D01*
X125629390Y-89615668D01*
X125400045Y-89435988D01*
X125237662Y-89273605D01*
X125866000Y-89273605D01*
X125991914Y-89563577D01*
X126324126Y-89729433D01*
X126682312Y-89827290D01*
X127052706Y-89853389D01*
X127421075Y-89806725D01*
X127773262Y-89689094D01*
X128008086Y-89563577D01*
X128134000Y-89273605D01*
X127000000Y-88139605D01*
X125866000Y-89273605D01*
X125237662Y-89273605D01*
X125194012Y-89229955D01*
X125014332Y-89000610D01*
X124863599Y-88751267D01*
X124744026Y-88485586D01*
X124657343Y-88207412D01*
X124621662Y-88012706D01*
X125106611Y-88012706D01*
X125153275Y-88381075D01*
X125270906Y-88733262D01*
X125396423Y-88968086D01*
X125686395Y-89094000D01*
X126820395Y-87960000D01*
X127179605Y-87960000D01*
X128313605Y-89094000D01*
X128603577Y-88968086D01*
X128769433Y-88635874D01*
X128867290Y-88277688D01*
X128893389Y-87907294D01*
X128846725Y-87538925D01*
X128729094Y-87186738D01*
X128603577Y-86951914D01*
X128313605Y-86826000D01*
X127179605Y-87960000D01*
X126820395Y-87960000D01*
X125686395Y-86826000D01*
X125396423Y-86951914D01*
X125230567Y-87284126D01*
X125132710Y-87642312D01*
X125106611Y-88012706D01*
X124621662Y-88012706D01*
X124604823Y-87920821D01*
X124587000Y-87626168D01*
X124587000Y-86646395D01*
X125866000Y-86646395D01*
X127000000Y-87780395D01*
X128134000Y-86646395D01*
X128008086Y-86356423D01*
X127675874Y-86190567D01*
X127317688Y-86092710D01*
X126947294Y-86066611D01*
X126578925Y-86113275D01*
X126226738Y-86230906D01*
X125991914Y-86356423D01*
X125866000Y-86646395D01*
X124587000Y-86646395D01*
X124587000Y-86146258D01*
X124607913Y-85827180D01*
X124669484Y-85517641D01*
X124711115Y-85395000D01*
X140901928Y-85395000D01*
X140905000Y-85684250D01*
X141063750Y-85843000D01*
X142113000Y-85843000D01*
X142113000Y-84918750D01*
X141954250Y-84760000D01*
X141540000Y-84756928D01*
X141415518Y-84769188D01*
X141295820Y-84805498D01*
X141185506Y-84864463D01*
X141088815Y-84943815D01*
X141009463Y-85040506D01*
X140950498Y-85150820D01*
X140914188Y-85270518D01*
X140901928Y-85395000D01*
X124711115Y-85395000D01*
X124770931Y-85218791D01*
X124910516Y-84935738D01*
X125085853Y-84673330D01*
X125296689Y-84432917D01*
X126064606Y-83665000D01*
X140471928Y-83665000D01*
X140484188Y-83789482D01*
X140520498Y-83909180D01*
X140579463Y-84019494D01*
X140658815Y-84116185D01*
X140755506Y-84195537D01*
X140865820Y-84254502D01*
X140985518Y-84290812D01*
X141110000Y-84303072D01*
X141849250Y-84300000D01*
X142008000Y-84141250D01*
X142008000Y-82042000D01*
X140633750Y-82042000D01*
X140475000Y-82200750D01*
X140471928Y-83665000D01*
X126064606Y-83665000D01*
X129564606Y-80165000D01*
X140471928Y-80165000D01*
X140475000Y-81629250D01*
X140633750Y-81788000D01*
X142008000Y-81788000D01*
X142008000Y-79688750D01*
X141849250Y-79530000D01*
X141110000Y-79526928D01*
X140985518Y-79539188D01*
X140865820Y-79575498D01*
X140755506Y-79634463D01*
X140658815Y-79713815D01*
X140579463Y-79810506D01*
X140520498Y-79920820D01*
X140484188Y-80040518D01*
X140471928Y-80165000D01*
X129564606Y-80165000D01*
X131422917Y-78306689D01*
X131580492Y-78168500D01*
X160304627Y-78168500D01*
X160349955Y-78204012D01*
G37*
X160349955Y-78204012D02*
X160555988Y-78410045D01*
X160735668Y-78639390D01*
X160886401Y-78888733D01*
X161005974Y-79154414D01*
X161092657Y-79432588D01*
X161145177Y-79719179D01*
X161163000Y-80013832D01*
X161163000Y-82912453D01*
X161121535Y-82898070D01*
X160199605Y-83820000D01*
X160213748Y-83834143D01*
X160034143Y-84013748D01*
X160020000Y-83999605D01*
X159098070Y-84921535D01*
X159188098Y-85181081D01*
X159469616Y-85317224D01*
X159730187Y-85384896D01*
X159605586Y-85440974D01*
X159327412Y-85527657D01*
X159040821Y-85580177D01*
X158746168Y-85598000D01*
X151423137Y-85598000D01*
X151417157Y-85586812D01*
X151244081Y-85375919D01*
X151033188Y-85202843D01*
X150822073Y-85090000D01*
X151033188Y-84977157D01*
X151244081Y-84804081D01*
X151417157Y-84593188D01*
X151545764Y-84352581D01*
X151624960Y-84091507D01*
X151645350Y-83884474D01*
X158426123Y-83884474D01*
X158469328Y-84194185D01*
X158572123Y-84489516D01*
X158658919Y-84651902D01*
X158918465Y-84741930D01*
X159840395Y-83820000D01*
X158918465Y-82898070D01*
X158658919Y-82988098D01*
X158522776Y-83269616D01*
X158444171Y-83572286D01*
X158426123Y-83884474D01*
X151645350Y-83884474D01*
X151651701Y-83820000D01*
X151624960Y-83548493D01*
X151545764Y-83287419D01*
X151417157Y-83046812D01*
X151244081Y-82835919D01*
X151100963Y-82718465D01*
X159098070Y-82718465D01*
X160020000Y-83640395D01*
X160941930Y-82718465D01*
X160851902Y-82458919D01*
X160570384Y-82322776D01*
X160267714Y-82244171D01*
X159955526Y-82226123D01*
X159645815Y-82269328D01*
X159350484Y-82372123D01*
X159188098Y-82458919D01*
X159098070Y-82718465D01*
X151100963Y-82718465D01*
X151036392Y-82665473D01*
X151134482Y-82655812D01*
X151254180Y-82619502D01*
X151364494Y-82560537D01*
X151461185Y-82481185D01*
X151540537Y-82384494D01*
X151599502Y-82274180D01*
X151635812Y-82154482D01*
X151648072Y-82030000D01*
X151648072Y-80530000D01*
X151635812Y-80405518D01*
X151599502Y-80285820D01*
X151540537Y-80175506D01*
X151461185Y-80078815D01*
X151364494Y-79999463D01*
X151254180Y-79940498D01*
X151134482Y-79904188D01*
X151010000Y-79891928D01*
X148710000Y-79891928D01*
X148585518Y-79904188D01*
X148465820Y-79940498D01*
X148355506Y-79999463D01*
X148258815Y-80078815D01*
X148179463Y-80175506D01*
X148132161Y-80264000D01*
X147356902Y-80264000D01*
X147307000Y-80259085D01*
X147257098Y-80264000D01*
X147107829Y-80278702D01*
X146916313Y-80336798D01*
X146739810Y-80431140D01*
X146585104Y-80558104D01*
X146553287Y-80596873D01*
X146548072Y-80602088D01*
X146548072Y-80165000D01*
X146535812Y-80040518D01*
X146499502Y-79920820D01*
X146440537Y-79810506D01*
X146361185Y-79713815D01*
X146264494Y-79634463D01*
X146154180Y-79575498D01*
X146034482Y-79539188D01*
X145910000Y-79526928D01*
X143860000Y-79526928D01*
X143735518Y-79539188D01*
X143615820Y-79575498D01*
X143510000Y-79632061D01*
X143404180Y-79575498D01*
X143284482Y-79539188D01*
X143160000Y-79526928D01*
X142420750Y-79530000D01*
X142262000Y-79688750D01*
X142262000Y-81788000D01*
X142282000Y-81788000D01*
X142282000Y-82042000D01*
X142262000Y-82042000D01*
X142262000Y-84141250D01*
X142420750Y-84300000D01*
X143160000Y-84303072D01*
X143284482Y-84290812D01*
X143404180Y-84254502D01*
X143510000Y-84197939D01*
X143615820Y-84254502D01*
X143735518Y-84290812D01*
X143764000Y-84293617D01*
X143764000Y-84966187D01*
X143702038Y-85017038D01*
X143591595Y-85151613D01*
X143552136Y-85225435D01*
X143529502Y-85150820D01*
X143470537Y-85040506D01*
X143391185Y-84943815D01*
X143294494Y-84864463D01*
X143184180Y-84805498D01*
X143064482Y-84769188D01*
X142940000Y-84756928D01*
X142525750Y-84760000D01*
X142367000Y-84918750D01*
X142367000Y-85843000D01*
X142387000Y-85843000D01*
X142387000Y-86097000D01*
X142367000Y-86097000D01*
X142367000Y-86117000D01*
X142113000Y-86117000D01*
X142113000Y-86097000D01*
X141063750Y-86097000D01*
X140905000Y-86255750D01*
X140901928Y-86545000D01*
X140914188Y-86669482D01*
X140950498Y-86789180D01*
X141009463Y-86899494D01*
X141088815Y-86996185D01*
X141168594Y-87061658D01*
X141162038Y-87067038D01*
X141051595Y-87201613D01*
X140969528Y-87355149D01*
X140918992Y-87521745D01*
X140901928Y-87694999D01*
X140901928Y-88345001D01*
X140918992Y-88518255D01*
X140969528Y-88684851D01*
X141051595Y-88838387D01*
X141162038Y-88972962D01*
X141296613Y-89083405D01*
X141450149Y-89165472D01*
X141616745Y-89216008D01*
X141789999Y-89233072D01*
X142690001Y-89233072D01*
X142748000Y-89227360D01*
X142748000Y-90323640D01*
X142420750Y-90325000D01*
X142262000Y-90483750D01*
X142262000Y-92583000D01*
X142282000Y-92583000D01*
X142282000Y-92837000D01*
X142262000Y-92837000D01*
X142262000Y-94936250D01*
X142420750Y-95095000D01*
X142748000Y-95096360D01*
X142748000Y-95553352D01*
X142525750Y-95555000D01*
X142367000Y-95713750D01*
X142367000Y-96638000D01*
X142387000Y-96638000D01*
X142387000Y-96892000D01*
X142367000Y-96892000D01*
X142367000Y-96912000D01*
X142113000Y-96912000D01*
X142113000Y-96892000D01*
X141063750Y-96892000D01*
X140905000Y-97050750D01*
X140901928Y-97340000D01*
X140914188Y-97464482D01*
X140950498Y-97584180D01*
X141009463Y-97694494D01*
X141088815Y-97791185D01*
X141168594Y-97856658D01*
X141162038Y-97862038D01*
X141051595Y-97996613D01*
X140969528Y-98150149D01*
X140918992Y-98316745D01*
X140901928Y-98489999D01*
X140901928Y-99140001D01*
X140918992Y-99313255D01*
X140969528Y-99479851D01*
X141051595Y-99633387D01*
X141162038Y-99767962D01*
X141296613Y-99878405D01*
X141450149Y-99960472D01*
X141616745Y-100011008D01*
X141789999Y-100028072D01*
X142690001Y-100028072D01*
X142748000Y-100022360D01*
X142748000Y-100326168D01*
X142730177Y-100620821D01*
X142677657Y-100907412D01*
X142590974Y-101185586D01*
X142471401Y-101451267D01*
X142320668Y-101700610D01*
X142140988Y-101929955D01*
X141934955Y-102135988D01*
X141889627Y-102171500D01*
X136875373Y-102171500D01*
X136830045Y-102135988D01*
X136624012Y-101929955D01*
X136444332Y-101700610D01*
X136293599Y-101451267D01*
X136174026Y-101185586D01*
X136087343Y-100907412D01*
X136034823Y-100620821D01*
X136017000Y-100326168D01*
X136017000Y-96962507D01*
X136023893Y-96945866D01*
X136080000Y-96663797D01*
X136080000Y-96376203D01*
X136042962Y-96190000D01*
X140901928Y-96190000D01*
X140905000Y-96479250D01*
X141063750Y-96638000D01*
X142113000Y-96638000D01*
X142113000Y-95713750D01*
X141954250Y-95555000D01*
X141540000Y-95551928D01*
X141415518Y-95564188D01*
X141295820Y-95600498D01*
X141185506Y-95659463D01*
X141088815Y-95738815D01*
X141009463Y-95835506D01*
X140950498Y-95945820D01*
X140914188Y-96065518D01*
X140901928Y-96190000D01*
X136042962Y-96190000D01*
X136023893Y-96094134D01*
X136017000Y-96077493D01*
X136017000Y-94460000D01*
X140471928Y-94460000D01*
X140484188Y-94584482D01*
X140520498Y-94704180D01*
X140579463Y-94814494D01*
X140658815Y-94911185D01*
X140755506Y-94990537D01*
X140865820Y-95049502D01*
X140985518Y-95085812D01*
X141110000Y-95098072D01*
X141849250Y-95095000D01*
X142008000Y-94936250D01*
X142008000Y-92837000D01*
X140633750Y-92837000D01*
X140475000Y-92995750D01*
X140471928Y-94460000D01*
X136017000Y-94460000D01*
X136017000Y-92710000D01*
X136016768Y-92702332D01*
X135998249Y-92396169D01*
X135996401Y-92380944D01*
X135941112Y-92079245D01*
X135939022Y-92070763D01*
X136023893Y-91865866D01*
X136080000Y-91583797D01*
X136080000Y-91296203D01*
X136023893Y-91014134D01*
X136001470Y-90960000D01*
X140471928Y-90960000D01*
X140475000Y-92424250D01*
X140633750Y-92583000D01*
X142008000Y-92583000D01*
X142008000Y-90483750D01*
X141849250Y-90325000D01*
X141110000Y-90321928D01*
X140985518Y-90334188D01*
X140865820Y-90370498D01*
X140755506Y-90429463D01*
X140658815Y-90508815D01*
X140579463Y-90605506D01*
X140520498Y-90715820D01*
X140484188Y-90835518D01*
X140471928Y-90960000D01*
X136001470Y-90960000D01*
X135913835Y-90748431D01*
X135754056Y-90509304D01*
X135550696Y-90305944D01*
X135311569Y-90146165D01*
X135045866Y-90036107D01*
X134763797Y-89980000D01*
X134596840Y-89980000D01*
X133967711Y-89350871D01*
X133935895Y-89312103D01*
X133781189Y-89185139D01*
X133604686Y-89090797D01*
X133413170Y-89032701D01*
X133263901Y-89017999D01*
X133213999Y-89013084D01*
X133164097Y-89017999D01*
X129725894Y-89017999D01*
X129676000Y-89013085D01*
X129626106Y-89017999D01*
X129626099Y-89017999D01*
X129496178Y-89030795D01*
X129476829Y-89032701D01*
X129449752Y-89040915D01*
X129285314Y-89090797D01*
X129108811Y-89185139D01*
X128954105Y-89312103D01*
X128922293Y-89350866D01*
X128230160Y-90043000D01*
X127003832Y-90043000D01*
X126709179Y-90025177D01*
X126422588Y-89972657D01*
X126144414Y-89885974D01*
X125878733Y-89766401D01*
X125629390Y-89615668D01*
X125400045Y-89435988D01*
X125237662Y-89273605D01*
X125866000Y-89273605D01*
X125991914Y-89563577D01*
X126324126Y-89729433D01*
X126682312Y-89827290D01*
X127052706Y-89853389D01*
X127421075Y-89806725D01*
X127773262Y-89689094D01*
X128008086Y-89563577D01*
X128134000Y-89273605D01*
X127000000Y-88139605D01*
X125866000Y-89273605D01*
X125237662Y-89273605D01*
X125194012Y-89229955D01*
X125014332Y-89000610D01*
X124863599Y-88751267D01*
X124744026Y-88485586D01*
X124657343Y-88207412D01*
X124621662Y-88012706D01*
X125106611Y-88012706D01*
X125153275Y-88381075D01*
X125270906Y-88733262D01*
X125396423Y-88968086D01*
X125686395Y-89094000D01*
X126820395Y-87960000D01*
X127179605Y-87960000D01*
X128313605Y-89094000D01*
X128603577Y-88968086D01*
X128769433Y-88635874D01*
X128867290Y-88277688D01*
X128893389Y-87907294D01*
X128846725Y-87538925D01*
X128729094Y-87186738D01*
X128603577Y-86951914D01*
X128313605Y-86826000D01*
X127179605Y-87960000D01*
X126820395Y-87960000D01*
X125686395Y-86826000D01*
X125396423Y-86951914D01*
X125230567Y-87284126D01*
X125132710Y-87642312D01*
X125106611Y-88012706D01*
X124621662Y-88012706D01*
X124604823Y-87920821D01*
X124587000Y-87626168D01*
X124587000Y-86646395D01*
X125866000Y-86646395D01*
X127000000Y-87780395D01*
X128134000Y-86646395D01*
X128008086Y-86356423D01*
X127675874Y-86190567D01*
X127317688Y-86092710D01*
X126947294Y-86066611D01*
X126578925Y-86113275D01*
X126226738Y-86230906D01*
X125991914Y-86356423D01*
X125866000Y-86646395D01*
X124587000Y-86646395D01*
X124587000Y-86146258D01*
X124607913Y-85827180D01*
X124669484Y-85517641D01*
X124711115Y-85395000D01*
X140901928Y-85395000D01*
X140905000Y-85684250D01*
X141063750Y-85843000D01*
X142113000Y-85843000D01*
X142113000Y-84918750D01*
X141954250Y-84760000D01*
X141540000Y-84756928D01*
X141415518Y-84769188D01*
X141295820Y-84805498D01*
X141185506Y-84864463D01*
X141088815Y-84943815D01*
X141009463Y-85040506D01*
X140950498Y-85150820D01*
X140914188Y-85270518D01*
X140901928Y-85395000D01*
X124711115Y-85395000D01*
X124770931Y-85218791D01*
X124910516Y-84935738D01*
X125085853Y-84673330D01*
X125296689Y-84432917D01*
X126064606Y-83665000D01*
X140471928Y-83665000D01*
X140484188Y-83789482D01*
X140520498Y-83909180D01*
X140579463Y-84019494D01*
X140658815Y-84116185D01*
X140755506Y-84195537D01*
X140865820Y-84254502D01*
X140985518Y-84290812D01*
X141110000Y-84303072D01*
X141849250Y-84300000D01*
X142008000Y-84141250D01*
X142008000Y-82042000D01*
X140633750Y-82042000D01*
X140475000Y-82200750D01*
X140471928Y-83665000D01*
X126064606Y-83665000D01*
X129564606Y-80165000D01*
X140471928Y-80165000D01*
X140475000Y-81629250D01*
X140633750Y-81788000D01*
X142008000Y-81788000D01*
X142008000Y-79688750D01*
X141849250Y-79530000D01*
X141110000Y-79526928D01*
X140985518Y-79539188D01*
X140865820Y-79575498D01*
X140755506Y-79634463D01*
X140658815Y-79713815D01*
X140579463Y-79810506D01*
X140520498Y-79920820D01*
X140484188Y-80040518D01*
X140471928Y-80165000D01*
X129564606Y-80165000D01*
X131422917Y-78306689D01*
X131580492Y-78168500D01*
X160304627Y-78168500D01*
X160349955Y-78204012D01*
M02*
