G04 #@! TF.GenerationSoftware,KiCad,Pcbnew,5.1.5*
G04 #@! TF.CreationDate,2020-02-21T13:38:03-06:00*
G04 #@! TF.ProjectId,ESP-01_Breakout,4553502d-3031-45f4-9272-65616b6f7574,rev?*
G04 #@! TF.SameCoordinates,Original*
G04 #@! TF.FileFunction,Legend,Bot*
G04 #@! TF.FilePolarity,Positive*
%FSLAX46Y46*%
G04 Gerber Fmt 4.6, Leading zero omitted, Abs format (unit mm)*
G04 Created by KiCad (PCBNEW 5.1.5) date 2020-02-21 13:38:03*
%MOMM*%
%LPD*%
G04 APERTURE LIST*
%ADD10C,0.152400*%
%ADD11C,2.413000*%
%ADD12C,0.304800*%
%ADD13C,0.150000*%
%ADD14C,0.300000*%
%ADD15C,0.203200*%
%ADD16C,0.500000*%
%ADD17R,3.602000X3.602000*%
%ADD18C,0.127000*%
%ADD19C,2.007000*%
%ADD20R,1.829200X1.829200*%
%ADD21O,1.829200X1.829200*%
%ADD22O,2.402000X1.602000*%
%ADD23R,2.402000X1.602000*%
G04 APERTURE END LIST*
D10*
X123087428Y-98657047D02*
X123087428Y-97882952D01*
X123087428Y-92657047D02*
X123087428Y-91882952D01*
X122700380Y-92270000D02*
X123474476Y-92270000D01*
D11*
X167640000Y-83820000D02*
X205740000Y-83820000D01*
X175260000Y-93980000D02*
X205740000Y-93980000D01*
X182880000Y-86360000D02*
X200660000Y-86360000D01*
X170180000Y-88900000D02*
X180340000Y-88900000D01*
X203200000Y-86360000D02*
X205740000Y-86360000D01*
X170180000Y-81280000D02*
X205740000Y-81280000D01*
X170180000Y-99060000D02*
X205740000Y-99060000D01*
X170180000Y-93980000D02*
X172720000Y-93980000D01*
X170180000Y-91440000D02*
X172720000Y-91440000D01*
X175260000Y-91440000D02*
X205740000Y-91440000D01*
X167640000Y-96520000D02*
X205740000Y-96520000D01*
X182880000Y-88900000D02*
X200660000Y-88900000D01*
X170180000Y-86360000D02*
X180340000Y-86360000D01*
X203200000Y-88900000D02*
X205740000Y-88900000D01*
D10*
X137214428Y-83656714D02*
X137214428Y-84273571D01*
X137250714Y-84346142D01*
X137287000Y-84382428D01*
X137359571Y-84418714D01*
X137468428Y-84418714D01*
X137541000Y-84382428D01*
X137214428Y-84128428D02*
X137287000Y-84164714D01*
X137432142Y-84164714D01*
X137504714Y-84128428D01*
X137541000Y-84092142D01*
X137577285Y-84019571D01*
X137577285Y-83801857D01*
X137541000Y-83729285D01*
X137504714Y-83693000D01*
X137432142Y-83656714D01*
X137287000Y-83656714D01*
X137214428Y-83693000D01*
X136561285Y-84128428D02*
X136633857Y-84164714D01*
X136779000Y-84164714D01*
X136851571Y-84128428D01*
X136887857Y-84055857D01*
X136887857Y-83765571D01*
X136851571Y-83693000D01*
X136779000Y-83656714D01*
X136633857Y-83656714D01*
X136561285Y-83693000D01*
X136525000Y-83765571D01*
X136525000Y-83838142D01*
X136887857Y-83910714D01*
X136271000Y-83656714D02*
X135871857Y-83656714D01*
X136271000Y-84164714D01*
X135871857Y-84164714D01*
X135291285Y-84128428D02*
X135363857Y-84164714D01*
X135509000Y-84164714D01*
X135581571Y-84128428D01*
X135617857Y-84055857D01*
X135617857Y-83765571D01*
X135581571Y-83693000D01*
X135509000Y-83656714D01*
X135363857Y-83656714D01*
X135291285Y-83693000D01*
X135255000Y-83765571D01*
X135255000Y-83838142D01*
X135617857Y-83910714D01*
X134928428Y-83656714D02*
X134928428Y-84418714D01*
X134928428Y-83693000D02*
X134855857Y-83656714D01*
X134710714Y-83656714D01*
X134638142Y-83693000D01*
X134601857Y-83729285D01*
X134565571Y-83801857D01*
X134565571Y-84019571D01*
X134601857Y-84092142D01*
X134638142Y-84128428D01*
X134710714Y-84164714D01*
X134855857Y-84164714D01*
X134928428Y-84128428D01*
X134239000Y-84164714D02*
X134239000Y-83656714D01*
X134239000Y-83402714D02*
X134275285Y-83439000D01*
X134239000Y-83475285D01*
X134202714Y-83439000D01*
X134239000Y-83402714D01*
X134239000Y-83475285D01*
D12*
X146304000Y-81171142D02*
X145796000Y-81171142D01*
X145578285Y-81969428D02*
X146304000Y-81969428D01*
X146304000Y-80445428D01*
X145578285Y-80445428D01*
X144997714Y-81896857D02*
X144780000Y-81969428D01*
X144417142Y-81969428D01*
X144272000Y-81896857D01*
X144199428Y-81824285D01*
X144126857Y-81679142D01*
X144126857Y-81534000D01*
X144199428Y-81388857D01*
X144272000Y-81316285D01*
X144417142Y-81243714D01*
X144707428Y-81171142D01*
X144852571Y-81098571D01*
X144925142Y-81026000D01*
X144997714Y-80880857D01*
X144997714Y-80735714D01*
X144925142Y-80590571D01*
X144852571Y-80518000D01*
X144707428Y-80445428D01*
X144344571Y-80445428D01*
X144126857Y-80518000D01*
X143473714Y-81969428D02*
X143473714Y-80445428D01*
X142893142Y-80445428D01*
X142748000Y-80518000D01*
X142675428Y-80590571D01*
X142602857Y-80735714D01*
X142602857Y-80953428D01*
X142675428Y-81098571D01*
X142748000Y-81171142D01*
X142893142Y-81243714D01*
X143473714Y-81243714D01*
X141949714Y-81388857D02*
X140788571Y-81388857D01*
X139772571Y-80445428D02*
X139627428Y-80445428D01*
X139482285Y-80518000D01*
X139409714Y-80590571D01*
X139337142Y-80735714D01*
X139264571Y-81026000D01*
X139264571Y-81388857D01*
X139337142Y-81679142D01*
X139409714Y-81824285D01*
X139482285Y-81896857D01*
X139627428Y-81969428D01*
X139772571Y-81969428D01*
X139917714Y-81896857D01*
X139990285Y-81824285D01*
X140062857Y-81679142D01*
X140135428Y-81388857D01*
X140135428Y-81026000D01*
X140062857Y-80735714D01*
X139990285Y-80590571D01*
X139917714Y-80518000D01*
X139772571Y-80445428D01*
X137813142Y-81969428D02*
X138684000Y-81969428D01*
X138248571Y-81969428D02*
X138248571Y-80445428D01*
X138393714Y-80663142D01*
X138538857Y-80808285D01*
X138684000Y-80880857D01*
X135490857Y-81171142D02*
X135273142Y-81243714D01*
X135200571Y-81316285D01*
X135128000Y-81461428D01*
X135128000Y-81679142D01*
X135200571Y-81824285D01*
X135273142Y-81896857D01*
X135418285Y-81969428D01*
X135998857Y-81969428D01*
X135998857Y-80445428D01*
X135490857Y-80445428D01*
X135345714Y-80518000D01*
X135273142Y-80590571D01*
X135200571Y-80735714D01*
X135200571Y-80880857D01*
X135273142Y-81026000D01*
X135345714Y-81098571D01*
X135490857Y-81171142D01*
X135998857Y-81171142D01*
X134474857Y-81969428D02*
X134474857Y-80953428D01*
X134474857Y-81243714D02*
X134402285Y-81098571D01*
X134329714Y-81026000D01*
X134184571Y-80953428D01*
X134039428Y-80953428D01*
X132950857Y-81896857D02*
X133096000Y-81969428D01*
X133386285Y-81969428D01*
X133531428Y-81896857D01*
X133604000Y-81751714D01*
X133604000Y-81171142D01*
X133531428Y-81026000D01*
X133386285Y-80953428D01*
X133096000Y-80953428D01*
X132950857Y-81026000D01*
X132878285Y-81171142D01*
X132878285Y-81316285D01*
X133604000Y-81461428D01*
X131572000Y-81969428D02*
X131572000Y-81171142D01*
X131644571Y-81026000D01*
X131789714Y-80953428D01*
X132080000Y-80953428D01*
X132225142Y-81026000D01*
X131572000Y-81896857D02*
X131717142Y-81969428D01*
X132080000Y-81969428D01*
X132225142Y-81896857D01*
X132297714Y-81751714D01*
X132297714Y-81606571D01*
X132225142Y-81461428D01*
X132080000Y-81388857D01*
X131717142Y-81388857D01*
X131572000Y-81316285D01*
X130846285Y-81969428D02*
X130846285Y-80445428D01*
X130701142Y-81388857D02*
X130265714Y-81969428D01*
X130265714Y-80953428D02*
X130846285Y-81534000D01*
X129394857Y-81969428D02*
X129540000Y-81896857D01*
X129612571Y-81824285D01*
X129685142Y-81679142D01*
X129685142Y-81243714D01*
X129612571Y-81098571D01*
X129540000Y-81026000D01*
X129394857Y-80953428D01*
X129177142Y-80953428D01*
X129032000Y-81026000D01*
X128959428Y-81098571D01*
X128886857Y-81243714D01*
X128886857Y-81679142D01*
X128959428Y-81824285D01*
X129032000Y-81896857D01*
X129177142Y-81969428D01*
X129394857Y-81969428D01*
X127580571Y-80953428D02*
X127580571Y-81969428D01*
X128233714Y-80953428D02*
X128233714Y-81751714D01*
X128161142Y-81896857D01*
X128016000Y-81969428D01*
X127798285Y-81969428D01*
X127653142Y-81896857D01*
X127580571Y-81824285D01*
X127072571Y-80953428D02*
X126492000Y-80953428D01*
X126854857Y-80445428D02*
X126854857Y-81751714D01*
X126782285Y-81896857D01*
X126637142Y-81969428D01*
X126492000Y-81969428D01*
X124968000Y-80953428D02*
X124605142Y-81969428D01*
X124242285Y-80953428D01*
X122863428Y-81969428D02*
X123734285Y-81969428D01*
X123298857Y-81969428D02*
X123298857Y-80445428D01*
X123444000Y-80663142D01*
X123589142Y-80808285D01*
X123734285Y-80880857D01*
D13*
X159472380Y-80256190D02*
X160472380Y-80589523D01*
X159472380Y-80922857D01*
X160472380Y-81256190D02*
X159805714Y-81256190D01*
X159472380Y-81256190D02*
X159520000Y-81208571D01*
X159567619Y-81256190D01*
X159520000Y-81303809D01*
X159472380Y-81256190D01*
X159567619Y-81256190D01*
X159805714Y-81732380D02*
X160472380Y-81732380D01*
X159900952Y-81732380D02*
X159853333Y-81780000D01*
X159805714Y-81875238D01*
X159805714Y-82018095D01*
X159853333Y-82113333D01*
X159948571Y-82160952D01*
X160472380Y-82160952D01*
X164552380Y-80089523D02*
X164552380Y-80708571D01*
X164933333Y-80375238D01*
X164933333Y-80518095D01*
X164980952Y-80613333D01*
X165028571Y-80660952D01*
X165123809Y-80708571D01*
X165361904Y-80708571D01*
X165457142Y-80660952D01*
X165504761Y-80613333D01*
X165552380Y-80518095D01*
X165552380Y-80232380D01*
X165504761Y-80137142D01*
X165457142Y-80089523D01*
X164885714Y-81041904D02*
X165552380Y-81280000D01*
X164885714Y-81518095D01*
X164552380Y-81803809D02*
X164552380Y-82422857D01*
X164933333Y-82089523D01*
X164933333Y-82232380D01*
X164980952Y-82327619D01*
X165028571Y-82375238D01*
X165123809Y-82422857D01*
X165361904Y-82422857D01*
X165457142Y-82375238D01*
X165504761Y-82327619D01*
X165552380Y-82232380D01*
X165552380Y-81946666D01*
X165504761Y-81851428D01*
X165457142Y-81803809D01*
X162012380Y-81137142D02*
X162012380Y-80660952D01*
X162488571Y-80613333D01*
X162440952Y-80660952D01*
X162393333Y-80756190D01*
X162393333Y-80994285D01*
X162440952Y-81089523D01*
X162488571Y-81137142D01*
X162583809Y-81184761D01*
X162821904Y-81184761D01*
X162917142Y-81137142D01*
X162964761Y-81089523D01*
X163012380Y-80994285D01*
X163012380Y-80756190D01*
X162964761Y-80660952D01*
X162917142Y-80613333D01*
X162345714Y-81518095D02*
X163012380Y-81756190D01*
X162345714Y-81994285D01*
D14*
X208109285Y-85681428D02*
X207609285Y-86395714D01*
X207252142Y-85681428D02*
X207252142Y-87181428D01*
X207823571Y-87181428D01*
X207966428Y-87110000D01*
X208037857Y-87038571D01*
X208109285Y-86895714D01*
X208109285Y-86681428D01*
X208037857Y-86538571D01*
X207966428Y-86467142D01*
X207823571Y-86395714D01*
X207252142Y-86395714D01*
X207216428Y-89721428D02*
X208073571Y-89721428D01*
X207645000Y-88221428D02*
X207645000Y-89721428D01*
D10*
X167083619Y-90980380D02*
X166744952Y-91464190D01*
X166503047Y-90980380D02*
X166503047Y-91996380D01*
X166890095Y-91996380D01*
X166986857Y-91948000D01*
X167035238Y-91899619D01*
X167083619Y-91802857D01*
X167083619Y-91657714D01*
X167035238Y-91560952D01*
X166986857Y-91512571D01*
X166890095Y-91464190D01*
X166503047Y-91464190D01*
X167470666Y-91028761D02*
X167615809Y-90980380D01*
X167857714Y-90980380D01*
X167954476Y-91028761D01*
X168002857Y-91077142D01*
X168051238Y-91173904D01*
X168051238Y-91270666D01*
X168002857Y-91367428D01*
X167954476Y-91415809D01*
X167857714Y-91464190D01*
X167664190Y-91512571D01*
X167567428Y-91560952D01*
X167519047Y-91609333D01*
X167470666Y-91706095D01*
X167470666Y-91802857D01*
X167519047Y-91899619D01*
X167567428Y-91948000D01*
X167664190Y-91996380D01*
X167906095Y-91996380D01*
X168051238Y-91948000D01*
X168341523Y-91996380D02*
X168922095Y-91996380D01*
X168631809Y-90980380D02*
X168631809Y-91996380D01*
X166890095Y-94052571D02*
X167228761Y-94052571D01*
X167373904Y-93520380D02*
X166890095Y-93520380D01*
X166890095Y-94536380D01*
X167373904Y-94536380D01*
X167809333Y-93520380D02*
X167809333Y-94536380D01*
X168389904Y-93520380D01*
X168389904Y-94536380D01*
X166624000Y-88440380D02*
X166624000Y-89456380D01*
X167301333Y-89456380D02*
X167494857Y-89456380D01*
X167591619Y-89408000D01*
X167688380Y-89311238D01*
X167736761Y-89117714D01*
X167736761Y-88779047D01*
X167688380Y-88585523D01*
X167591619Y-88488761D01*
X167494857Y-88440380D01*
X167301333Y-88440380D01*
X167204571Y-88488761D01*
X167107809Y-88585523D01*
X167059428Y-88779047D01*
X167059428Y-89117714D01*
X167107809Y-89311238D01*
X167204571Y-89408000D01*
X167301333Y-89456380D01*
X168704380Y-88440380D02*
X168123809Y-88440380D01*
X168414095Y-88440380D02*
X168414095Y-89456380D01*
X168317333Y-89311238D01*
X168220571Y-89214476D01*
X168123809Y-89166095D01*
X166624000Y-85900380D02*
X166624000Y-86916380D01*
X167301333Y-86916380D02*
X167494857Y-86916380D01*
X167591619Y-86868000D01*
X167688380Y-86771238D01*
X167736761Y-86577714D01*
X167736761Y-86239047D01*
X167688380Y-86045523D01*
X167591619Y-85948761D01*
X167494857Y-85900380D01*
X167301333Y-85900380D01*
X167204571Y-85948761D01*
X167107809Y-86045523D01*
X167059428Y-86239047D01*
X167059428Y-86577714D01*
X167107809Y-86771238D01*
X167204571Y-86868000D01*
X167301333Y-86916380D01*
X168365714Y-86916380D02*
X168462476Y-86916380D01*
X168559238Y-86868000D01*
X168607619Y-86819619D01*
X168656000Y-86722857D01*
X168704380Y-86529333D01*
X168704380Y-86287428D01*
X168656000Y-86093904D01*
X168607619Y-85997142D01*
X168559238Y-85948761D01*
X168462476Y-85900380D01*
X168365714Y-85900380D01*
X168268952Y-85948761D01*
X168220571Y-85997142D01*
X168172190Y-86093904D01*
X168123809Y-86287428D01*
X168123809Y-86529333D01*
X168172190Y-86722857D01*
X168220571Y-86819619D01*
X168268952Y-86868000D01*
X168365714Y-86916380D01*
D15*
X133495142Y-90605428D02*
X133785428Y-90605428D01*
X133930571Y-90678000D01*
X134003142Y-90750571D01*
X134148285Y-90968285D01*
X134220857Y-91258571D01*
X134220857Y-91839142D01*
X134148285Y-91984285D01*
X134075714Y-92056857D01*
X133930571Y-92129428D01*
X133640285Y-92129428D01*
X133495142Y-92056857D01*
X133422571Y-91984285D01*
X133350000Y-91839142D01*
X133350000Y-91476285D01*
X133422571Y-91331142D01*
X133495142Y-91258571D01*
X133640285Y-91186000D01*
X133930571Y-91186000D01*
X134075714Y-91258571D01*
X134148285Y-91331142D01*
X134220857Y-91476285D01*
X132696857Y-91548857D02*
X131535714Y-91548857D01*
X130882571Y-90750571D02*
X130810000Y-90678000D01*
X130664857Y-90605428D01*
X130302000Y-90605428D01*
X130156857Y-90678000D01*
X130084285Y-90750571D01*
X130011714Y-90895714D01*
X130011714Y-91040857D01*
X130084285Y-91258571D01*
X130955142Y-92129428D01*
X130011714Y-92129428D01*
X129140857Y-91258571D02*
X129286000Y-91186000D01*
X129358571Y-91113428D01*
X129431142Y-90968285D01*
X129431142Y-90895714D01*
X129358571Y-90750571D01*
X129286000Y-90678000D01*
X129140857Y-90605428D01*
X128850571Y-90605428D01*
X128705428Y-90678000D01*
X128632857Y-90750571D01*
X128560285Y-90895714D01*
X128560285Y-90968285D01*
X128632857Y-91113428D01*
X128705428Y-91186000D01*
X128850571Y-91258571D01*
X129140857Y-91258571D01*
X129286000Y-91331142D01*
X129358571Y-91403714D01*
X129431142Y-91548857D01*
X129431142Y-91839142D01*
X129358571Y-91984285D01*
X129286000Y-92056857D01*
X129140857Y-92129428D01*
X128850571Y-92129428D01*
X128705428Y-92056857D01*
X128632857Y-91984285D01*
X128560285Y-91839142D01*
X128560285Y-91548857D01*
X128632857Y-91403714D01*
X128705428Y-91331142D01*
X128850571Y-91258571D01*
X128052285Y-91113428D02*
X127689428Y-92129428D01*
X127326571Y-91113428D01*
D13*
X123835000Y-94595000D02*
G75*
G02X122410000Y-94520000I-750000J-675000D01*
G01*
D16*
X123260000Y-95270000D02*
G75*
G03X123260000Y-95270000I-175000J0D01*
G01*
D13*
X124010000Y-92270000D02*
G75*
G03X124010000Y-92270000I-925000J0D01*
G01*
X124010000Y-98270000D02*
G75*
G03X124010000Y-98270000I-925000J0D01*
G01*
X123085000Y-97270000D02*
X123085000Y-96370000D01*
X123085000Y-95270000D02*
X123085000Y-93270000D01*
%LPC*%
D17*
X133254000Y-95250000D03*
D18*
G36*
X128105512Y-93452734D02*
G01*
X128180793Y-93463901D01*
X128254616Y-93482393D01*
X128326271Y-93508031D01*
X128395068Y-93540570D01*
X128460345Y-93579695D01*
X128521472Y-93625030D01*
X128577861Y-93676139D01*
X128628970Y-93732528D01*
X128674305Y-93793655D01*
X128713430Y-93858932D01*
X128745969Y-93927729D01*
X128771607Y-93999384D01*
X128790099Y-94073207D01*
X128801266Y-94148488D01*
X128805000Y-94224500D01*
X128805000Y-96275500D01*
X128801266Y-96351512D01*
X128790099Y-96426793D01*
X128771607Y-96500616D01*
X128745969Y-96572271D01*
X128713430Y-96641068D01*
X128674305Y-96706345D01*
X128628970Y-96767472D01*
X128577861Y-96823861D01*
X128521472Y-96874970D01*
X128460345Y-96920305D01*
X128395068Y-96959430D01*
X128326271Y-96991969D01*
X128254616Y-97017607D01*
X128180793Y-97036099D01*
X128105512Y-97047266D01*
X128029500Y-97051000D01*
X126478500Y-97051000D01*
X126402488Y-97047266D01*
X126327207Y-97036099D01*
X126253384Y-97017607D01*
X126181729Y-96991969D01*
X126112932Y-96959430D01*
X126047655Y-96920305D01*
X125986528Y-96874970D01*
X125930139Y-96823861D01*
X125879030Y-96767472D01*
X125833695Y-96706345D01*
X125794570Y-96641068D01*
X125762031Y-96572271D01*
X125736393Y-96500616D01*
X125717901Y-96426793D01*
X125706734Y-96351512D01*
X125703000Y-96275500D01*
X125703000Y-94224500D01*
X125706734Y-94148488D01*
X125717901Y-94073207D01*
X125736393Y-93999384D01*
X125762031Y-93927729D01*
X125794570Y-93858932D01*
X125833695Y-93793655D01*
X125879030Y-93732528D01*
X125930139Y-93676139D01*
X125986528Y-93625030D01*
X126047655Y-93579695D01*
X126112932Y-93540570D01*
X126181729Y-93508031D01*
X126253384Y-93482393D01*
X126327207Y-93463901D01*
X126402488Y-93452734D01*
X126478500Y-93449000D01*
X128029500Y-93449000D01*
X128105512Y-93452734D01*
G37*
G36*
X131242764Y-98153336D02*
G01*
X131330179Y-98166303D01*
X131415901Y-98187775D01*
X131499106Y-98217546D01*
X131578993Y-98255330D01*
X131654791Y-98300762D01*
X131725771Y-98353404D01*
X131791250Y-98412750D01*
X131850596Y-98478229D01*
X131903238Y-98549209D01*
X131948670Y-98625007D01*
X131986454Y-98704894D01*
X132016225Y-98788099D01*
X132037697Y-98873821D01*
X132050664Y-98961236D01*
X132055000Y-99049500D01*
X132055000Y-100850500D01*
X132050664Y-100938764D01*
X132037697Y-101026179D01*
X132016225Y-101111901D01*
X131986454Y-101195106D01*
X131948670Y-101274993D01*
X131903238Y-101350791D01*
X131850596Y-101421771D01*
X131791250Y-101487250D01*
X131725771Y-101546596D01*
X131654791Y-101599238D01*
X131578993Y-101644670D01*
X131499106Y-101682454D01*
X131415901Y-101712225D01*
X131330179Y-101733697D01*
X131242764Y-101746664D01*
X131154500Y-101751000D01*
X129353500Y-101751000D01*
X129265236Y-101746664D01*
X129177821Y-101733697D01*
X129092099Y-101712225D01*
X129008894Y-101682454D01*
X128929007Y-101644670D01*
X128853209Y-101599238D01*
X128782229Y-101546596D01*
X128716750Y-101487250D01*
X128657404Y-101421771D01*
X128604762Y-101350791D01*
X128559330Y-101274993D01*
X128521546Y-101195106D01*
X128491775Y-101111901D01*
X128470303Y-101026179D01*
X128457336Y-100938764D01*
X128453000Y-100850500D01*
X128453000Y-99049500D01*
X128457336Y-98961236D01*
X128470303Y-98873821D01*
X128491775Y-98788099D01*
X128521546Y-98704894D01*
X128559330Y-98625007D01*
X128604762Y-98549209D01*
X128657404Y-98478229D01*
X128716750Y-98412750D01*
X128782229Y-98353404D01*
X128853209Y-98300762D01*
X128929007Y-98255330D01*
X129008894Y-98217546D01*
X129092099Y-98187775D01*
X129177821Y-98166303D01*
X129265236Y-98153336D01*
X129353500Y-98149000D01*
X131154500Y-98149000D01*
X131242764Y-98153336D01*
G37*
D19*
X187960000Y-81280000D03*
D20*
X162560000Y-99060000D03*
D21*
X160020000Y-99060000D03*
X162560000Y-96520000D03*
X160020000Y-96520000D03*
X162560000Y-93980000D03*
X160020000Y-93980000D03*
X162560000Y-91440000D03*
X160020000Y-91440000D03*
D19*
X160020000Y-83820000D03*
X167640000Y-83820000D03*
X167640000Y-96520000D03*
X162560000Y-83820000D03*
X165100000Y-83820000D03*
X205740000Y-99060000D03*
X205740000Y-83820000D03*
X170180000Y-91440000D03*
X172720000Y-93980000D03*
X205740000Y-86360000D03*
X205740000Y-88900000D03*
X198120000Y-96520000D03*
X170180000Y-99060000D03*
X172720000Y-99060000D03*
X177800000Y-83820000D03*
X172720000Y-91440000D03*
X170180000Y-93980000D03*
X203200000Y-86360000D03*
X203200000Y-88900000D03*
X182880000Y-96520000D03*
X203200000Y-99060000D03*
X182880000Y-99060000D03*
X175260000Y-83820000D03*
X177800000Y-93980000D03*
X205740000Y-91440000D03*
X198120000Y-88900000D03*
X198120000Y-86360000D03*
X193040000Y-96520000D03*
X185420000Y-99060000D03*
X177800000Y-99060000D03*
X172720000Y-83820000D03*
X175260000Y-93980000D03*
X198120000Y-91440000D03*
X193040000Y-88900000D03*
X195580000Y-86360000D03*
X190500000Y-96520000D03*
X180340000Y-99060000D03*
X170180000Y-83820000D03*
X203200000Y-93980000D03*
X203200000Y-91440000D03*
X190500000Y-88900000D03*
X193040000Y-86360000D03*
X180340000Y-96520000D03*
X175260000Y-99060000D03*
X190500000Y-81280000D03*
X203200000Y-83820000D03*
X182880000Y-93980000D03*
X200660000Y-91440000D03*
X195580000Y-88900000D03*
X187960000Y-86360000D03*
X185420000Y-96520000D03*
X203200000Y-81280000D03*
X193040000Y-81280000D03*
X180340000Y-83820000D03*
X190500000Y-93980000D03*
X195580000Y-91440000D03*
X200660000Y-88900000D03*
X190500000Y-86360000D03*
X200660000Y-96520000D03*
X198120000Y-81280000D03*
X205740000Y-81280000D03*
X193040000Y-83820000D03*
X187960000Y-93980000D03*
X175260000Y-91440000D03*
X187960000Y-88900000D03*
X200660000Y-86360000D03*
X203200000Y-96520000D03*
X200660000Y-81280000D03*
X185420000Y-81280000D03*
X200660000Y-83820000D03*
X193040000Y-93980000D03*
X193040000Y-91440000D03*
X182880000Y-88900000D03*
X182880000Y-86360000D03*
X205740000Y-96520000D03*
X195580000Y-81280000D03*
X182880000Y-81280000D03*
X190500000Y-83820000D03*
X180340000Y-93980000D03*
X190500000Y-91440000D03*
X185420000Y-88900000D03*
X185420000Y-86360000D03*
X177800000Y-96520000D03*
X198120000Y-99060000D03*
X180340000Y-81280000D03*
X187960000Y-83820000D03*
X205740000Y-93980000D03*
X185420000Y-91440000D03*
X180340000Y-88900000D03*
X180340000Y-86360000D03*
X170180000Y-96520000D03*
X170180000Y-81280000D03*
X200660000Y-99060000D03*
X185420000Y-83820000D03*
X195580000Y-93980000D03*
X187960000Y-91440000D03*
X177800000Y-88900000D03*
X175260000Y-86360000D03*
X187960000Y-96520000D03*
X177800000Y-81280000D03*
X195580000Y-99060000D03*
X198120000Y-83820000D03*
X198120000Y-93980000D03*
X177800000Y-91440000D03*
X172720000Y-88900000D03*
X172720000Y-86360000D03*
X172720000Y-96520000D03*
X187960000Y-99060000D03*
X175410000Y-81280000D03*
X182880000Y-83820000D03*
X185420000Y-93980000D03*
X182880000Y-91440000D03*
X170180000Y-88900000D03*
X170180000Y-86360000D03*
X195580000Y-96520000D03*
X190500000Y-99060000D03*
X172720000Y-81280000D03*
X195580000Y-83820000D03*
X200660000Y-93980000D03*
X180340000Y-91440000D03*
X175260000Y-88900000D03*
X177800000Y-86360000D03*
X175260000Y-96520000D03*
X193040000Y-99060000D03*
D22*
X149860000Y-86360000D03*
X149860000Y-83820000D03*
D23*
X149860000Y-81280000D03*
D22*
X149860000Y-99060000D03*
X149860000Y-96520000D03*
D23*
X149860000Y-93980000D03*
M02*
